<svg id="Layer_1-2" xmlns="http://www.w3.org/2000/svg" width="27.339" height="26.779" viewBox="0 0 27.339 26.779">
  <g id="Icon_feather-heart" transform="translate(16.448 6.599)">
    <path id="Path_374" data-name="Path 374" d="M22.07,6.63a2.213,2.213,0,0,1,2.21,2.22,2.236,2.236,0,0,1-.64,1.56l-3.02,3.03a.32.32,0,0,1-.46,0l-3.03-3.03a2.214,2.214,0,0,1,3.06-3.2.462.462,0,0,1,.07.07l.13.13.13-.13a2.137,2.137,0,0,1,1.56-.64Zm-1.69,6.1,2.79-2.79a1.556,1.556,0,1,0-2.2-2.2l-.36.36a.332.332,0,0,1-.47,0h0l-.36-.36a1.549,1.549,0,0,0-2.19,2.19l2.79,2.79Z" transform="translate(-16.449 -6.599)" fill="#c4c4c4"/>
  </g>
  <g id="Rectangle_2170" transform="translate(5.484 10.746)">
    <path id="Path_375" data-name="Path 375" d="M9.55,11.54a.993.993,0,0,0-1.35.36L6.28,15.22a.993.993,0,0,0,.36,1.35l3.32,1.92a.993.993,0,0,0,1.35-.36l1.92-3.32a.993.993,0,0,0-.36-1.35L9.55,11.54m.33-.57,3.32,1.92a1.641,1.641,0,0,1,.6,2.25h0l-1.92,3.32a1.641,1.641,0,0,1-2.25.6h0L6.31,17.14a1.641,1.641,0,0,1-.6-2.25h0l1.92-3.32a1.641,1.641,0,0,1,2.25-.6Z" transform="translate(-5.486 -10.746)" fill="#c4c4c4"/>
  </g>
  <g id="Rectangle_2169_-_Outline" transform="translate(0 3.271)">
    <path id="Path_376" data-name="Path 376" d="M2.14,7.16A2.313,2.313,0,0,0,.81,10.15L6.37,24.63a2.314,2.314,0,0,0,2.98,1.33l8.01-3.08a2.314,2.314,0,0,0,1.33-2.98L13.14,5.42a2.306,2.306,0,0,0-2.98-1.33L2.14,7.16m17.17,12.5A2.975,2.975,0,0,1,17.6,23.5h0L9.59,26.58a2.975,2.975,0,0,1-3.84-1.71h0L.2,10.38A2.975,2.975,0,0,1,1.91,6.54h0L9.92,3.47a2.975,2.975,0,0,1,3.84,1.71m.37.96,5.19,13.52M13.76,5.18l.37.96" transform="translate(-0.001 -3.271)" fill="#c4c4c4"/>
  </g>
  <path id="Path_377" data-name="Path 377" d="M25.26,20.11H19.08a.38.38,0,0,1,0-.76h6.18A1.351,1.351,0,0,0,26.61,18V2.1A1.351,1.351,0,0,0,25.26.75h-9.8A1.351,1.351,0,0,0,14.11,2.1V5.82a.38.38,0,1,1-.76,0V2.1A2.1,2.1,0,0,1,15.45,0h9.79a2.1,2.1,0,0,1,2.1,2.1V18a2.1,2.1,0,0,1-2.1,2.1Z" transform="translate(-0.001)" fill="#c4c4c4"/>
</svg>
