<svg id="Layer_1" data-name="Layer 1" xmlns="http://www.w3.org/2000/svg" viewBox="0 0 22 22"><defs><style>.cls-1{fill:#F5E7C0;}</style></defs><path class="cls-1" d="M8.78.36a14.38,14.38,0,0,1,1.6,1.07,12,12,0,0,1,1.51,1.43,10.16,10.16,0,0,1,1.5,2.29,8.94,8.94,0,0,1,.71,2.27c.1.63.11,1.28.17,1.91a18.24,18.24,0,0,1,0,2.09,9.36,9.36,0,0,1-.56,3.14s0,0,0,0A10.62,10.62,0,0,0,16,7.42a1.93,1.93,0,0,1,.4.56,13.26,13.26,0,0,1,1.17,2.64A10.52,10.52,0,0,1,18,12.85a7.27,7.27,0,0,1-.29,2.93,11.92,11.92,0,0,1-1.59,3.29,14.59,14.59,0,0,1-1.1,1.39,13.88,13.88,0,0,1-1,1,.45.45,0,0,1-.22.13,26.62,26.62,0,0,0,.87-4.66l-.83.56a10.7,10.7,0,0,1-1.4.79c-.27.12-.29.12-.44-.12a12.59,12.59,0,0,1-1.63-4,15,15,0,0,1-.26-2c0-.38.06-.75,0-1.14a3.82,3.82,0,0,0-.59.45A7.54,7.54,0,0,0,7.69,14a9.16,9.16,0,0,0-.62,2.07A10.25,10.25,0,0,0,7,18.47a10.92,10.92,0,0,0,.42,2.46c.06.22.11.44.18.68a2.36,2.36,0,0,1-.65-.49A10.25,10.25,0,0,1,5.3,19.26a8.51,8.51,0,0,1-1.32-3,7.2,7.2,0,0,1-.13-2.07,10.74,10.74,0,0,1,1.29-4c.47-.94.93-1.88,1.42-2.81S7.57,5.41,8,4.43A6.61,6.61,0,0,0,8.7,2.2a7.55,7.55,0,0,0,0-1.84Z"/></svg>