<?xml version="1.0" standalone="no"?>
<!DOCTYPE svg PUBLIC "-//W3C//DTD SVG 20010904//EN"
 "http://www.w3.org/TR/2001/REC-SVG-20010904/DTD/svg10.dtd">
<svg version="1.0" xmlns="http://www.w3.org/2000/svg"
 width="78.000000pt" height="78.000000pt" viewBox="0 0 78.000000 78.000000"
 preserveAspectRatio="xMidYMid meet" id="home">

<g transform="translate(0.000000,78.000000) scale(0.100000,-0.100000)"
fill="#000000" stroke="none">
<path d="M295 576 c-143 -87 -135 -73 -135 -225 0 -75 5 -140 11 -155 16 -34
55 -48 125 -44 l59 3 3 63 c3 61 3 62 32 62 29 0 29 -1 32 -62 l3 -63 59 -3
c70 -4 109 10 125 44 6 14 11 79 11 153 0 109 -3 132 -17 148 -20 23 -170 117
-200 127 -13 4 -47 -11 -108 -48z m188 -55 l87 -54 0 -122 c0 -139 -5 -148
-67 -143 l-38 3 -5 60 -5 60 -65 0 -65 0 -5 -60 -5 -60 -38 -3 c-62 -5 -67 4
-67 143 l0 122 88 55 c48 31 89 55 92 55 3 -1 45 -26 93 -56z"/>
</g>
</svg>
