<?xml version="1.0" encoding="UTF-8"?>
<svg id="Layer_2" data-name="Layer 2" xmlns="http://www.w3.org/2000/svg" viewBox="0 0 1554.84 1209.87">
  <g id="Layer_2-2" data-name="Layer 2">
    <path d="M1462.81,218.89c-37.07-72.71-84.01-138.45-140.6-197.24-20.77-21.58-47.55-27.21-72.67-16.08-23.94,10.61-41.17,34.77-36.16,60.18,3.42,17.33,12.65,35.7,24.56,48.82,120.85,133.25,185.64,289.14,190.44,468.95,5.29,197.94-60.09,369.8-194.48,515.47-8.25,8.95-15.58,20.23-19.14,31.73-8.75,28.32,4.56,57.26,30.24,71.19,26.95,14.63,55.77,9.01,79.4-16.2,152.72-162.89,227.59-356.8,230.44-539.96,.27-175.9-30-305.18-92.04-426.88v.02Z" fill="#fff"/>
    <path d="M309.68,1085.1C99.84,854.9,65.61,497.11,230.16,232.64c27.85-44.76,63.61-84.66,96.45-126.24,16.7-21.14,21.73-43.63,11.33-68.39-10.18-24.24-29.73-35.98-49.75-37.35-27.93-.78-44.6,9.31-58.72,25.26C-5.5,291.37-57.71,591.58,62.25,922.51c36.56,100.85,97.06,188.39,171.6,265.75,26,26.98,63.89,28.4,89.98,4.11,24.96-23.23,26.22-61.4,2.8-88.7-5.46-6.36-11.3-12.39-16.95-18.58h0Z" fill="#fff"/>
    <path d="M778.2,416.18c-102.88-.12-187.19,84.6-187.49,188.43-.3,103.45,84.21,188.9,186.93,189.02,102.93,.11,187.17-84.58,187.46-188.45,.29-103.61-84.03-188.87-186.9-188.99h0Z" fill="#fff"/>
    <path d="M1116.76,242.64c-28.12-30.64-67.7-34.08-94.66-8.72-26.32,24.76-25.66,63.36,1.6,93.55,145.63,161.26,145.95,393.56,.76,553.9-28.46,31.43-29.19,70.24-1.77,94.97,27.72,25,66.06,21.14,94.5-9.88,93.86-102.38,139.77-223.56,141.49-361.98-1.82-138.45-48.03-259.53-141.92-361.84h0Z" fill="#fff"/>
    <path d="M530.37,329.48c29.06-31.88,29.86-71.78,1.93-96.56-27.52-24.42-66.02-19.97-94.46,11.15-93.16,101.91-138.78,222.43-140.76,360.01,1.7,139.13,47.61,261.07,142.97,363.11,9.89,10.59,24.28,19.48,38.19,23.28,27.45,7.5,54.33-6.35,67.31-30.3,13.96-25.77,8.59-53.88-15.32-80.17-143.37-157.66-143.31-393.1,.15-550.51h0Z" fill="#fff"/>
  </g>
</svg>