<svg xmlns="http://www.w3.org/2000/svg" width="512" height="512">
    <path style="fill:#bcd4e0; stroke:none;" d="M340 79.4244C304.683 84.0751 271.571 95.7426 245.174 120.704C239.282 126.275 231.811 132.437 228.533 140C223.516 151.577 230.902 163.625 243 165.521C254.164 167.27 260.125 157.882 267.004 151.004C274.906 143.101 284.244 136.305 294 130.862C335.948 107.457 388.89 110.843 427 140.425C471.021 174.595 489.283 235.476 465.691 287C460.184 299.028 453.177 309.96 444.572 320C440.251 325.041 433.867 329.021 430.84 335.004C424.56 347.413 433.216 361.728 447 361.945C459.908 362.149 471.611 346.293 478.626 337C500.062 308.601 512 275.64 512 240C512 150.501 433.609 67.0974 340 79.4244z"/>
    <path style="fill:#3995d0; stroke:none;" d="M381 81L382 82L381 81M398 85L399 86L398 85M301 87L302 88L301 87M284 94L285 95L284 94M278 97L279 98L278 97M276 98L277 99L276 98M335 116L336 117L335 116M329 117L330 118L329 117M242 123L243 124L242 123M397 123L398 124L397 123M241 124L242 125L241 124M239 126L240 127L239 126M412 130L413 131L412 130M230 136L231 137L230 136M272 145L273 146L272 145M340 150.428C326.293 152.392 308.874 157.57 299.214 168.093C290.497 177.588 293.666 193.196 306 197.612C317.826 201.846 326.446 192.211 337 188.749C354.311 183.071 373.31 187.098 386.999 199.184C402.35 212.738 409.258 234.349 402.644 254C399.902 262.149 392.705 269.322 392.097 278C391.293 289.472 400.377 298.948 412 297.823C422.016 296.853 427.491 288.219 431.742 280C440.945 262.202 444.121 241.741 440.537 222C432.022 175.091 386.903 143.709 340 150.428M487 152L488 153L487 152M238 164L239 165L238 164M495 166L496 167L495 166M496 168L497 169L496 168M456 171L457 172L456 171M503 185L504 186L503 185M507 198L508 199L507 198M509 207L510 208L509 207M473 212L474 213L473 212z"/>
    <path style="fill:#e74d3d; stroke:none;" d="M31 220.439C17.709 222.531 5.54121 230.635 1.4429 244C-2.62886 257.278 0 274.205 0 288L0 375C0 391.581 -0.605303 406.318 14 417.468C23.5003 424.72 34.7334 424 46 424L99 424L265 424L317 424C326.102 424 336.104 425.16 345 422.957C357.628 419.829 367.058 409.419 370.239 397C372.462 388.324 371 377.914 371 369L371 315C371 305.36 374.963 284.155 369.258 276.133C364.855 269.943 356.304 273.413 350 272.907C341.546 272.227 332.782 267.364 327.326 260.985C322.33 255.144 318.995 247.701 318.329 240C317.79 233.769 321.374 226.202 314.891 221.858C309.356 218.149 299.355 220 293 220L241 220L101 220C78.4066 220 53.3108 216.927 31 220.439z"/>
    <path style="fill:#3995d0; stroke:none;" d="M350 220.468C325.854 224.915 333.723 260.349 358 255.66C379.847 251.44 371.872 216.441 350 220.468z"/>
    <path style="fill:#fff;stroke:none;" d="M53 371L53 323C53 304.118 54.1353 284.842 52.956 266C52.5515 259.537 46.7364 253.746 40.108 257.319C31.7733 261.812 35 279.186 35 287L35 349C35 358.845 33.3606 370.347 35.3441 380C38.1254 393.536 69.4062 388 80 388C84.8182 388 91.7421 389.248 94.9907 384.772C98.629 379.758 96.0514 372.572 89.9846 371.279C78.6167 368.854 64.6283 371 53 371z"/>
    <path style="fill:#fff; stroke:none;" d="M121.015 256.758C111.931 260.062 115 275.498 115 283L115 364C115 371.777 112.239 391.246 125.985 387.562C135.667 384.968 132 365.575 132 358L132 278C132 271.129 133.925 252.063 121.015 256.758z"/>
    <path style="fill:#fff; stroke:none;" d="M190 358C184.758 344.105 182.669 328.467 179.349 314L173.35 288C171.463 279.662 170.867 267.237 165.995 260.109C162.047 254.332 153.216 255.351 150.757 262.015C147.81 270.002 154.5 284.945 156.349 293L171.349 358C173.127 365.747 173.598 378.478 178.703 384.772C182.196 389.078 190.004 388.457 194.996 387.891C205.751 386.673 206.954 364.494 208.79 356C213.049 336.299 217.567 316.575 222.374 297C224.811 287.079 229.925 274.256 228.887 264.004C228.091 256.133 218.348 253.726 213.728 260.109C208.778 266.948 207.974 279.841 206.21 288C204.259 297.026 201.934 305.971 200 315C196.924 329.356 193.679 343.787 190 358z"/>
    <path style="fill:#fff; stroke:none;" d="M265 371L265 335L295 335C299.186 334.998 304.209 335.605 306.991 331.772C310.659 326.718 307.816 320.048 301.996 318.434C291.134 315.42 276.271 318 265 318L265 274C276.269 274 290.036 276.149 300.999 273.467C306.488 272.124 310.753 266.688 307.817 261.044C305.031 255.687 299.185 256.002 294 256C282.667 255.996 271.333 255.941 260 256.001C254.56 256.029 249.114 256.945 247.434 263.004C245.131 271.303 247 282.407 247 291L247 351C247 359.771 244.062 375.103 248.179 382.981C250.878 388.145 255.921 387.998 261 388L294 388C298.841 388 304.73 388.71 307.542 383.811C310.422 378.795 307.345 372.917 301.996 371.434C291.134 368.42 276.271 371 265 371z"/>
</svg>