<svg version="1.2" xmlns="http://www.w3.org/2000/svg" viewBox="0 0 44 74" width="44" height="74">
	<title>portraitScreen-svg</title>
	<style>
		.s0 { fill: #ffffff } 
	</style>
	<g id="Group_353">
		<path id="Union_3" fill-rule="evenodd" class="s0" d="m6.2 74q-1.2 0-2.3-0.5-1.2-0.5-2.1-1.3-0.8-0.9-1.3-2.1-0.5-1.1-0.5-2.3v-61.2q0-1.3 0.5-2.4 0.5-1.2 1.3-2 0.9-0.9 2.1-1.4 1.1-0.5 2.3-0.5h31q1.2 0 2.4 0.5 1.1 0.5 2 1.4 0.9 0.8 1.3 2 0.5 1.1 0.5 2.4v61.2q0 1.2-0.5 2.3-0.4 1.2-1.3 2.1-0.9 0.8-2 1.3-1.2 0.5-2.4 0.5zm-4.7-67.4v61.2q0 0.9 0.4 1.7 0.3 0.9 1 1.5 0.6 0.7 1.5 1 0.8 0.4 1.8 0.4h30.9q0.9 0 1.8-0.4 0.8-0.3 1.5-1 0.6-0.6 1-1.5 0.3-0.8 0.3-1.7v-61.2q0-0.9-0.3-1.8-0.4-0.8-1-1.5-0.7-0.7-1.5-1-0.9-0.4-1.8-0.4h-30.9q-1 0-1.8 0.4-0.9 0.3-1.5 1-0.7 0.7-1 1.5-0.4 0.9-0.4 1.8zm15.7 58.6c0-1.8 1.1-3.4 2.7-4.1 1.7-0.7 3.6-0.3 4.8 1 1.3 1.2 1.7 3.1 1 4.8-0.7 1.6-2.3 2.7-4.1 2.7q-0.9 0-1.7-0.3-0.8-0.4-1.4-1-0.6-0.6-1-1.4-0.3-0.8-0.3-1.7zm1.6 0c0 1.1 0.7 2.1 1.7 2.6 1.1 0.4 2.3 0.2 3.1-0.6 0.8-0.8 1-2 0.6-3.1-0.4-1-1.5-1.7-2.6-1.7q-0.5 0-1.1 0.2-0.5 0.2-0.9 0.6-0.4 0.4-0.6 0.9-0.2 0.5-0.2 1.1zm-0.6-57.5c-0.3 0-0.6-0.1-0.8-0.3-0.2-0.2-0.3-0.5-0.3-0.8 0-0.3 0.1-0.6 0.3-0.8 0.2-0.2 0.5-0.3 0.8-0.3h6.9c0.3 0 0.5 0.1 0.8 0.3 0.2 0.2 0.3 0.5 0.3 0.8 0 0.3-0.1 0.6-0.3 0.8-0.3 0.2-0.5 0.3-0.8 0.3z"/>
		<path id="Union_4" fill-rule="evenodd" class="s0" d="m15.7 35q0.1-0.2 0.3-0.4 0.1-0.2 0.3-0.4 0.2-0.1 0.4-0.3 0.2-0.1 0.4-0.2 0.2-0.2 0.4-0.3 0.3-0.1 0.5-0.2 0.3-0.1 0.6-0.1 0.2-0.1 0.5-0.2 0.3 0 0.6-0.1 0.3 0 0.6-0.1 0.3 0 0.6 0 0.4 0 0.7 0 0.3 0 0.6 0 0.3 0 0.6 0 0.3 0.1 0.6 0.1 0.3 0.1 0.7 0.1 0.2 0.1 0.5 0.2 0.2 0 0.5 0.1 0.2 0.1 0.5 0.2 0.2 0.1 0.5 0.3 0.2 0.1 0.4 0.2 0.2 0.2 0.3 0.3 0.2 0.2 0.4 0.4 0.1 0.2 0.2 0.4 0.2 0.2 0.3 0.4 0.1 0.2 0.1 0.5 0.1 0.2 0.1 0.4 0 0.3 0 0.5 0 0.3 0 0.5 0 0.3-0.1 0.5 0 0.2-0.1 0.5-0.1 0.2-0.3 0.4-0.1 0.2-0.2 0.4-0.2 0.1-0.4 0.3-0.1 0.2-0.3 0.3-0.2 0.2-0.4 0.3-0.3 0.1-0.5 0.2-0.3 0.1-0.5 0.2-0.3 0.1-0.5 0.2-0.3 0.1-0.5 0.1-0.4 0.1-0.7 0.1-0.3 0.1-0.6 0.1-0.3 0-0.6 0-0.3 0-0.6 0-0.3 0-0.7 0-0.3 0-0.6 0-0.3 0-0.6-0.1-0.3 0-0.6-0.1-0.3 0-0.5-0.1-0.3-0.1-0.6-0.2-0.2-0.1-0.5-0.2-0.2-0.1-0.4-0.2-0.2-0.2-0.4-0.3-0.2-0.1-0.4-0.3-0.2-0.2-0.3-0.3-0.2-0.2-0.3-0.4-0.1-0.2-0.2-0.4-0.1-0.3-0.2-0.5 0-0.2-0.1-0.5 0-0.2 0-0.5 0-0.2 0-0.5 0.1-0.2 0.1-0.4 0.1-0.3 0.2-0.5 0.1-0.2 0.2-0.4zm10.4 0.6q-0.2-0.1-0.3-0.2-0.2-0.1-0.3-0.2-0.2-0.1-0.3-0.2-0.2-0.1-0.4-0.1-0.2-0.1-0.4-0.2-0.2 0-0.4-0.1-0.2 0-0.4-0.1-0.2 0-0.4 0-0.2 0-0.4-0.1-0.2 0-0.4 0-0.2 0-0.4 0-0.2 0-0.4 0-0.2 0-0.4 0-0.2 0-0.4 0-0.3 0-0.5 0-0.2 0.1-0.4 0.1-0.2 0-0.4 0-0.2 0.1-0.4 0.1-0.2 0.1-0.4 0.1-0.2 0.1-0.4 0.2-0.1 0-0.3 0.1-0.2 0.1-0.3 0.2-0.2 0.1-0.3 0.2-0.2 0.1-0.3 0.2-0.1 0.1-0.2 0.3-0.1 0.1-0.2 0.3 0 0.1-0.1 0.3 0 0.2 0 0.3 0 0.2 0 0.4 0.1 0.1 0.1 0.3 0.1 0.1 0.2 0.3 0.1 0.1 0.2 0.2 0.1 0.2 0.3 0.3 0.1 0.1 0.3 0.2 0.1 0.1 0.3 0.1 0.2 0.1 0.3 0.2 0.2 0.1 0.4 0.1 0.2 0.1 0.4 0.1 0.2 0.1 0.4 0.1 0.2 0 0.4 0.1 0.2 0 0.4 0 0.2 0 0.5 0 0.2 0 0.4 0 0.2 0.1 0.4 0.1 0.2 0 0.4-0.1 0.2 0 0.4 0 0.2 0 0.4 0 0.2 0 0.4 0 0.2-0.1 0.4-0.1 0.2 0 0.4-0.1 0.2 0 0.4-0.1 0.2-0.1 0.4-0.1 0.2-0.1 0.4-0.2 0.1 0 0.3-0.1 0.1-0.1 0.3-0.2 0.1-0.1 0.3-0.3 0.1-0.1 0.2-0.2 0.1-0.2 0.1-0.3 0.1-0.2 0.1-0.3 0.1-0.2 0.1-0.4 0-0.1-0.1-0.3 0-0.2-0.1-0.3 0-0.2-0.1-0.3-0.1-0.2-0.2-0.3zm-10.6-11.3l4.9 3.2q0-0.1-0.1-0.2 0 0 0-0.1-0.1-0.1-0.1-0.2 0-0.1 0-0.2 0-0.2-0.1-0.4 0-0.1 0-0.1 0-0.1 0-0.1 0-0.1 0-0.1 0-0.1 0-0.1 0-0.2 0-0.4 0-0.2 0.1-0.4 0-0.2 0.1-0.3 0-0.2 0.1-0.4 0.1-0.2 0.1-0.3 0.1-0.2 0.2-0.3 0.1-0.2 0.2-0.3 0.1-0.2 0.3-0.3 0.1-0.1 0.2-0.2 0.2-0.2 0.3-0.3 0.2-0.1 0.3-0.1 0.2-0.1 0.4-0.2 0.2-0.1 0.3-0.1 0.2-0.1 0.4-0.1 0.2-0.1 0.4-0.1 0.2 0 0.4 0 0.2 0 0.4 0 0.2 0 0.4 0.1 0.2 0 0.5 0.1 0.2 0 0.4 0.1 0.1 0.1 0.3 0.2 0.2 0.1 0.3 0.2 0.2 0.1 0.3 0.2 0.2 0.2 0.3 0.3 0.2 0.2 0.3 0.3 0.1 0.2 0.2 0.3 0.1 0.2 0.2 0.4 0.1 0.2 0.1 0.3 0.1 0.2 0.2 0.4 0 0.2 0.1 0.5 0 0.2 0 0.4 0 0.2 0 0.4 0 0.2 0 0.4 0 0.2 0 0.4-0.1 0.3-0.1 0.5-0.1 0.2-0.2 0.4 0 0.1-0.1 0.3-0.1 0.2-0.2 0.4-0.1 0.1-0.2 0.3-0.2 0.1-0.3 0.3-0.1 0.1-0.3 0.2-0.1 0.2-0.3 0.3-0.1 0.1-0.3 0.2-0.2 0.1-0.4 0.2-0.1 0-0.3 0.1-0.2 0.1-0.4 0.1-0.2 0-0.4 0.1-0.2 0-0.5 0-0.2 0-0.4 0-0.2-0.1-0.5-0.1-0.2 0-0.4-0.1-0.2-0.1-0.5-0.2-0.2 0-0.4-0.1-0.2-0.1-0.4-0.2-0.2-0.1-0.4-0.3-0.2-0.1-0.4-0.2l-5-3.2zm10.9 1.1q-0.1-0.1-0.2-0.2 0-0.1-0.1-0.2 0-0.1-0.1-0.2-0.1-0.1-0.2-0.2-0.1 0-0.2-0.1-0.1-0.1-0.2-0.2-0.1 0-0.2-0.1-0.1 0-0.2-0.1-0.1 0-0.3 0-0.1-0.1-0.2-0.1-0.1 0-0.3 0-0.1-0.1-0.2 0-0.2-0.1-0.3 0-0.1 0-0.3 0-0.1 0-0.2 0.1-0.1 0-0.3 0-0.1 0.1-0.2 0.1-0.1 0.1-0.2 0.1-0.1 0.1-0.2 0.2-0.1 0-0.2 0.1 0 0.1-0.1 0.2-0.1 0.1-0.2 0.2 0 0.1-0.1 0.2 0 0.1-0.1 0.2 0 0.1-0.1 0.3 0 0.1 0 0.2-0.1 0.2-0.1 0.3 0 0.1 0 0.2 0 0.2 0 0.3 0 0.1 0.1 0.3 0 0.1 0 0.2 0.1 0.2 0.1 0.3 0 0.1 0.1 0.2 0.1 0.1 0.1 0.2 0.1 0.1 0.2 0.2 0 0.1 0.1 0.2 0.1 0.1 0.2 0.1 0.1 0.1 0.2 0.2 0.1 0 0.2 0.1 0.1 0.1 0.2 0.1 0.2 0 0.3 0.1 0.1 0 0.2 0 0.2 0.1 0.3 0.1 0.1 0 0.3 0 0.1 0 0.2 0 0.2 0 0.3-0.1 0.1 0 0.2 0 0.1-0.1 0.3-0.1 0.1 0 0.2-0.1 0.1-0.1 0.2-0.1 0.1-0.1 0.2-0.2 0.1 0 0.2-0.1 0.1-0.1 0.2-0.2 0-0.1 0.1-0.2 0.1-0.1 0.1-0.2 0.1-0.1 0.1-0.2 0.1-0.1 0.1-0.3 0.1-0.1 0.1-0.2 0-0.1 0-0.3 0.1-0.1 0.1-0.2 0-0.2-0.1-0.3 0-0.1 0-0.3 0-0.1-0.1-0.2 0-0.1 0-0.3zm0.4 17.4q0.1-0.2 0.3-0.3 0.2-0.1 0.4-0.2 0.1-0.1 0.3-0.1 0.2-0.1 0.4 0 0.2-0.1 0.4 0 0.2 0 0.4 0.1 0.2 0.1 0.3 0.2 0.2 0.1 0.3 0.3 0.2 0.1 0.3 0.3 0.1 0.1 0.2 0.3 0 0.2 0.1 0.4 0 0.2 0 0.4 0 0.2 0 0.4-0.1 0.2-0.1 0.4-0.1 0.2-0.2 0.3-0.1 0.2-0.3 0.3-0.1 0.2-0.3 0.3-0.1 0.1-0.3 0.2-0.2 0.1-0.4 0.1-0.2 0.1-0.4 0-0.2 0.1-0.4 0-0.2 0-0.3-0.1-0.2-0.1-0.4-0.2-0.1-0.1-0.3-0.3-0.1-0.1-0.2-0.3-0.1-0.1-0.2-0.3-0.1-0.2-0.1-0.4 0-0.2 0-0.4 0-0.2 0-0.4 0-0.2 0.1-0.4 0.1-0.2 0.2-0.3 0.1-0.2 0.2-0.3zm2.1 0.7q0-0.1-0.1-0.2-0.1 0-0.2-0.1-0.1 0-0.2 0-0.1 0-0.2 0-0.1 0-0.2 0-0.1 0-0.2 0.1-0.1 0-0.1 0-0.1 0.1-0.2 0.2 0 0-0.1 0.1-0.1 0.1-0.1 0.2 0 0.1 0 0.2-0.1 0.1-0.1 0.2 0 0.1 0.1 0.2 0 0.1 0 0.2 0 0.1 0.1 0.2 0.1 0.1 0.1 0.1 0.1 0.1 0.2 0.2 0.1 0 0.1 0 0.1 0.1 0.2 0.1 0.1 0 0.2 0 0.1 0 0.2 0 0.1 0 0.2 0 0.1-0.1 0.2-0.1 0.1-0.1 0.1-0.2 0.1 0 0.2-0.1 0-0.1 0.1-0.2 0-0.1 0-0.2 0-0.1 0-0.2 0-0.1 0-0.2 0-0.1 0-0.2-0.1-0.1-0.1-0.2-0.1-0.1-0.2-0.1z"/>
	</g>
</svg>