<svg xmlns="http://www.w3.org/2000/svg" width="73.663" height="43.409" viewBox="0 0 73.663 43.409">
  <g id="Group_353" data-name="Group 353" transform="translate(0)">
    <path id="Union_3" data-name="Union 3" d="M6.247,73.663A6.246,6.246,0,0,1,0,67.418V6.245A6.246,6.246,0,0,1,6.247,0H37.162a6.246,6.246,0,0,1,6.247,6.245V67.418a6.246,6.246,0,0,1-6.247,6.245ZM1.6,6.245V67.418a4.65,4.65,0,0,0,4.645,4.644H37.162a4.65,4.65,0,0,0,4.646-4.644V6.245A4.65,4.65,0,0,0,37.162,1.6H6.247A4.65,4.65,0,0,0,1.6,6.245ZM17.3,64.859a4.405,4.405,0,1,1,4.4,4.4A4.4,4.4,0,0,1,17.3,64.859Zm1.6,0a2.8,2.8,0,1,0,2.8-2.8A2.806,2.806,0,0,0,18.9,64.859ZM18.26,7.367a1.121,1.121,0,0,1,0-2.242h6.889a1.121,1.121,0,1,1,0,2.242Z" transform="translate(73.663 0) rotate(90)" fill="#fff"/>
    <path id="Union_4" data-name="Union 4" d="M12.758,14.5a3.885,3.885,0,0,1-1.291-1.359,6.655,6.655,0,0,1-.744-2.019,12.186,12.186,0,0,1-.24-2.488,12.227,12.227,0,0,1,.24-2.479,6.656,6.656,0,0,1,.744-2.027,3.9,3.9,0,0,1,1.291-1.36,3.424,3.424,0,0,1,1.863-.5,3.382,3.382,0,0,1,1.855.5,3.931,3.931,0,0,1,1.283,1.36A6.656,6.656,0,0,1,18.5,6.152a12.3,12.3,0,0,1,.239,2.479,12.26,12.26,0,0,1-.239,2.488,6.655,6.655,0,0,1-.744,2.019A3.919,3.919,0,0,1,16.476,14.5a3.373,3.373,0,0,1-1.855.5A3.416,3.416,0,0,1,12.758,14.5ZM13.39,4.143a3.308,3.308,0,0,0-.744,1.231,7.366,7.366,0,0,0-.368,1.616,14.085,14.085,0,0,0-.1,1.642,14.085,14.085,0,0,0,.1,1.642,7.216,7.216,0,0,0,.368,1.607A3.315,3.315,0,0,0,13.39,13.1a1.65,1.65,0,0,0,1.231.487,1.6,1.6,0,0,0,1.205-.487,3.471,3.471,0,0,0,.744-1.223,6.891,6.891,0,0,0,.377-1.607,14.074,14.074,0,0,0,.1-1.642,14.074,14.074,0,0,0-.1-1.642,7.032,7.032,0,0,0-.377-1.616,3.462,3.462,0,0,0-.744-1.231,1.6,1.6,0,0,0-1.205-.487A1.65,1.65,0,0,0,13.39,4.143ZM2.07,14.684l3.249-4.89L5.3,9.777a2.164,2.164,0,0,1-.7.24c-.137.022-.276.043-.419.059a3.323,3.323,0,0,1-.4.026A3.87,3.87,0,0,1,2.291,9.82a3.7,3.7,0,0,1-1.2-.787,3.6,3.6,0,0,1-.8-1.205A3.927,3.927,0,0,1,0,6.305a4.182,4.182,0,0,1,.317-1.65A3.726,3.726,0,0,1,1.2,3.381,3.982,3.982,0,0,1,2.532,2.56,4.668,4.668,0,0,1,4.19,2.27a4.541,4.541,0,0,1,1.659.3,3.979,3.979,0,0,1,1.325.83,3.8,3.8,0,0,1,.872,1.265,3.991,3.991,0,0,1,.317,1.591,4.757,4.757,0,0,1-.325,1.8A11.2,11.2,0,0,1,7.2,9.692L4.036,14.684ZM3.164,3.851a2.417,2.417,0,0,0-.795.539,2.324,2.324,0,0,0-.513.82,2.928,2.928,0,0,0-.18,1.043,2.748,2.748,0,0,0,.18,1.009,2.427,2.427,0,0,0,.5.8,2.211,2.211,0,0,0,.787.53,2.694,2.694,0,0,0,1.027.188A2.754,2.754,0,0,0,5.207,8.6a2.281,2.281,0,0,0,.8-.53,2.354,2.354,0,0,0,.513-.8A2.817,2.817,0,0,0,6.7,6.237a2.783,2.783,0,0,0-.18-1,2.419,2.419,0,0,0-.513-.82,2.471,2.471,0,0,0-.795-.556A2.5,2.5,0,0,0,4.19,3.655,2.6,2.6,0,0,0,3.164,3.851ZM20.486,3.4a1.852,1.852,0,0,1-.609-1.424,1.8,1.8,0,0,1,.609-1.41A1.956,1.956,0,0,1,21.926,0a2,2,0,0,1,1.439.578,1.823,1.823,0,0,1,.609,1.4,1.9,1.9,0,0,1-.609,1.41,2.043,2.043,0,0,1-1.439.564A2.07,2.07,0,0,1,20.486,3.4ZM21.2,1.276a.87.87,0,0,0-.3.7.965.965,0,0,0,.3.712,1.091,1.091,0,0,0,.727.282,1.119,1.119,0,0,0,.727-.282,1.024,1.024,0,0,0,.3-.712.917.917,0,0,0-.3-.7,1,1,0,0,0-.727-.3A.978.978,0,0,0,21.2,1.276Z" transform="translate(47.304 10.718) rotate(90)" fill="#fff"/>
  </g>
</svg>
