<svg xmlns="http://www.w3.org/2000/svg" width="12.004" height="15.755" viewBox="0 0 12.004 15.755">
  <path id="Icon_ionic-md-lock" data-name="Icon ionic-md-lock" d="M17.253,8.486H16.5v-1.5a3.751,3.751,0,0,0-7.5,0v1.5H8.25a1.5,1.5,0,0,0-1.5,1.5v7.5a1.5,1.5,0,0,0,1.5,1.5h9a1.5,1.5,0,0,0,1.5-1.5v-7.5A1.5,1.5,0,0,0,17.253,8.486Zm-4.5,6.827a1.5,1.5,0,1,1,1.5-1.5A1.5,1.5,0,0,1,12.752,15.313Zm2.326-6.827H10.426v-1.5a2.326,2.326,0,1,1,4.652,0Z" transform="translate(-6.75 -3.234)" fill="#c4c4c4"/>
</svg>
