<?xml version="1.0" encoding="utf-8"?>
<!-- Generator: Adobe Illustrator 26.0.0, SVG Export Plug-In . SVG Version: 6.00 Build 0)  -->
<svg version="1.1" xmlns="http://www.w3.org/2000/svg" xmlns:xlink="http://www.w3.org/1999/xlink" x="0px" y="0px"
	 viewBox="0 0 18.6 18.6" style="enable-background:new 0 0 18.6 18.6;" xml:space="preserve">
<style type="text/css">
	.st0{fill:#999999;}
</style>
<g id="Layer_1">
	<path id="icon" class="st0" d="M15,0H3.6C1.6,0,0,1.6,0,3.6v7.6c0,2,1.6,3.6,3.6,3.6h0.3v3.9l5.7-3.9H15c2,0,3.6-1.6,3.6-3.6V3.6
		C18.6,1.6,16.9,0,15,0z M17,11.2c0,1.1-0.9,2-2.1,2H9.1l-3.6,2.5v-2.5H3.6c-1.1,0-2-0.9-2.1-2V3.6c0-1.1,0.9-2,2.1-2H15
		c1.1,0,2,0.9,2.1,2V11.2z M6.2,7.3c0,0.5-0.4,1-1,1s-1-0.4-1-1s0.4-1,1-1S6.2,6.8,6.2,7.3z M10.2,7.3c0,0.5-0.4,1-1,1s-1-0.4-1-1
		s0.4-1,1-1S10.2,6.8,10.2,7.3z M14.3,7.3c0,0.5-0.4,1-1,1s-1-0.4-1-1s0.4-1,1-1S14.3,6.8,14.3,7.3z"/>
</g>
<g id="Layer_2">
</g>
</svg>
