<svg xmlns="http://www.w3.org/2000/svg" width="19" height="19" viewBox="0 0 19 19">
  <path id="icon" d="M143.306,128H131.694A3.668,3.668,0,0,0,128,131.633v7.776a3.668,3.668,0,0,0,3.694,3.633h.314V147l5.786-3.958h5.512A3.668,3.668,0,0,0,147,139.409v-7.776A3.668,3.668,0,0,0,143.306,128Zm2.111,11.409a2.083,2.083,0,0,1-2.111,2.05h-6L133.591,144v-2.538h-1.9a2.083,2.083,0,0,1-2.111-2.05v-7.776a2.084,2.084,0,0,1,2.111-2.05h11.611a2.084,2.084,0,0,1,2.111,2.05Zm-7.917-3.888-1.187,0a1.187,1.187,0,1,0,1.188-1.187A1.187,1.187,0,0,0,136.313,135.521Zm-3.562,0-1.187,0a1.187,1.187,0,1,0,1.188-1.187A1.187,1.187,0,0,0,131.563,135.521Zm10.688,0-1.187,0a1.188,1.188,0,1,0,1.188-1.187A1.187,1.187,0,0,0,141.063,135.521Z" transform="translate(-128 -128)" fill="#999"/>
</svg>
