<svg xmlns="http://www.w3.org/2000/svg" width="19.5" height="14.5" viewBox="0 0 19.5 14.5">
  <g id="组_180" data-name="组 180" transform="translate(-313.25 -402.25)">
    <path id="矩形_427" data-name="矩形 427" d="M2-.75H16A2.753,2.753,0,0,1,18.75,2v9A2.753,2.753,0,0,1,16,13.75H2A2.753,2.753,0,0,1-.75,11V2A2.753,2.753,0,0,1,2-.75Zm14,13A1.251,1.251,0,0,0,17.25,11V2A1.251,1.251,0,0,0,16,.75H2A1.251,1.251,0,0,0,.75,2v9A1.251,1.251,0,0,0,2,12.25Z" transform="translate(314 403)" fill="#999"/>
    <path id="直线_186" data-name="直线 186" d="M.75,12H-.75V0H.75Z" transform="translate(319.96 403.5)" fill="#999"/>
    <path id="直线_187" data-name="直线 187" d="M.75,12H-.75V0H.75Z" transform="translate(325.59 403.5)" fill="#999"/>
    <path id="直线_188" data-name="直线 188" d="M5,.75H0V-.75H5Z" transform="translate(315.5 406)" fill="#999"/>
    <path id="直线_192" data-name="直线 192" d="M5,.75H0V-.75H5Z" transform="translate(325 406)" fill="#999"/>
    <path id="直线_189" data-name="直线 189" d="M5,.75H0V-.75H5Z" transform="translate(315.5 413)" fill="#999"/>
    <path id="直线_193" data-name="直线 193" d="M5,.75H0V-.75H5Z" transform="translate(325 413)" fill="#999"/>
    <path id="直线_190" data-name="直线 190" d="M.75,8H-.75V0H.75Z" transform="translate(316.6 405.5)" fill="#999"/>
    <path id="直线_191" data-name="直线 191" d="M.75,8H-.75V0H.75Z" transform="translate(328.95 405.5)" fill="#999"/>
  </g>
</svg>
