<svg version="1.1" xmlns="http://www.w3.org/2000/svg" xmlns:xlink="http://www.w3.org/1999/xlink" width="12.322" height="12.322" viewBox="0,0,224,256"><g transform=""><g fill="#ffffff" fill-rule="nonzero" stroke="none" stroke-width="1" stroke-linecap="butt" stroke-linejoin="miter" stroke-miterlimit="10" stroke-dasharray="" stroke-dashoffset="0" font-family="none" font-weight="none" font-size="none" text-anchor="none" style="mix-blend-mode: normal"><g transform="scale(0.5,0.5)"><path d="M436,192h-124c-13.3,0 -24,-10.7 -24,-24v-124c0,-6.6 5.4,-12 12,-12h40c6.6,0 12,5.4 12,12v84h84c6.6,0 12,5.4 12,12v40c0,6.6 -5.4,12 -12,12zM160,168v-124c0,-6.6 -5.4,-12 -12,-12h-40c-6.6,0 -12,5.4 -12,12v84h-84c-6.6,0 -12,5.4 -12,12v40c0,6.6 5.4,12 12,12h124c13.3,0 24,-10.7 24,-24zM160,468v-124c0,-13.3 -10.7,-24 -24,-24h-124c-6.6,0 -12,5.4 -12,12v40c0,6.6 5.4,12 12,12h84v84c0,6.6 5.4,12 12,12h40c6.6,0 12,-5.4 12,-12zM352,468v-84h84c6.6,0 12,-5.4 12,-12v-40c0,-6.6 -5.4,-12 -12,-12h-124c-13.3,0 -24,10.7 -24,24v124c0,6.6 5.4,12 12,12h40c6.6,0 12,-5.4 12,-12z"></path></g></g></g></svg>