<svg version="1.1" xmlns="http://www.w3.org/2000/svg" xmlns:xlink="http://www.w3.org/1999/xlink" width="14px" height="14px" viewBox="0,0,256,227.54688"><g fill="#ffffff" fill-rule="nonzero" stroke="none" stroke-width="1" stroke-linecap="butt" stroke-linejoin="miter" stroke-miterlimit="10" stroke-dasharray="" stroke-dashoffset="0" font-family="none" font-weight="none" font-size="none" text-anchor="none" style="mix-blend-mode: normal"><g transform="translate(0.01111,-0.01415) scale(0.44444,0.44444)"><path d="M301.1,34.8c11.5,5.2 18.9,16.6 18.9,29.2v384c0,12.6 -7.4,24 -18.9,29.2c-11.5,5.2 -25,3.1 -34.4,-5.3l-134.9,-119.9h-67.8c-35.3,0 -64,-28.7 -64,-64v-64c0,-35.3 28.7,-64 64,-64h67.8l134.9,-119.9c9.4,-8.4 22.9,-10.4 34.4,-5.3zM425,167l55,55l55,-55c9.4,-9.4 24.6,-9.4 33.9,0c9.3,9.4 9.4,24.6 0,33.9l-55,55l55,55c9.4,9.4 9.4,24.6 0,33.9c-9.4,9.3 -24.6,9.4 -33.9,0l-55,-55l-55,55c-9.4,9.4 -24.6,9.4 -33.9,0c-9.3,-9.4 -9.4,-24.6 0,-33.9l55,-55l-55,-55c-9.4,-9.4 -9.4,-24.6 0,-33.9c9.4,-9.3 24.6,-9.4 33.9,0z"></path></g></g></svg>