<svg xmlns="http://www.w3.org/2000/svg" width="19.957" height="11.642" viewBox="0 0 19.957 11.642">
  <g id="Icon_ionic-ios-menu" data-name="Icon ionic-ios-menu" transform="translate(0)">
    <path id="Path_312" data-name="Path 312" d="M23.625,12.164H5.332a.943.943,0,0,1-.832-1.02h0a.943.943,0,0,1,.832-1.02H23.625a.943.943,0,0,1,.832,1.02h0A.943.943,0,0,1,23.625,12.164Z" transform="translate(-4.5 -10.125)" fill="#fff"/>
    <path id="Path_313" data-name="Path 313" d="M23.625,18.914H5.332a.943.943,0,0,1-.832-1.02h0a.943.943,0,0,1,.832-1.02H23.625a.943.943,0,0,1,.832,1.02h0A.943.943,0,0,1,23.625,18.914Z" transform="translate(-4.5 -12.074)" fill="#fff"/>
    <path id="Path_314" data-name="Path 314" d="M23.625,25.664H5.332a.943.943,0,0,1-.832-1.02h0a.943.943,0,0,1,.832-1.02H23.625a.943.943,0,0,1,.832,1.02h0A.943.943,0,0,1,23.625,25.664Z" transform="translate(-4.5 -14.023)" fill="#fff"/>
  </g>
</svg>
