<svg version="1.1" xmlns="http://www.w3.org/2000/svg" xmlns:xlink="http://www.w3.org/1999/xlink" width="22px" height="19px" viewBox="0,0,256,204.79688"><g fill="#ffffff" fill-rule="nonzero" stroke="none" stroke-width="1" stroke-linecap="butt" stroke-linejoin="miter" stroke-miterlimit="10" stroke-dasharray="" stroke-dashoffset="0" font-family="none" font-weight="none" font-size="none" text-anchor="none" style="mix-blend-mode: normal"><g transform="translate(-0.00125,-0.00156) scale(0.4,0.4)"><path d="M320,400c-75.85,0 -137.25,-58.71 -142.9,-133.11l-104.9,-81.07c-13.79,17.3 -26.48,35.59 -36.72,55.59c-4.63927,9.177 -4.63927,20.013 0,29.19c54.23,105.81 161.59,177.4 284.52,177.4c26.91,0 52.87,-4 77.89,-10.46l-51.89,-40.15c-8.56976,1.65546 -17.27218,2.52905 -26,2.61zM633.82,458.1l-110.55,-85.44c33.58171,-28.30093 61.20059,-62.99705 81.25,-102.07c4.63927,-9.177 4.63927,-20.013 0,-29.19c-54.23,-105.81 -161.59,-177.4 -284.52,-177.4c-51.485,0.06239 -102.13383,13.0237 -147.32,37.7l-127.22,-98.33c-3.35047,-2.60716 -7.59974,-3.77588 -11.81225,-3.24885c-4.21251,0.52703 -8.04287,2.70661 -10.64775,6.05885l-19.63,25.27c-5.42252,6.97561 -4.16453,17.0261 2.81,22.45l588.36,454.73c3.35047,2.60716 7.59974,3.77588 11.81225,3.24885c4.21251,-0.52703 8.04287,-2.70661 10.64775,-6.05885l19.64,-25.27c5.42027,-6.97823 4.15775,-17.02912 -2.82,-22.45zM450.1,316.1l-39.3,-30.38c3.30963,-9.56533 5.06522,-19.59918 5.2,-29.72c0.39571,-30.04811 -13.48454,-58.50285 -37.40842,-76.68783c-23.92388,-18.18499 -55.05525,-23.94443 -83.90158,-15.52217c6.03011,8.17101 9.29201,18.05484 9.31,28.21c-0.14919,3.37932 -0.66556,6.73237 -1.54,10l-73.61,-56.89c25.56982,-21.36794 57.82728,-33.08538 91.15,-33.11c38.19768,-0.02124 74.83699,15.14333 101.84683,42.15317c27.00984,27.00984 42.17441,63.64915 42.15317,101.84683c0,21.63 -5.29,41.79 -13.9,60.11z"></path></g></g></svg>