<svg version="1.1" xmlns="http://www.w3.org/2000/svg" xmlns:xlink="http://www.w3.org/1999/xlink" width="22px" height="19px" viewBox="0,0,256,227.54688"><g fill="#ffffff" fill-rule="nonzero" stroke="none" stroke-width="1" stroke-linecap="butt" stroke-linejoin="miter" stroke-miterlimit="10" stroke-dasharray="" stroke-dashoffset="0" font-family="none" font-weight="none" font-size="none" text-anchor="none" style="mix-blend-mode: normal"><g transform="translate(0,-0.00434) scale(0.44444,0.44444)"><path d="M572.52,241.4c-54.23,-105.81 -161.59,-177.4 -284.52,-177.4c-122.93,0 -230.32,71.64 -284.52,177.41c-4.63927,9.177 -4.63927,20.013 0,29.19c54.23,105.81 161.59,177.4 284.52,177.4c122.93,0 230.32,-71.64 284.52,-177.41c4.63927,-9.177 4.63927,-20.013 0,-29.19zM288,400c-79.529,0 -144,-64.471 -144,-144c0,-79.529 64.471,-144 144,-144c79.529,0 144,64.471 144,144c0.01858,38.19687 -15.14684,74.83463 -42.1561,101.8439c-27.00927,27.00927 -63.64703,42.17469 -101.8439,42.1561zM288,160c-8.56869,0.11975 -17.08208,1.39457 -25.31,3.79c14.01526,19.0462 12.01602,45.47397 -4.705,62.195c-16.72102,16.72102 -43.1488,18.72026 -62.195,4.705c-10.76154,39.64762 4.9597,81.74257 39.0761,104.62958c34.1164,22.88701 79.02887,21.46821 111.63268,-3.52651c32.60381,-24.99472 45.63677,-67.99803 32.39422,-106.88735c-13.24255,-38.88932 -49.81095,-65.00243 -90.893,-64.90573z"></path></g></g></svg>