<svg xmlns="http://www.w3.org/2000/svg" width="9.058" height="11.322" viewBox="0 0 9.058 11.322">
  <g id="Icon_ionic-ios-pause" data-name="Icon ionic-ios-pause" transform="translate(-9 -6.75)">
    <path id="Path_316" data-name="Path 316" d="M11.544,18.072H9.287A.285.285,0,0,1,9,17.789V7.033a.285.285,0,0,1,.287-.283h2.257a.285.285,0,0,1,.287.283V17.789A.285.285,0,0,1,11.544,18.072Z" transform="translate(0)" fill="#fff"/>
    <path id="Path_317" data-name="Path 317" d="M23.919,18.072H21.662a.285.285,0,0,1-.287-.283V7.033a.285.285,0,0,1,.287-.283h2.257a.285.285,0,0,1,.287.283V17.789A.285.285,0,0,1,23.919,18.072Z" transform="translate(-6.148)" fill="#fff"/>
  </g>
</svg>
