<svg xmlns="http://www.w3.org/2000/svg" width="75" height="75" viewBox="0 0 75 75">
  <g id="收藏" transform="translate(-0.369 -0.347)" fill="none" stroke-linecap="round" stroke-linejoin="round">
    <path d="M75.231,28.837a2.66,2.66,0,0,0-2.128-1.8l-22.632-3.5L40.363,1.894A2.691,2.691,0,0,0,37.935.347h0a2.693,2.693,0,0,0-2.428,1.538l-10.2,21.591L2.646,26.9a2.673,2.673,0,0,0-1.519,4.509L17.572,48.319,13.643,72.159a2.68,2.68,0,0,0,3.938,2.784L37.823,63.806,58.017,75.019a2.8,2.8,0,0,0,1.3.328h.056a2.69,2.69,0,0,0,2.5-3.628L58.13,48.394,74.612,31.547a2.673,2.673,0,0,0,.619-2.709Z" stroke="none"/>
    <path d="M 37.93127059936523 3.775978088378906 L 28.01898193359375 24.75663375854492 C 27.59196853637695 25.66046142578125 26.74281692504883 26.29222106933594 25.7544059753418 26.44148635864258 L 3.719474792480469 29.76884078979492 L 19.72255706787109 46.22750854492188 C 20.38625717163086 46.91009521484375 20.68655395507812 47.8671875 20.53176879882812 48.80658721923828 L 16.71039581298828 71.99876403808594 L 36.37643051147461 61.17790985107422 C 37.28049468994141 60.68046188354492 38.37675476074219 60.68255996704102 39.2789192199707 61.18344879150391 L 58.89891052246094 72.07688903808594 L 55.16774368286133 48.87001037597656 C 55.01674270629883 47.93084716796875 55.32009124755859 46.97573471069336 55.98529052734375 46.29581069946289 L 72.02035522460938 29.90583419799805 L 50.0123291015625 26.50532150268555 C 49.02326965332031 26.35250854492188 48.17554473876953 25.71653366088867 47.75212860107422 24.80971145629883 L 37.93127059936523 3.775978088378906 M 37.93510437011719 0.3469009399414062 C 38.97574234008789 0.3469009399414062 39.92264175415039 0.9561996459960938 40.36335372924805 1.893775939941406 L 50.47042846679688 23.54051208496094 L 73.10269165039062 27.03747177124023 C 74.09642028808594 27.18754959106445 74.91207122802734 27.88121032714844 75.23085784912109 28.83745956420898 C 75.54894256591797 29.78439712524414 75.30561828613281 30.83438491821289 74.61185455322266 31.54682159423828 L 58.12970733642578 48.39378356933594 L 61.87986755371094 71.71879577636719 C 61.99237823486328 72.01872253417969 62.04862976074219 72.33754730224609 62.04862976074219 72.66567230224609 C 62.04862976074219 74.14691925048828 60.85810470581055 75.346923828125 59.37670516967773 75.346923828125 L 59.32044219970703 75.346923828125 C 58.87052917480469 75.346923828125 58.42979431152344 75.23442077636719 58.01728057861328 75.01878356933594 L 37.82265472412109 63.80629730224609 L 17.5810546875 74.94384765625 C 16.68109130859375 75.44072723388672 15.57463455200195 75.37509918212891 14.74030685424805 74.78446197509766 C 13.90589141845703 74.19384765625 13.47470474243164 73.17195892333984 13.64346694946289 72.15946197509766 L 17.57168197631836 48.31884765625 L 1.127265930175781 31.40628433227539 C 0.4241180419921875 30.69378662109375 0.189727783203125 29.6344108581543 0.5084915161132812 28.68753433227539 C 0.8273391723632812 27.73129653930664 1.652366638183594 27.0469856262207 2.646171569824219 26.89691162109375 L 25.30646896362305 23.4751091003418 L 35.50694274902344 1.884475708007812 C 35.95695495605469 0.9468994140625 36.89450454711914 0.3469009399414062 37.93510437011719 0.3469009399414062 Z" stroke="none" fill="#c4c4c4"/>
  </g>
</svg>
