<?xml version="1.0" encoding="UTF-8"?><svg id="_圖層_1" xmlns="http://www.w3.org/2000/svg" viewBox="0 0 595.28 841.89"><defs><style>.cls-1{fill:#4c9eea;stroke-width:0px;}</style></defs><path class="cls-1" d="m106,410.04c.97-7.13,1.62-14.33,2.98-21.39,11.77-61.13,45.21-106.61,99.74-136.33,30.7-16.74,63.94-23.77,98.79-21.75,53.51,3.1,98.27,24.98,133.91,64.96,25.66,28.79,42.15,62.5,45.87,100.85,7.01,72.34-15.12,133.68-74.06,178.92-25.29,19.41-54.53,30.22-86.09,34.75-35.03,5.03-69.2,1.67-102.14-11.32-55.96-22.06-92.36-62.36-109.92-119.75-4.65-15.19-7.3-30.78-8.43-46.63-.09-1.21-.42-2.4-.65-3.59,0-6.24,0-12.48,0-18.71Zm186.93-156.48c-6.78.84-18.41,1.51-29.72,3.8-53.29,10.78-93.54,39.54-116.97,89.1-20.63,43.62-24.32,88.94-6.99,134.67,27.97,73.77,100.28,118.03,178.57,108.45,58.09-7.11,101.3-37.68,129.28-88.91,18.56-33.99,23.65-70.51,16.57-108.67-6.05-32.59-19-61.88-41.98-86.12-33.63-35.47-75.77-51.09-128.76-52.32Z"/><path class="cls-1" d="m334.41,410.73c1.53,0,2.87,0,4.21,0,10.35,0,20.71-.01,31.06.01,4.86.01,8.41,2.29,10.31,6.71,1.89,4.4,1.1,8.54-2.08,12.16-.57.66-1.21,1.26-1.83,1.87-35.01,35.01-70.01,70.05-105.1,104.99-1.95,1.94-4.51,3.82-7.1,4.44-7.34,1.77-13.94-3.82-13.38-11.42.77-10.44,2.11-20.83,3.26-31.24,2.34-21.06,4.72-42.11,7.08-63.17.05-.48,0-.97,0-1.91-5.3,0-10.5,0-15.71,0-6.11,0-12.22,0-18.34,0-5.33,0-9.58-1.91-11.64-7.08-2.03-5.11-.44-9.38,3.38-13.2,35.4-35.33,70.75-70.71,106.13-106.07,4.52-4.52,9.02-5.55,13.82-3.27,4.69,2.23,6.89,6.46,6.21,12.8-2.01,18.71-4.13,37.42-6.22,56.12-1.34,12.02-2.72,24.03-4.06,36.04-.07.59,0,1.2,0,2.2Zm-57.92,87.14c21.58-21.58,43.17-43.17,64.69-64.69-6.01,0-12.47.1-18.91-.03-7.5-.14-12.53-5.65-11.74-12.87,2.07-18.82,4.24-37.63,6.35-56.45.68-6.09,1.27-12.2,1.85-17.82-21.58,21.58-43.17,43.18-64.71,64.72,6.14,0,12.7-.06,19.27.02,7.24.08,12.22,5.53,11.44,12.68-2.04,18.7-4.2,37.38-6.29,56.08-.7,6.25-1.32,12.5-1.94,18.37Z"/></svg>