<svg xmlns="http://www.w3.org/2000/svg" width="11" height="10.965" viewBox="0 0 11 10.965">
  <g id="Group_688" data-name="Group 688" transform="translate(1033 243)">
    <rect id="Rectangle_2396" data-name="Rectangle 2396" width="5.176" height="5.176" rx="2.588" transform="translate(-1033 -243)" fill="#c4c4c4"/>
    <path id="Path_453" data-name="Path 453" d="M-1026.279-66.347h-3.008a1.168,1.168,0,0,1-1.214-1.114v-3.413a.333.333,0,0,1,.333-.333.333.333,0,0,1,.333.333v3.413a.506.506,0,0,0,.548.448h3.008a.333.333,0,0,1,.333.333A.333.333,0,0,1-1026.279-66.347Z" transform="translate(-2.412 -165.776)" fill="#c4c4c4"/>
    <path id="Rectangle_2397" data-name="Rectangle 2397" d="M-8.386-9.5h3.413A1.115,1.115,0,0,1-3.86-8.386v3.413A1.115,1.115,0,0,1-4.974-3.86H-8.386A1.115,1.115,0,0,1-9.5-4.974V-8.386A1.115,1.115,0,0,1-8.386-9.5Zm3.413,4.975a.449.449,0,0,0,.448-.448V-8.386a.449.449,0,0,0-.448-.448H-8.386a.449.449,0,0,0-.448.448v3.413a.449.449,0,0,0,.448.448Z" transform="translate(-1018.14 -228.175)" fill="#c4c4c4"/>
    <path id="Line_670" data-name="Line 670" d="M-8.467-8.274a.331.331,0,0,1-.208-.073l-.7-.561a.333.333,0,0,1-.052-.468.333.333,0,0,1,.468-.052l.7.561a.333.333,0,0,1,.052.468A.332.332,0,0,1-8.467-8.274Z" transform="translate(-1020.207 -223.866)" fill="#c4c4c4"/>
    <path id="Path_454" data-name="Path 454" d="M-849.779-236.347a.333.333,0,0,1-.333-.333v-3.413a.506.506,0,0,0-.548-.448h-3.008a.333.333,0,0,1-.333-.333.333.333,0,0,1,.333-.333h3.008a1.168,1.168,0,0,1,1.213,1.114v3.413A.333.333,0,0,1-849.779-236.347Z" transform="translate(-172.729 -1.731)" fill="#c4c4c4"/>
    <path id="Line_671" data-name="Line 671" d="M-8.467-8.274a.331.331,0,0,1-.208-.073l-.7-.561a.333.333,0,0,1-.052-.468.333.333,0,0,1,.468-.052l.7.561a.333.333,0,0,1,.052.468A.332.332,0,0,1-8.467-8.274Z" transform="translate(-1017.211 -233.419)" fill="#c4c4c4"/>
  </g>
</svg>
