<svg xmlns="http://www.w3.org/2000/svg" width="10px" height="8px" viewBox="0 0 8.412 6.853">
  <g id="Group_701" data-name="Group 701" transform="translate(-329.696 -416)">
    <path id="Icon_ionic-ios-arrow-round-down" data-name="Icon ionic-ios-arrow-round-down" d="M15.73,12.245a.311.311,0,0,0-.438,0l-1.45,1.445V8.182a.309.309,0,0,0-.619,0v5.506l-1.45-1.447a.313.313,0,0,0-.438,0,.308.308,0,0,0,0,.436l1.976,1.961h0a.348.348,0,0,0,.1.064.3.3,0,0,0,.119.024.31.31,0,0,0,.217-.088l1.976-1.961A.3.3,0,0,0,15.73,12.245Z" transform="translate(318.448 408.125)" fill="#333"/>
    <path id="Icon_ionic-ios-arrow-round-down-2" data-name="Icon ionic-ios-arrow-round-down" d="M4.483,4.37a.311.311,0,0,0-.438,0L2.6,5.813V.307a.309.309,0,0,0-.619,0V5.813L.527,4.366a.313.313,0,0,0-.438,0,.308.308,0,0,0,0,.436L2.067,6.765h0a.347.347,0,0,0,.1.064.3.3,0,0,0,.119.024A.31.31,0,0,0,2.5,6.765L4.476,4.8A.3.3,0,0,0,4.483,4.37Z" transform="translate(338.108 422.853) rotate(180)" fill="#333"/>
  </g>
</svg>
