<svg xmlns="http://www.w3.org/2000/svg" width="10.698" height="12.482" viewBox="0 0 10.698 12.482">
  <path id="Icon_ionic-ios-refresh" data-name="Icon ionic-ios-refresh" d="M14.781,9.405a.416.416,0,0,0-.415.379A4.523,4.523,0,1,1,9.741,4.911a.109.109,0,0,1,.114.111v1.4a.447.447,0,0,0,.685.376l2.68-1.875a.446.446,0,0,0,0-.755L10.543,2.32a.447.447,0,0,0-.685.376V3.969a.109.109,0,0,1-.109.111A5.327,5.327,0,1,0,15.2,9.854a.414.414,0,0,0-.415-.449Z" transform="translate(-4.5 -2.251)" fill="#fff"/>
</svg>
