<?xml version="1.0" encoding="UTF-8"?>
<svg id="Group_667" data-name="Group 667" xmlns="http://www.w3.org/2000/svg" viewBox="0 0 73.36 73.93">
  <path d="M18.28,36.27V8.4c0-4.09,3.28-7.4,7.32-7.4H58.56" fill="none" stroke="#efb77f" stroke-linejoin="round" stroke-width="2"/>
  <path d="M72.36,16.33v49.2c0,4.09-3.28,7.4-7.32,7.4H25.59c-1.23,0-2.39-.31-3.41-.85" fill="none" stroke="#efb77f" stroke-linejoin="round" stroke-width="2"/>
  <path d="M56.58,1V12.67c0,2.09,1.69,3.79,3.79,3.79h11.82c.07,0,.1-.08,.06-.13L59.41,1" fill="none" stroke="#efb77f" stroke-linecap="round" stroke-miterlimit="10" stroke-width="2"/>
  <line x1="29.11" y1="27.86" x2="62.71" y2="27.86" fill="none" stroke="#efb77f" stroke-linecap="round" stroke-miterlimit="10" stroke-width="2"/>
  <line x1="32.19" y1="41.42" x2="62.71" y2="41.42" fill="none" stroke="#efb77f" stroke-linecap="round" stroke-miterlimit="10" stroke-width="2"/>
  <line x1="38.15" y1="54.99" x2="62.71" y2="54.99" fill="none" stroke="#efb77f" stroke-linecap="round" stroke-miterlimit="10" stroke-width="2"/>
  <path d="M37.36,54.75c0,10.04-8.14,18.18-18.18,18.18S1,64.79,1,54.75s8.14-18.18,18.18-18.18" fill="none" stroke="#efb77f" stroke-linecap="round" stroke-miterlimit="10" stroke-width="2"/>
  <path d="M19.18,36.57c10.04,0,18.18,8.14,18.18,18.18" fill="none" stroke="#efb77f" stroke-linecap="round" stroke-miterlimit="10" stroke-width="2"/>
  <line x1="11.48" y1="47.02" x2="26.03" y2="61.56" fill="none" stroke="#efb77f" stroke-linecap="round" stroke-miterlimit="10" stroke-width="2"/>
  <line x1="11.48" y1="61.56" x2="26.03" y2="47.02" fill="none" stroke="#efb77f" stroke-linecap="round" stroke-miterlimit="10" stroke-width="2"/>
</svg>