<svg xmlns="http://www.w3.org/2000/svg" xmlns:xlink="http://www.w3.org/1999/xlink" width="16.087" height="21.445" viewBox="0 0 16.087 21.445">
  <defs>
    <clipPath id="clip-path">
      <rect id="Rectangle_1959" data-name="Rectangle 1959" width="16.087" height="21.445" fill="#8ECFFF"/>
    </clipPath>
  </defs>
  <g id="Group_618" data-name="Group 618" transform="translate(-204.456 -265.277)">
    <g id="orderlist" transform="translate(204.456 265.277)">
      <g id="Group_519" data-name="Group 519" transform="translate(0)">
      <!-- 以下的path fill是修改外框顏色 fill="#8ECFFF"-->
        <path id="Path_310" data-name="Path 310" d="M16.084,4.776a1.992,1.992,0,0,0-1.522-2.022,2.464,2.464,0,0,0-.62-.071c-.619-.009-1.238,0-1.878,0,0-.213,0-.407,0-.6a.68.68,0,0,0-.744-.74c-.384,0-.768-.009-1.151,0a.306.306,0,0,1-.332-.2A1.992,1.992,0,0,0,6.2,1.214a.187.187,0,0,1-.2.128q-.628-.008-1.256,0a.674.674,0,0,0-.721.72c0,.2,0,.4,0,.62H3.8c-.572,0-1.145,0-1.717,0A2.035,2.035,0,0,0,0,4.819q0,4.606,0,9.212,0,2.648,0,5.3a2.044,2.044,0,0,0,.825,1.723,2.4,2.4,0,0,0,.977.394H14.285a4.21,4.21,0,0,0,.633-.2,2,2,0,0,0,1.168-1.942q0-5.758,0-11.515c0-1,0-2.01,0-3.015M5.372,2.68H6.621a.679.679,0,0,0,.753-.69.665.665,0,0,1,.89-.607.655.655,0,0,1,.447.6.679.679,0,0,0,.767.7l1.173,0a.386.386,0,0,1,.056.011V4.01H5.372ZM13.994,20.1H2.1a.678.678,0,0,1-.756-.748q0-7.288,0-14.577a.683.683,0,0,1,.766-.759c.628,0,1.255,0,1.915,0,0,.233,0,.441,0,.649a.661.661,0,0,0,.686.689q3.33.006,6.66,0a.665.665,0,0,0,.694-.7c0-.2,0-.4,0-.619.063-.006.116-.015.169-.015.586,0,1.173,0,1.759,0a.679.679,0,0,1,.752.753q0,7.288,0,14.577a.679.679,0,0,1-.751.754" transform="translate(0 0)" />
        <path id="Path_311" data-name="Path 311" d="M80.567,192.91c1.326,0,2.652,0,3.977,0h3.412c.216,0,.433.008.649,0a.664.664,0,0,0,.627-.662.671.671,0,0,0-.621-.669c-.076-.007-.153,0-.23,0h-6.72c-.377,0-.754,0-1.13,0a.669.669,0,1,0,.036,1.337" transform="translate(-76.5 -183.529)" />
        <path id="Path_312" data-name="Path 312" d="M88.561,287.4c-1.326,0-2.652,0-3.977,0H82.532c-.628,0-1.256,0-1.884,0a.674.674,0,1,0-.01,1.34h7.787a2,2,0,0,0,.23,0,.648.648,0,0,0,.578-.446.665.665,0,0,0-.672-.888" transform="translate(-76.541 -275.332)" />
        <path id="Path_313" data-name="Path 313" d="M88.545,383.189c-.063,0-.126,0-.188,0H81.783c-.412,0-.823,0-1.235,0a.67.67,0,1,0,.012,1.338c1.319,0,2.638,0,3.956,0,1.34,0,2.679,0,4.019,0a.669.669,0,1,0,.009-1.338" transform="translate(-76.494 -367.105)" />
      </g>
    </g>
  </g>
</svg>
