<svg xmlns="http://www.w3.org/2000/svg" width="10" height="10" viewBox="0 0 12.428 12.428">
  <g id="Group_557" data-name="Group 557" transform="translate(-117 -1023)">
    <circle id="Ellipse_131" data-name="Ellipse 131" cx="6.213" cy="6.213" r="6.213" transform="translate(117 1023)" fill="transparent"/>
    <path id="Ellipse_131_-_Outline" data-name="Ellipse 131 - Outline" stroke="#d6343c" stroke-width="0.4" d="M6.214.654a5.56,5.56,0,1,0,5.56,5.56A5.566,5.566,0,0,0,6.214.654m0-.654A6.214,6.214,0,1,1,0,6.214,6.214,6.214,0,0,1,6.214,0Z" transform="translate(117 1023)" fill="#d6343c"/>
    <path id="Path_346" data-name="Path 346" stroke="#d6343c" stroke-width="0.4" d="M5.755-22.848l.19,4.221H6.6l.19-4.221Zm.511,4.708a.565.565,0,0,0-.42.165.526.526,0,0,0-.181.42.55.55,0,0,0,.181.42.572.572,0,0,0,.42.173.655.655,0,0,0,.437-.165.578.578,0,0,0,.173-.429.547.547,0,0,0-.173-.42A.59.59,0,0,0,6.266-18.14Z" transform="translate(116.944 1049.119)" fill="#d6343c"/>
  </g>
</svg>
