<svg xmlns="http://www.w3.org/2000/svg" width="21.791" height="21.795" viewBox="0 0 21.791 21.795">
  <g id="Group_619" data-name="Group 619" transform="translate(-296.83 -578.459)">
    <path id="Path_384" data-name="Path 384" d="M296.83,605.284c.056-.427.09-.859.173-1.281a10.141,10.141,0,0,1,5.965-7.8,8.276,8.276,0,0,1,3.306-.691.479.479,0,0,1,.545.51c0,.064,0,.128,0,.191q0,4.681.006,9.362a.7.7,0,0,0,.136.4q3,3.877,6.016,7.743c.286.368.259.575-.1.859a8.35,8.35,0,0,1-2.2,1.311,8.532,8.532,0,0,1-2.514.483,10.386,10.386,0,0,1-6.646-1.718,10.269,10.269,0,0,1-4.52-6.875c-.072-.388-.113-.782-.168-1.174Zm15.246,8.76c-.039-.055-.07-.1-.1-.145q-2.918-3.752-5.84-7.5a1.014,1.014,0,0,1-.228-.662q.007-4.51,0-9.02v-.295c-.318.04-.608.061-.891.116a8.508,8.508,0,0,0-5.9,4.274,9.808,9.808,0,0,0-1.3,6.234,9.186,9.186,0,0,0,3.493,6.325,9.665,9.665,0,0,0,8.581,1.82A5.523,5.523,0,0,0,312.076,614.043Z" transform="translate(0 -16.141)" fill="#8ECFFF"/>
    <path id="Path_385" data-name="Path 385" d="M502.278,578.459c.391.055.785.095,1.173.168a10.3,10.3,0,0,1,7.159,4.97,10.092,10.092,0,0,1,1.455,5.156c.008.439-.156.6-.6.6h-9.683c-.456,0-.611-.156-.611-.615q0-4.831,0-9.662a.6.6,0,0,1,.344-.619Zm-.186.945v9.035h9.023A9.471,9.471,0,0,0,502.092,579.4Z" transform="translate(-193.445)" fill="#8ECFFF"/>
    <path id="Path_386" data-name="Path 386" d="M523.32,799.83h4.361c.5,0,.654.153.638.649a10.422,10.422,0,0,1-3.242,7.371c-.3.291-.55.262-.838-.094q-2.727-3.374-5.452-6.75c-.116-.143-.238-.282-.345-.432a.449.449,0,0,1,.326-.738,1.885,1.885,0,0,1,.234-.007Zm1.4,7.075c1.461-1.325,2.941-4.782,2.644-6.14h-7.6Z" transform="translate(-209.7 -209.57)" fill="#8ECFFF"/>
    <path id="Path_387" data-name="Path 387" d="M512.592,593.578c.349.049.7.085,1.047.15a9.189,9.189,0,0,1,6.388,4.435,9.005,9.005,0,0,1,1.3,4.6c.007.391-.139.537-.536.537h-8.64c-.407,0-.545-.139-.545-.549q0-4.31,0-8.621a.534.534,0,0,1,.307-.552Zm-.166.843v8.062h8.051A8.451,8.451,0,0,0,512.426,594.421Z" transform="translate(-203.323 -14.313)" fill="#8ECFFF"/>
    <path id="Path_388" data-name="Path 388" d="M538.537,809.044h3.72c.424,0,.558.131.544.554a8.889,8.889,0,0,1-2.766,6.288c-.254.248-.469.223-.714-.08q-2.326-2.878-4.651-5.757c-.1-.122-.2-.241-.294-.369a.383.383,0,0,1,.278-.63,1.618,1.618,0,0,1,.2-.006Zm1.193,6.035c1.246-1.13,2.509-4.079,2.255-5.238H535.5Z" transform="translate(-224.799 -218.293)" fill="#8ECFFF"/>
    <path id="Path_389" data-name="Path 389" d="M308,618.581c.051-.406.081-.816.155-1.217a9.576,9.576,0,0,1,5.351-7.412,7.07,7.07,0,0,1,2.966-.656c.31-.005.471.158.489.485,0,.06,0,.121,0,.182q0,4.447.005,8.894a.694.694,0,0,0,.122.381q2.692,3.683,5.4,7.356c.257.35.233.546-.091.816a7.414,7.414,0,0,1-1.973,1.245,7.277,7.277,0,0,1-2.255.459,8.922,8.922,0,0,1-5.961-1.632,9.81,9.81,0,0,1-4.054-6.531c-.065-.369-.1-.743-.151-1.115Zm13.675,8.322c-.035-.052-.063-.1-.093-.137q-2.617-3.565-5.238-7.127a1,1,0,0,1-.2-.629q.007-4.285,0-8.57v-.28c-.285.038-.545.058-.8.11a7.674,7.674,0,0,0-5.294,4.06,9.775,9.775,0,0,0-1.17,5.923,8.871,8.871,0,0,0,3.133,6.009,8.3,8.3,0,0,0,7.7,1.729A4.865,4.865,0,0,0,321.675,626.9Z" transform="translate(-10.575 -29.192)" fill="#8ECFFF"/>
  </g>
</svg>
