<svg  xmlns="http://www.w3.org/2000/svg" width="4.777" height="4.102" viewBox="0 0 4.777 4.102">
  <g id="Icon_feather-chevrons-left" data-name="Icon feather-chevrons-left" transform="translate(13.277 14.102) rotate(180)">
    <path id="Path_165" data-name="Path 165" d="M10.551,14.1A.361.361,0,0,1,10.295,14L8.606,12.307a.362.362,0,0,1,0-.512l1.689-1.689a.362.362,0,1,1,.512.512L9.374,12.051l1.433,1.433a.362.362,0,0,1-.256.618Z" transform="translate(0 0)" fill="#999"/>
    <path id="Path_166" data-name="Path 166" d="M21.051,14.1A.361.361,0,0,1,20.795,14l-1.689-1.689a.362.362,0,0,1,0-.512l1.689-1.689a.362.362,0,0,1,.512.512l-1.433,1.433,1.433,1.433a.362.362,0,0,1-.256.618Z" transform="translate(-8.136 0)" fill="#999"/>
  </g>
</svg>
