<svg xmlns="http://www.w3.org/2000/svg" width="28" height="28" viewBox="0 0 28 28">
  <g id="Group_480" data-name="Group 480" transform="translate(-1178 7298)">
    <g id="Path_304" data-name="Path 304" transform="translate(1178 -7298)" fill="none" stroke-linecap="round">
      <path d="M14,0A14,14,0,1,1,0,14,14,14,0,0,1,14,0Z" stroke="none"/>
      <path d="M 14 2 C 10.79467964172363 2 7.781219482421875 3.248220443725586 5.514720916748047 5.514720916748047 C 3.248220443725586 7.781219482421875 2 10.79467964172363 2 14 C 2 17.2053108215332 3.248220443725586 20.21878051757812 5.514720916748047 22.48527908325195 C 7.781219482421875 24.75177955627441 10.79467964172363 26 14 26 C 17.2053108215332 26 20.21878051757812 24.75177955627441 22.48527908325195 22.48527908325195 C 24.75177955627441 20.21878051757812 26 17.2053108215332 26 14 C 26 10.79467964172363 24.75177955627441 7.781219482421875 22.48527908325195 5.514720916748047 C 20.21878051757812 3.248220443725586 17.2053108215332 2 14 2 M 14 0 C 21.73197937011719 0 28 6.268009185791016 28 14 C 28 21.73197937011719 21.73197937011719 28 14 28 C 6.268009185791016 28 0 21.73197937011719 0 14 C 0 6.268009185791016 6.268009185791016 0 14 0 Z" stroke="none" fill="#fff"/>
    </g>
    <path id="Path_305" data-name="Path 305" d="M6.84-13.642a8.8,8.8,0,0,1,2.223.38A5.89,5.89,0,0,1,11.1-12.2q-.931,1.064-1.843,2.071a3.35,3.35,0,0,0-1.14-.741,3.745,3.745,0,0,0-1.273-.285v3.04q.741.228,1.5.513a5.454,5.454,0,0,1,1.387.76,3.912,3.912,0,0,1,1.026,1.159,3.349,3.349,0,0,1,.4,1.71,4.142,4.142,0,0,1-.37,1.815A3.764,3.764,0,0,1,9.795-.874a4.359,4.359,0,0,1-1.406.779A5.44,5.44,0,0,1,6.764.19V1.577H5.358V.19A8.5,8.5,0,0,1,2.869-.275a6.288,6.288,0,0,1-2.2-1.283l1-1.036q.5-.523,1-1.054a3.155,3.155,0,0,0,.589.523,4.938,4.938,0,0,0,.7.408,4.812,4.812,0,0,0,.722.276,2.462,2.462,0,0,0,.684.1V-5.662Q4.541-5.89,3.79-6.175A4.855,4.855,0,0,1,2.47-6.916a3.451,3.451,0,0,1-.912-1.112,3.439,3.439,0,0,1-.342-1.606A3.553,3.553,0,0,1,1.6-11.3a3.942,3.942,0,0,1,.988-1.235,4.567,4.567,0,0,1,1.368-.779,5.169,5.169,0,0,1,1.5-.314v-1.311H6.84ZM5.453-11.191a1.736,1.736,0,0,0-.922.39,1.166,1.166,0,0,0-.409.959,1.184,1.184,0,0,0,.361.931,2.243,2.243,0,0,0,.969.475ZM6.764-2.318A1.461,1.461,0,0,0,7.78-2.746,1.467,1.467,0,0,0,8.151-3.8a1.239,1.239,0,0,0-.39-1,2.805,2.805,0,0,0-1-.523Z" transform="translate(1186 -7278)" fill="#fff"/>
  </g>
</svg>
