<svg id="Component_12_9" data-name="Component 12 – 9" xmlns="http://www.w3.org/2000/svg" width="16" height="12" viewBox="0 0 16.84 12.355">
  <path id="Icon_ionic-ios-arrow-round-down" data-name="Icon ionic-ios-arrow-round-down" d="M11.405,15.754a.561.561,0,0,1,.79,0l2.614,2.6V8.429a.558.558,0,0,1,1.116,0v9.926l2.614-2.609a.565.565,0,0,1,.79,0,.556.556,0,0,1,0,.785l-3.562,3.536h0a.627.627,0,0,1-.176.116.532.532,0,0,1-.215.043.559.559,0,0,1-.391-.159l-3.562-3.536A.547.547,0,0,1,11.405,15.754Z" transform="translate(-2.648 -7.875)" fill="#fff"/>
  <path id="Icon_ionic-ios-arrow-round-down-2" data-name="Icon ionic-ios-arrow-round-down" d="M11.405,12.351a.561.561,0,0,0,.79,0l2.614-2.6v9.926a.558.558,0,0,0,1.116,0V9.75l2.614,2.609a.565.565,0,0,0,.79,0,.556.556,0,0,0,0-.785L15.761,8.034h0a.627.627,0,0,0-.176-.116.532.532,0,0,0-.215-.043.559.559,0,0,0-.391.159L11.418,11.57A.547.547,0,0,0,11.405,12.351Z" transform="translate(-11.247 -7.875)" fill="#fff"/>
</svg>
