<svg xmlns="http://www.w3.org/2000/svg" width="11.758" height="11.758" viewBox="0 0 11.758 11.758">
  <g id="Group_541" data-name="Group 541" transform="translate(-345 -394)">
    <path id="Ellipse_9" data-name="Ellipse 9" d="M5.879.84a5.039,5.039,0,1,0,5.039,5.039A5.045,5.045,0,0,0,5.879.84m0-.84A5.879,5.879,0,1,1,0,5.879,5.879,5.879,0,0,1,5.879,0Z" transform="translate(345 394)" fill="#fff"/>
    <path id="icon" d="M203.209,192.637a.372.372,0,0,1-.526,0l-2.1-2.1-2.1,2.1a.372.372,0,0,1-.526-.526l2.1-2.1-2.1-2.1a.372.372,0,0,1,.526-.526l2.1,2.1,2.1-2.1a.372.372,0,0,1,.526.526l-2.1,2.1,2.1,2.1a.372.372,0,0,1,0,.526Z" transform="translate(150.292 209.864)" fill="#fff"/>
  </g>
</svg>
