<svg xmlns="http://www.w3.org/2000/svg" width="10.501" height="10.501" viewBox="0 0 10.501 10.501">
  <path id="Union_5" data-name="Union 5" d="M-1774.945,519.55a5.241,5.241,0,0,1-1.625-.322,5.25,5.25,0,0,1-1.444-.812,5.244,5.244,0,0,1-1.141-1.256,5.246,5.246,0,0,1-.682-1.554,5.254,5.254,0,0,1-.153-1.649,5.244,5.244,0,0,1,.368-1.615,5.245,5.245,0,0,1,.88-1.451,5.237,5.237,0,0,1,1.3-1.1,5.242,5.242,0,0,1,1.537-.615,5.244,5.244,0,0,1,1.653-.106,5.231,5.231,0,0,1,1.641.431.477.477,0,0,1,.242.63.477.477,0,0,1-.63.242,4.265,4.265,0,0,0-2.7-.266,4.264,4.264,0,0,0-2.319,1.4,4.266,4.266,0,0,0-1.021,2.508,4.265,4.265,0,0,0,.683,2.621,4.265,4.265,0,0,0,2.115,1.691,4.266,4.266,0,0,0,2.707.09,4.266,4.266,0,0,0,2.223-1.547,4.265,4.265,0,0,0,.855-2.57v-.439a.477.477,0,0,1,.478-.477.477.477,0,0,1,.477.477v.439a5.233,5.233,0,0,1-.274,1.675,5.261,5.261,0,0,1-.77,1.466,5.252,5.252,0,0,1-1.188,1.154,5.237,5.237,0,0,1-1.528.737,5.242,5.242,0,0,1-1.488.216C-1774.814,519.554-1774.88,519.553-1774.945,519.55Zm-.143-3.947-1.432-1.432a.477.477,0,0,1,0-.675.478.478,0,0,1,.675,0l1.094,1.094,4.435-4.44a.478.478,0,0,1,.675,0,.478.478,0,0,1,0,.675l-4.773,4.778a.48.48,0,0,1-.338.14A.477.477,0,0,1-1775.087,515.6Z" transform="translate(1780 -509.053)" fill="#fff"/>
</svg>
