<svg xmlns="http://www.w3.org/2000/svg" xmlns:xlink="http://www.w3.org/1999/xlink" width="20.492" height="20.492" viewBox="0 0 20.492 20.492">
  <defs>
    <clipPath id="clip-path">
      <rect id="Rectangle_1638" data-name="Rectangle 1638" width="20.492" height="20.492" transform="translate(0 0)" fill="#fff"/>
    </clipPath>
  </defs>
  <g id="Group_434" data-name="Group 434" transform="translate(0 0)">
    <g id="Group_433" data-name="Group 433" clip-path="url(#clip-path)">
      <path id="Path_275" data-name="Path 275" d="M10.246,1A9.246,9.246,0,1,1,1,10.246,9.257,9.257,0,0,1,10.246,1m0-1A10.246,10.246,0,1,0,20.492,10.246,10.246,10.246,0,0,0,10.246,0" fill="#fff"/>
      <path id="Path_276" data-name="Path 276" d="M10.637,12.676a.569.569,0,0,1-.647.573c-.384,0-.678-.191-.678-.573v-.413a2.71,2.71,0,0,1,.544-1.913,4.464,4.464,0,0,1,1.325-1.119c1.09-.765,1.413-1.148,1.413-1.9,0-1.089-.839-1.781-2.236-1.781A2.359,2.359,0,0,0,7.913,7.244.624.624,0,0,1,7.3,7.73,1.605,1.605,0,0,1,7.03,7.7a.626.626,0,0,1-.544-.574.8.8,0,0,1,.044-.25A3.555,3.555,0,0,1,7.634,5.2a4.169,4.169,0,0,1,2.8-.854c2.178,0,3.576,1.133,3.576,2.929,0,1.222-.6,1.9-1.736,2.694-1.222.854-1.634,1.178-1.634,2.311Zm.339,2.457A1.016,1.016,0,1,1,9.96,14.118a.983.983,0,0,1,1.016,1.015" fill="#fff"/>
    </g>
  </g>
</svg>
