<svg id="网球" xmlns="http://www.w3.org/2000/svg" width="17" height="17" viewBox="0 0 16 16">
  <path id="路径_28" data-name="路径 28" d="M281.6,33.073a7.051,7.051,0,0,1,.322,5.472,2.964,2.964,0,0,0,.322,3,3.924,3.924,0,0,0,3.219,1.717,3.76,3.76,0,0,0,3.111-1.609,3,3,0,0,0,.322-3,7.6,7.6,0,0,1,.322-5.472.105.105,0,0,1,.107-.107,7.489,7.489,0,0,0-7.725,0Z" transform="translate(-277.463 -32)" fill="#838383"/>
  <path id="路径_29" data-name="路径 29" d="M44.48,115.2a6.7,6.7,0,0,0-.32,4.9,3.836,3.836,0,0,1-.427,3.731,4.591,4.591,0,0,1-7.467,0,3.836,3.836,0,0,1-.427-3.731,7.3,7.3,0,0,0-.32-4.9,8,8,0,1,0,8.96,0Z" transform="translate(-32 -113.805)" fill="#838383"/>
</svg>
