<svg xmlns="http://www.w3.org/2000/svg" width="12" height="12" viewBox="0 0 12 12">
  <path id="icon" d="M0,1.312m.563,0H11.438A.5.5,0,0,1,12,1.875h0a.5.5,0,0,1-.562.562H.563A.5.5,0,0,1,0,1.875H0A.5.5,0,0,1,.563,1.312ZM2.25,0m.938,0h0a.829.829,0,0,1,.937.938V2.812a.829.829,0,0,1-.937.938h0a.829.829,0,0,1-.938-.938V.937A.829.829,0,0,1,3.188,0ZM0,5.437m.563,0H11.438A.5.5,0,0,1,12,6h0a.5.5,0,0,1-.562.563H.563A.5.5,0,0,1,0,6H0A.5.5,0,0,1,.563,5.437ZM7.875,4.125m.937,0h0a.829.829,0,0,1,.938.938V6.937a.829.829,0,0,1-.937.938h0a.829.829,0,0,1-.937-.937V5.062A.829.829,0,0,1,8.813,4.125ZM0,9.562m.563,0H11.438a.5.5,0,0,1,.563.562h0a.5.5,0,0,1-.562.563H.563A.5.5,0,0,1,0,10.125H0A.5.5,0,0,1,.563,9.562ZM4.5,8.25m.938,0h0a.829.829,0,0,1,.938.938v1.875A.829.829,0,0,1,5.438,12h0a.829.829,0,0,1-.937-.937V9.187A.829.829,0,0,1,5.438,8.25Z" fill="#fff"/>
</svg>
