<svg xmlns="http://www.w3.org/2000/svg" width="17" height="17" viewBox="0 0 17 17">
  <path id="icon" d="M110.3,92a8.763,8.763,0,0,0-6.809,3.207l-.048.059-1.169-.893a.168.168,0,0,0-.269.121v0l.017,3.661a.165.165,0,0,0,.2.157h.005l3.64-.87a.161.161,0,0,0,.066-.282l0,0-1.248-.951a7.138,7.138,0,0,1,2.842-2.129,7.226,7.226,0,0,1,7.813,1.494,6.918,6.918,0,0,1,1.528,2.214,6.84,6.84,0,0,1,0,5.42,6.918,6.918,0,0,1-1.528,2.214,7.091,7.091,0,0,1-2.266,1.494,7.226,7.226,0,0,1-7.813-1.494,6.918,6.918,0,0,1-1.528-2.214c-.044-.1-.085-.2-.122-.3l-.008-.017a.8.8,0,0,0-1.572.191.762.762,0,0,0,.128.424A8.7,8.7,0,0,0,110.3,109a8.5,8.5,0,1,0,0-17Zm.164,3.8a.656.656,0,0,0-.663.648v4.556l-2.617,1.789a.638.638,0,0,0-.163.9.674.674,0,0,0,.924.159l2.649-1.811a.663.663,0,0,0,.109-.093.649.649,0,0,0,.425-.6v-4.9A.656.656,0,0,0,110.459,95.8Z" transform="translate(-102 -92)" fill="#8ECFFF"/>
</svg>
