<svg id="Group_399" data-name="Group 399" xmlns="http://www.w3.org/2000/svg" xmlns:xlink="http://www.w3.org/1999/xlink" width="74.584" height="75.242" viewBox="0 0 74.584 75.242">
  <defs>
    <clipPath id="clip-path">
      <rect id="Rectangle_1566" data-name="Rectangle 1566" width="74.584" height="75.242" fill="#fff"/>
    </clipPath>
  </defs>
  <g id="Group_398" data-name="Group 398" clip-path="url(#clip-path)">
    <path id="Path_240" data-name="Path 240" d="M73.48,16.421,60.382,1.607A4.762,4.762,0,0,0,56.816,0H25.329a6.787,6.787,0,0,0-6.78,6.78v29.2a19.649,19.649,0,0,0,1.1,39.267c.111,0,.221,0,.331,0H67.8a6.787,6.787,0,0,0,6.779-6.779V19.337a4.4,4.4,0,0,0-1.1-2.915m-3.225-.328h-9.4a2.185,2.185,0,0,1-2.182-2.182V3c.021.022.042.044.062.066ZM2.2,55.593a17.45,17.45,0,1,1,34.9,0A17.258,17.258,0,0,1,19.981,73.039h-.332v0A17.47,17.47,0,0,1,2.2,55.593M72.385,68.459a4.585,4.585,0,0,1-4.58,4.58H28.83A19.386,19.386,0,0,0,39.246,57.05H63.3a1.1,1.1,0,0,0,0-2.2H39.283a19.548,19.548,0,0,0-4.171-11.369H63.3a1.1,1.1,0,0,0,0-2.2h-29.9a1.1,1.1,0,0,0-.26.032,19.58,19.58,0,0,0-12.385-5.339V6.78a4.586,4.586,0,0,1,4.58-4.58H56.473V13.912a4.386,4.386,0,0,0,4.381,4.381H72.119a2.2,2.2,0,0,1,.265,1.044Z" fill="#fff"/>
    <path id="Path_241" data-name="Path 241" d="M108.214,403.976a1.1,1.1,0,0,0,1.555-1.555l-6.326-6.326,6.326-6.326a1.1,1.1,0,0,0-1.555-1.555l-6.326,6.326-6.326-6.326a1.1,1.1,0,0,0-1.555,1.555l6.326,6.326-6.326,6.326a1.1,1.1,0,1,0,1.555,1.555l6.326-6.326Z" transform="translate(-82.239 -340.502)" fill="#fff"/>
    <path id="Path_242" data-name="Path 242" d="M271.6,226.848H238.392a1.1,1.1,0,1,0,0,2.2H271.6a1.1,1.1,0,1,0,0-2.2" transform="translate(-208.301 -199.133)" fill="#fff"/>
  </g>
</svg>
