<svg xmlns="http://www.w3.org/2000/svg" width="40" height="40" viewBox="0 0 40 40">
  <g id="Group_352" data-name="Group 352" transform="translate(-317 -729)">
    <circle id="Ellipse_54" data-name="Ellipse 54" cx="20" cy="20" r="20" transform="translate(317 729)" fill="#8ECFFF" opacity="0.605"/>
    <path id="Union_1" data-name="Union 1" d="M778.315,245a1,1,0,0,1-1-1v-5.6h-4.834a1,1,0,0,1-.725-1.688l7.519-7.923a1,1,0,0,1,1.451,0l7.52,7.923a1,1,0,0,1-.725,1.688h-4.834V244a1,1,0,0,1-1,1Z" transform="translate(-443 515)" fill="#fff" opacity="0.8"/>
    <rect id="Rectangle_1473" data-name="Rectangle 1473" width="3" height="17.043" rx="1" transform="translate(345.521 739.022) rotate(90)" fill="#fff" opacity="0.8"/>
  </g>
</svg>
