<svg xmlns="http://www.w3.org/2000/svg" width="12" height="12" viewBox="0 0 12 12">
  <g id="Polygon_27" data-name="Polygon 27" fill="none">
    <path d="M6,0,7.59,4.332,12,4.584,8.573,7.512,9.708,12,6,9.478,2.292,12,3.427,7.512,0,4.584l4.41-.251Z" stroke="#DDC38E"/>
    <path d="M 6 2.902453422546387 L 5.122519969940186 5.293399810791016 L 2.54195499420166 5.440404891967773 L 4.54911994934082 7.155600070953369 L 3.907406806945801 9.691678047180176 L 6 8.268320083618164 L 8.092592239379883 9.691678047180176 L 7.45088005065918 7.155600070953369 L 9.45804500579834 5.440404891967773 L 6.877480030059814 5.293399810791016 L 6 2.902453422546387 M 6 0 L 7.590000152587891 4.332369804382324 L 12 4.583590030670166 L 8.572669982910156 7.512370109558105 L 9.708200454711914 12 L 6 9.477720260620117 L 2.291799545288086 12 L 3.427330017089844 7.512370109558105 L 0 4.583590030670166 L 4.409999847412109 4.332369804382324 L 6 0 Z" stroke="none" fill="none"/>
  </g>
</svg>


