
<svg xmlns="http://www.w3.org/2000/svg" width="22.354" height="22.353" viewBox="0 0 22.354 22.353">
  <g id="Group_538" data-name="Group 538" transform="translate(-26 -86)">
    <path id="收藏" d="M22.681,8.838a.793.793,0,0,0-.634-.536L15.3,7.26,12.289.808a.8.8,0,0,0-.724-.461h0a.8.8,0,0,0-.724.458L7.8,7.24,1.047,8.26A.8.8,0,0,0,.595,9.6l4.9,5.041L4.325,21.75a.8.8,0,0,0,1.174.83l6.033-3.319L17.551,22.6a.834.834,0,0,0,.388.1h.017a.8.8,0,0,0,.746-1.081l-1.118-6.952L22.5,9.646a.8.8,0,0,0,.184-.808Z" transform="translate(25.631 85.653)" fill="#6cc1ff"/>
    <path id="Subtraction_1" data-name="Subtraction 1" d="M-957.413,1022.353h-.017a.831.831,0,0,1-.388-.1l-6.019-3.343-.163.09v-18.979a.8.8,0,0,1,.2-.024.8.8,0,0,1,.724.461l3.012,6.452,6.745,1.042a.791.791,0,0,1,.635.536.793.793,0,0,1-.185.807l-4.912,5.021,1.118,6.953a.8.8,0,0,1,.05.282A.8.8,0,0,1-957.413,1022.353Z" transform="translate(1001 -914)" fill="#51a1db"/>
  </g>
</svg>
