<svg xmlns="http://www.w3.org/2000/svg" width="16" height="17" viewBox="0 0 16 17">
  <g id="组_128" data-name="组 128" transform="translate(-0.344 -0.07)">
    <ellipse id="椭圆_9" data-name="椭圆 9" cx="8" cy="8.5" rx="8" ry="8.5" transform="translate(0.344 0.07)" fill="#333"/>
    <path id="icon" d="M205.2,194.629a.51.51,0,0,1-.721,0l-2.883-2.883-2.883,2.883a.51.51,0,1,1-.721-.721l2.883-2.883-2.883-2.883a.51.51,0,0,1,.721-.721L201.6,190.3l2.883-2.883a.51.51,0,0,1,.721.721l-2.883,2.883,2.883,2.883a.51.51,0,0,1,0,.721Z" transform="translate(-193.376 -182.638)" fill="#fff"/>
  </g>
</svg>
