<svg xmlns="http://www.w3.org/2000/svg" width="15" height="15" viewBox="0 0 15 15">
  <path id="icon" d="M8.075,16.263h2.812V14.669a.519.519,0,0,1,.281-.469,5.948,5.948,0,0,0,1.312-.75.594.594,0,0,1,.562,0l1.406.843,1.406-2.438-1.406-.843c-.187-.185-.281-.374-.187-.561,0-.281.094-.469.094-.75a2.059,2.059,0,0,0-.094-.75.725.725,0,0,1,.187-.469l1.406-.843L14.447,5.2l-1.406.843a.594.594,0,0,1-.562,0,6.007,6.007,0,0,0-1.312-.75.812.812,0,0,1-.281-.562V3.139H8.075V4.732a.519.519,0,0,1-.281.469,5.948,5.948,0,0,0-1.312.75.594.594,0,0,1-.562,0L4.515,5.2,3.109,7.638l1.406.843A.343.343,0,0,1,4.7,8.95c0,.281-.094.469-.094.75a2.059,2.059,0,0,0,.094.75.343.343,0,0,1-.187.469l-1.406.843L4.515,14.2l1.406-.843a.594.594,0,0,1,.562,0,6.007,6.007,0,0,0,1.312.75.517.517,0,0,1,.281.469Zm3.279.937H7.607a.443.443,0,0,1-.469-.469V14.95a10.179,10.179,0,0,1-1.031-.562l-1.5.937a.493.493,0,0,1-.656-.187L2.078,11.858a.4.4,0,0,1,.187-.656l1.5-.937V9.139L2.266,8.2a.4.4,0,0,1-.187-.656L3.953,4.264a.438.438,0,0,1,.656-.094l1.5.937a3.62,3.62,0,0,1,1.031-.562V2.669A.443.443,0,0,1,7.607,2.2h3.748a.443.443,0,0,1,.469.469V4.451a10.18,10.18,0,0,1,1.031.562l1.5-.937a.493.493,0,0,1,.656.187l1.873,3.281A.4.4,0,0,1,16.7,8.2l-1.5.937v1.126l1.5.937a.538.538,0,0,1,.187.656L15.01,15.137a.538.538,0,0,1-.656.187l-1.5-.937a3.62,3.62,0,0,1-1.031.562v1.782A.444.444,0,0,1,11.354,17.2ZM9.481,12.514A2.762,2.762,0,0,1,6.669,9.7,2.762,2.762,0,0,1,9.481,6.888,2.763,2.763,0,0,1,12.292,9.7,2.763,2.763,0,0,1,9.481,12.514Zm0-4.688A1.874,1.874,0,1,0,11.354,9.7,1.879,1.879,0,0,0,9.481,7.826Z" transform="translate(-1.981 -2.2)" fill="#fff"/>
</svg>
