<svg xmlns="http://www.w3.org/2000/svg" width="21.822" height="27.698" viewBox="0 0 21.822 27.698">
  <path id="Path_309" data-name="Path 309" d="M5.692,7c.054-.724.132-1.442.158-2.162A5.075,5.075,0,0,1,10.186.047,5.024,5.024,0,0,1,15.9,4.428c.111.859.149,1.729.224,2.637h.292c.732,0,1.464-.012,2.195.011a2.068,2.068,0,0,1,2,1.889c.125,1.494.221,2.99.331,4.484.1,1.395.21,2.789.31,4.184s.193,2.808.294,4.212c.082,1.14.154,2.28.259,3.418a2.047,2.047,0,0,1-1.488,2.36,2.666,2.666,0,0,1-.651.07q-8.753.006-17.505,0A2.024,2.024,0,0,1,0,25.679c.016-.566.074-1.131.115-1.7q.125-1.737.251-3.473.157-2.174.312-4.348Q.8,14.492.914,12.824c.094-1.331.173-2.664.285-3.993a2,2,0,0,1,2.016-1.8c.8-.008,1.591,0,2.387-.006A.534.534,0,0,0,5.692,7m9.174,1.389H6.941c-.017.188-.033.36-.047.532-.036.446-.058.894-.109,1.339a.62.62,0,0,1-.693.555.634.634,0,0,1-.616-.615A3.625,3.625,0,0,1,5.5,9.766c.032-.453.065-.905.1-1.391-.813,0-1.588,0-2.363,0a.65.65,0,0,0-.724.684c-.048.592-.079,1.186-.12,1.778q-.118,1.7-.239,3.392Q2,16.378,1.844,18.525q-.127,1.764-.254,3.528c-.083,1.185-.17,2.37-.241,3.556-.029.488.235.744.729.744H19.72a.685.685,0,0,0,.759-.832c-.071-.865-.128-1.732-.189-2.6-.1-1.386-.191-2.772-.291-4.157-.119-1.65-.245-3.3-.365-4.949-.113-1.559-.22-3.118-.335-4.677a.8.8,0,0,0-.79-.759c-.3-.013-.6-.005-.905-.006h-1.38c0,.15-.007.267,0,.383.033.465.084.929.1,1.394a.659.659,0,0,1-1.314.084c-.025-.181-.034-.364-.048-.546-.033-.427-.065-.854-.1-1.3M7,7.014h7.757c-.064-.873-.076-1.735-.2-2.58a3.7,3.7,0,0,0-7.249-.3A27.365,27.365,0,0,0,7,7.014" transform="translate(0.001 0.001)" fill="#333"/>
</svg>
