<svg xmlns="http://www.w3.org/2000/svg" width="22.508" height="16.881" viewBox="0 0 22.508 16.881">
  <path id="Icon_material-backspace" data-name="Icon material-backspace" d="M20.632,4.5H6.565a1.765,1.765,0,0,0-1.491.825L0,12.94l5.074,7.606a1.774,1.774,0,0,0,1.491.835H20.632a1.881,1.881,0,0,0,1.876-1.876V6.376A1.881,1.881,0,0,0,20.632,4.5ZM17.819,16.307,16.5,17.63,13.13,14.263,9.763,17.63,8.44,16.307l3.367-3.367L8.44,9.574,9.763,8.251l3.367,3.367L16.5,8.251l1.322,1.322L14.452,12.94Z" transform="translate(0 -4.5)" fill="#c4c4c4"/>
</svg>
