<svg version="1.1" xmlns="http://www.w3.org/2000/svg" xmlns:xlink="http://www.w3.org/1999/xlink" width="13px" height="15px" viewBox="0,0,256,256"><g transform=""><g fill="#999999" fill-rule="nonzero" stroke="none" stroke-width="1" stroke-linecap="butt" stroke-linejoin="miter" stroke-miterlimit="10" stroke-dasharray="" stroke-dashoffset="0" font-family="none" font-weight="none" font-size="none" text-anchor="none" style="mix-blend-mode: normal"><g transform="scale(0.5,0.5)"><path d="M64,32c-35.3,0 -64,28.7 -64,64v320c0,35.3 28.7,64 64,64h384c35.3,0 64,-28.7 64,-64v-224c0,-35.3 -28.7,-64 -64,-64h-368c-8.8,0 -16,-7.2 -16,-16c0,-8.8 7.2,-16 16,-16h368c17.7,0 32,-14.3 32,-32c0,-17.7 -14.3,-32 -32,-32zM416,336c-17.7,0 -32,-14.3 -32,-32c0,-17.7 14.3,-32 32,-32c17.7,0 32,14.3 32,32c0,17.7 -14.3,32 -32,32z"></path></g></g></g></svg>