<svg xmlns="http://www.w3.org/2000/svg" width="20" height="15" viewBox="0 0 20 15">
  <path id="icon" d="M96.556,138.645a2.254,2.254,0,0,1-2.428,0l-6.958-5.408a.231.231,0,0,0-.216-.031.169.169,0,0,0-.12.153v9.854a.371.371,0,0,0,.4.333h16.2a.371.371,0,0,0,.4-.333V133.37a.169.169,0,0,0-.12-.153.231.231,0,0,0-.216.03q-4.569,3.52-6.941,5.4Zm6.977-7.6h-16.3a.178.178,0,0,0-.155.1.134.134,0,0,0,.046.159l7.945,6.271a.46.46,0,0,0,.548,0l8.021-6.26a.141.141,0,0,0,.051-.164.184.184,0,0,0-.156-.108Zm-.2,13.75h-16a1.856,1.856,0,0,1-2-1.667V131.463a1.856,1.856,0,0,1,2-1.667h16a1.856,1.856,0,0,1,2,1.667V143.13A1.856,1.856,0,0,1,103.334,144.8Z" transform="translate(-85.334 -129.796)" fill="#ddc38e"/>
</svg>
