<svg xmlns="http://www.w3.org/2000/svg" width="19" height="19" viewBox="0 0 19 19">
  <path id="icon" d="M33.905,15.741V12.489a.611.611,0,0,0-.177-.431.6.6,0,0,0-.428-.178H24.832a.606.606,0,0,0-.6.609v14.65a.606.606,0,0,0,.6.609H33.3a.6.6,0,0,0,.428-.178.611.611,0,0,0,.177-.431v-3.1a.777.777,0,1,1,1.553,0v3.1A2.167,2.167,0,0,1,33.3,29.313H24.832a2.167,2.167,0,0,1-2.158-2.176V12.489a2.167,2.167,0,0,1,2.158-2.176H33.3a2.169,2.169,0,0,1,2.16,2.176v3.253a.778.778,0,1,1-1.556,0Zm3.026-.02a.773.773,0,0,1,1.1,0L41.383,19.1a1.007,1.007,0,0,1-.017,1.432L38.031,23.9a.773.773,0,0,1-1.088-.012.789.789,0,0,1-.012-1.1L39.106,20.6H28.413a.781.781,0,0,1-.777-.77v-.014a.78.78,0,0,1,.777-.783h10.7l-2.182-2.2a.787.787,0,0,1-.008-1.1l.008-.008Z" transform="translate(-22.674 -10.313)" fill="#ddc38e"/>
</svg>
