<svg xmlns="http://www.w3.org/2000/svg" width="20.5" height="20" viewBox="0 0 20.5 20">
  <path id="icon" d="M108.819,128l-5.766,4H94.725c-2.819,0-5.125,1.733-5.125,4.667a4.621,4.621,0,0,0,3.844,4.667v5.333A1.312,1.312,0,0,0,94.725,148h1.922a1.312,1.312,0,0,0,1.281-1.333v-5.333h5.125l5.766,4A1.312,1.312,0,0,0,110.1,144V129.333A1.312,1.312,0,0,0,108.819,128ZM96.647,146a.618.618,0,0,1-.641.667h-.641a.618.618,0,0,1-.641-.667v-4.667h1.922Zm3.2-6H94.725c-1.281,0-3.844-.4-3.844-3.333s2.5-3.4,3.844-3.333H99.85Zm3.2,0h-1.922v-6.667h1.922Zm5.766,4-4.484-3.333v-8l4.484-3.333Z" transform="translate(-89.6 -128)" fill="#ddc38e"/>
</svg>
