<svg xmlns="http://www.w3.org/2000/svg" width="21" height="21" viewBox="0 0 21 21">
  <path id="icon" d="M10.512,21.888h3.936V19.657A.726.726,0,0,1,14.842,19a8.327,8.327,0,0,0,1.836-1.051.831.831,0,0,1,.786,0l1.968,1.18L21.4,15.717l-1.968-1.18c-.261-.26-.393-.523-.261-.785,0-.393.132-.657.132-1.051a2.882,2.882,0,0,0-.132-1.051,1.016,1.016,0,0,1,.261-.657L21.4,9.813,19.433,6.4,17.465,7.58a.831.831,0,0,1-.786,0A8.41,8.41,0,0,0,14.842,6.53a1.137,1.137,0,0,1-.393-.787V3.514H10.512V5.745a.726.726,0,0,1-.393.657A8.327,8.327,0,0,0,8.283,7.453a.831.831,0,0,1-.786,0L5.528,6.4,3.56,9.813l1.968,1.18a.48.48,0,0,1,.261.657c0,.393-.132.657-.132,1.051a2.882,2.882,0,0,0,.132,1.051.481.481,0,0,1-.261.657L3.56,15.589,5.528,19,7.5,17.822a.831.831,0,0,1,.786,0,8.41,8.41,0,0,0,1.836,1.051.724.724,0,0,1,.393.657ZM15.1,23.2H9.858a.62.62,0,0,1-.657-.657V20.051a14.252,14.252,0,0,1-1.443-.787l-2.1,1.312a.691.691,0,0,1-.918-.262L2.117,15.721a.564.564,0,0,1,.261-.919l2.1-1.312V11.914L2.38,10.6a.564.564,0,0,1-.261-.919L4.742,5.09a.613.613,0,0,1,.918-.132l2.1,1.312A5.067,5.067,0,0,1,9.2,5.483V2.857A.62.62,0,0,1,9.858,2.2h5.248a.62.62,0,0,1,.657.657V5.352a14.251,14.251,0,0,1,1.443.787l2.1-1.312a.691.691,0,0,1,.918.262l2.623,4.593a.564.564,0,0,1-.261.919l-2.1,1.312v1.576l2.1,1.312a.754.754,0,0,1,.261.919l-2.623,4.593a.753.753,0,0,1-.918.262l-2.1-1.312a5.067,5.067,0,0,1-1.443.787v2.494A.622.622,0,0,1,15.1,23.2Zm-2.623-6.561A3.867,3.867,0,0,1,8.544,12.7a3.867,3.867,0,0,1,3.936-3.938A3.868,3.868,0,0,1,16.417,12.7,3.868,3.868,0,0,1,12.481,16.639Zm0-6.563A2.624,2.624,0,1,0,15.1,12.7,2.63,2.63,0,0,0,12.481,10.077Z" transform="translate(-1.981 -2.2)" fill="#ddc38e"/>
</svg>
