<svg xmlns="http://www.w3.org/2000/svg" width="21" height="16" viewBox="0 0 21 16">
  <path id="icon" d="M266.9,236.109a2.412,2.412,0,0,0-2.423,2.4,2.363,2.363,0,0,0,.561,1.518l-2.5,4.13a2.452,2.452,0,0,0-.482-.048,2.427,2.427,0,0,0-1.678.674l-2.39-1.184a2.292,2.292,0,0,0,.03-.29,2.423,2.423,0,0,0-4.846,0,2.37,2.37,0,0,0,.407,1.33l-2.113,2.789a2.391,2.391,0,1,0,1.706,2.282,2.375,2.375,0,0,0-.407-1.33l2.112-2.79a2.365,2.365,0,0,0,2.4-.556l2.39,1.185a2.137,2.137,0,0,0-.03.29,2.423,2.423,0,0,0,4.846,0,2.366,2.366,0,0,0-.562-1.519l2.5-4.13a2.469,2.469,0,0,0,.483.049,2.4,2.4,0,1,0,0-4.8h0Z" transform="translate(-248.325 -236.109)" fill="#ddc38e"/>
</svg>
