<svg id="CKEX_H_LOGO" data-name="CKEX H LOGO" xmlns="http://www.w3.org/2000/svg" xmlns:xlink="http://www.w3.org/1999/xlink" width="77" height="17" viewBox="0 0 77 17">
  <defs>
    <linearGradient id="linear-gradient" y1="1" x2="1" y2="1" gradientUnits="objectBoundingBox">
      <stop offset="0" stop-color="#f5e7c0"/>
      <stop offset="1" stop-color="#d0ac6d"/>
    </linearGradient>
  </defs>
  <path id="路径_1" data-name="路径 1" d="M79.005,23.15l1.74,1.741-.957.957,2.14,2.138H74.17Z" transform="translate(-64.813 -20.257)" fill="url(#linear-gradient)"/>
  <path id="路径_2" data-name="路径 2" d="M79.005,2.92l-1.74-1.74-.957.957L74.17,0V7.757Z" transform="translate(-64.813)" fill="url(#linear-gradient)"/>
  <path id="路径_3" data-name="路径 3" d="M79.005,79.005l-1.74,1.74-.957-.957-2.138,2.14V74.17Z" transform="translate(-64.813 -64.927)" fill="url(#linear-gradient)"/>
  <path id="路径_4" data-name="路径 4" d="M79.005,79.005l1.74-1.74-.957-.957,2.14-2.138H74.17Z" transform="translate(-64.813 -64.9)" fill="url(#linear-gradient)"/>
  <path id="路径_5" data-name="路径 5" d="M2.92,23.15l-1.74,1.741.957.957L0,27.987H7.757Z" transform="translate(0 -20.257)" fill="url(#linear-gradient)"/>
  <path id="路径_6" data-name="路径 6" d="M23.15,2.92l1.741-1.74.957.957L27.987,0V7.757Z" transform="translate(-20.23)" fill="url(#linear-gradient)"/>
  <path id="路径_7" data-name="路径 7" d="M23.15,79.005l1.741,1.74.957-.957,2.138,2.14V74.17Z" transform="translate(-20.23 -64.927)" fill="url(#linear-gradient)"/>
  <path id="路径_8" data-name="路径 8" d="M2.92,79.005l-1.74-1.74.957-.957L0,74.17H7.757Z" transform="translate(0 -64.9)" fill="url(#linear-gradient)"/>
  <path id="路径_9" data-name="路径 9" d="M203.722,134.362a.857.857,0,0,1-.361.072.95.95,0,0,1-.344-.061.793.793,0,0,1-.455-.444.942.942,0,0,1,0-.694.757.757,0,0,1,.185-.267.811.811,0,0,1,.276-.169.985.985,0,0,1,.343-.059.96.96,0,0,1,.334.061.637.637,0,0,1,.267.177l-.264.262a.328.328,0,0,0-.143-.111.482.482,0,0,0-.182-.037.459.459,0,0,0-.188.038.447.447,0,0,0-.146.1.463.463,0,0,0-.095.155.556.556,0,0,0-.034.2.565.565,0,0,0,.034.2.453.453,0,0,0,.093.156.43.43,0,0,0,.144.1.47.47,0,0,0,.184.035.43.43,0,0,0,.2-.044.4.4,0,0,0,.138-.119l.271.252A.781.781,0,0,1,203.722,134.362Z" transform="translate(-179.488 -117.434)" fill="url(#linear-gradient)"/>
  <path id="路径_10" data-name="路径 10" d="M232.514,134.688l-.349-.638h-.126v.638h-.378V133.08h.613a1.1,1.1,0,0,1,.226.024.591.591,0,0,1,.2.081.433.433,0,0,1,.14.15.478.478,0,0,1,.052.232.428.428,0,0,1-.088.275.5.5,0,0,1-.245.159l.42.688Zm-.016-1.114a.159.159,0,0,0-.024-.092.17.17,0,0,0-.062-.054.289.289,0,0,0-.085-.026.729.729,0,0,0-.09-.006h-.208v.378h.185a.641.641,0,0,0,.1-.008.342.342,0,0,0,.092-.029.167.167,0,0,0,.093-.159Z" transform="translate(-204.969 -117.731)" fill="url(#linear-gradient)"/>
  <path id="路径_11" data-name="路径 11" d="M259.52,134.688V133.08h.391v1.608Z" transform="translate(-229.311 -117.731)" fill="url(#linear-gradient)"/>
  <path id="路径_12" data-name="路径 12" d="M281.853,134.362a.863.863,0,0,1-.362.072.947.947,0,0,1-.343-.061.819.819,0,0,1-.274-.174.8.8,0,0,1-.182-.27.926.926,0,0,1,0-.694.773.773,0,0,1,.184-.267.829.829,0,0,1,.278-.169.985.985,0,0,1,.343-.059.959.959,0,0,1,.334.061.637.637,0,0,1,.267.177l-.264.262a.332.332,0,0,0-.144-.111.47.47,0,0,0-.18-.037.459.459,0,0,0-.188.038.434.434,0,0,0-.146.1.466.466,0,0,0-.1.155.556.556,0,0,0-.034.2.565.565,0,0,0,.034.2.477.477,0,0,0,.095.156.43.43,0,0,0,.144.1.466.466,0,0,0,.184.035.425.425,0,0,0,.2-.044.4.4,0,0,0,.139-.119l.27.252A.757.757,0,0,1,281.853,134.362Z" transform="translate(-247.75 -117.434)" fill="url(#linear-gradient)"/>
  <path id="路径_13" data-name="路径 13" d="M310.756,134.688l-.6-.735h0v.74h-.378V133.08h.378v.655h.006l.574-.655h.487l-.7.747.733.868Z" transform="translate(-273.222 -117.731)" fill="url(#linear-gradient)"/>
  <path id="路径_14" data-name="路径 14" d="M338.52,134.688V133.08H339.6v.328h-.706v.3h.669v.31h-.669v.334h.748v.332Z" transform="translate(-298.333 -117.731)" fill="url(#linear-gradient)"/>
  <path id="路径_15" data-name="路径 15" d="M365.053,133.412v1.277h-.389v-1.277h-.454v-.332h1.3v.332Z" transform="translate(-320.778 -117.731)" fill="url(#linear-gradient)"/>
  <path id="路径_16" data-name="路径 16" d="M411.93,134.688V133.08h1.081v.328H412.3v.3h.667v.31H412.3v.334h.747v.332Z" transform="translate(-362.471 -117.731)" fill="url(#linear-gradient)"/>
  <path id="路径_17" data-name="路径 17" d="M438.533,134.706l-.352-.568-.338.568h-.463l.563-.849-.517-.757h.468l.3.5.3-.5h.453l-.5.757.582.849Z" transform="translate(-384.706 -117.749)" fill="url(#linear-gradient)"/>
  <path id="路径_18" data-name="路径 18" d="M467.565,134.362a.857.857,0,0,1-.361.072.95.95,0,0,1-.344-.061.831.831,0,0,1-.274-.174.821.821,0,0,1-.182-.27.869.869,0,0,1-.066-.344.89.89,0,0,1,.067-.349.758.758,0,0,1,.185-.267.811.811,0,0,1,.276-.169.985.985,0,0,1,.343-.059.965.965,0,0,1,.336.061.631.631,0,0,1,.266.177l-.264.262a.32.32,0,0,0-.143-.111.482.482,0,0,0-.182-.037.453.453,0,0,0-.187.038.439.439,0,0,0-.148.1.484.484,0,0,0-.095.155.556.556,0,0,0-.034.2.565.565,0,0,0,.039.2.479.479,0,0,0,.095.156.407.407,0,0,0,.144.1.461.461,0,0,0,.184.035.429.429,0,0,0,.2-.044.411.411,0,0,0,.139-.119l.27.252A.768.768,0,0,1,467.565,134.362Z" transform="translate(-410.008 -117.434)" fill="url(#linear-gradient)"/>
  <path id="路径_19" data-name="路径 19" d="M496.438,134.688v-.672h-.631v.672h-.387V133.08h.387v.609h.631v-.609h.389v1.608Z" transform="translate(-435.416 -117.731)" fill="url(#linear-gradient)"/>
  <path id="路径_20" data-name="路径 20" d="M524.907,134.688l-.126-.315h-.621l-.119.315h-.421l.679-1.608h.378l.667,1.608Zm-.431-1.178-.2.551h.406Z" transform="translate(-460.04 -117.731)" fill="url(#linear-gradient)"/>
  <path id="路径_21" data-name="路径 21" d="M555.347,134.688l-.647-1.051h0l.009,1.051h-.378V133.08h.443l.645,1.05h.006l-.009-1.05h.378v1.608Z" transform="translate(-486.876 -117.731)" fill="url(#linear-gradient)"/>
  <path id="路径_22" data-name="路径 22" d="M585.127,134.394a1.485,1.485,0,0,1-.344.038,1.009,1.009,0,0,1-.356-.061.838.838,0,0,1-.279-.173.783.783,0,0,1-.183-.267.873.873,0,0,1-.066-.346.889.889,0,0,1,.067-.349.757.757,0,0,1,.185-.267.812.812,0,0,1,.276-.169.985.985,0,0,1,.343-.059,1.077,1.077,0,0,1,.354.058.734.734,0,0,1,.265.156l-.245.279a.438.438,0,0,0-.15-.108.5.5,0,0,0-.211-.042.47.47,0,0,0-.189.038.443.443,0,0,0-.149.1.466.466,0,0,0-.1.159.568.568,0,0,0-.035.2.619.619,0,0,0,.033.2.432.432,0,0,0,.093.16.438.438,0,0,0,.155.1.569.569,0,0,0,.209.037.724.724,0,0,0,.126-.01.473.473,0,0,0,.114-.033v-.293h-.307v-.314h.662v.852A1.229,1.229,0,0,1,585.127,134.394Z" transform="translate(-512.715 -117.434)" fill="url(#linear-gradient)"/>
  <path id="路径_23" data-name="路径 23" d="M614.32,134.688V133.08H615.4v.328h-.706v.3h.667v.31h-.667v.334h.747v.332Z" transform="translate(-539.298 -117.731)" fill="url(#linear-gradient)"/>
  <path id="路径_24" data-name="路径 24" d="M199.195,29.044l3.009.9a5.541,5.541,0,0,1-.955,2.116,4.129,4.129,0,0,1-1.618,1.291,6.017,6.017,0,0,1-2.46.433,7.143,7.143,0,0,1-2.959-.526,4.71,4.71,0,0,1-1.987-1.858,6.288,6.288,0,0,1-.834-3.393,5.771,5.771,0,0,1,1.467-4.239,6.693,6.693,0,0,1,7.462-.632,4.99,4.99,0,0,1,1.785,2.608l-3.028.675a2.637,2.637,0,0,0-.334-.743,1.982,1.982,0,0,0-.715-.607,2.169,2.169,0,0,0-2.721.727,4,4,0,0,0-.471,2.189,4.159,4.159,0,0,0,.561,2.533,1.933,1.933,0,0,0,1.577.69,1.912,1.912,0,0,0,1.49-.554A3.441,3.441,0,0,0,199.195,29.044Z" transform="translate(-169.781 -20.804)" fill="url(#linear-gradient)"/>
  <path id="路径_25" data-name="路径 25" d="M310.88,23.79h3.434v4.2l3.6-4.2h4.567l-4.054,4.189L322.66,34.9h-4.229l-2.343-4.565-1.775,1.858V34.9H310.88Z" transform="translate(-274.176 -22.115)" fill="url(#linear-gradient)"/>
  <path id="路径_26" data-name="路径 26" d="M433.65,23.79h9.209v2.373h-5.768v1.766h5.344V30.2h-5.344v2.187h5.929V34.91h-9.37Z" transform="translate(-381.44 -22.115)" fill="url(#linear-gradient)"/>
  <path id="路径_27" data-name="路径 27" d="M534.553,23.79h3.784l1.967,3.419,1.914-3.419h3.745L542.5,29.173l3.785,5.731H542.43l-2.2-3.571-2.2,3.571H534.2l3.839-5.789Z" transform="translate(-469.285 -22.115)" fill="url(#linear-gradient)"/>
</svg>
