<svg xmlns="http://www.w3.org/2000/svg" width="15" height="18" viewBox="0 0 15 18">
  <path id="icon" d="M178.731,101.726a3.284,3.284,0,0,1,2.324.952,3.214,3.214,0,0,1,.965,2.3l0,3.718a1.554,1.554,0,0,0,.167.7l1.7,3.358a.173.173,0,0,1-.156.252h-2.528l-2.177,0-2.62,0H175l-3.28,0h0a.173.173,0,0,1-.156-.252l1.7-3.354a1.563,1.563,0,0,0,.167-.7l0-3.718a3.215,3.215,0,0,1,.96-2.3,3.277,3.277,0,0,1,2.324-.955l2.019,0h0m0-1.3h0l-2.019,0a4.579,4.579,0,0,0-4.6,4.56l0,3.718a.244.244,0,0,1-.029.117l-1.7,3.354a1.475,1.475,0,0,0,1.333,2.135h0l3.282,0a2.81,2.81,0,0,0,5.435,0h0l3.3,0a1.478,1.478,0,0,0,1.333-2.137l-1.7-3.358a.271.271,0,0,1-.029-.117l0-3.718A4.582,4.582,0,0,0,178.731,100.424Zm-2.322,13.887,2.62,0a1.486,1.486,0,0,1-2.62,0h0ZM177.74,98.4a2.2,2.2,0,0,0-2.208,2.178,4.746,4.746,0,0,1,1.173-.152h.134a.906.906,0,0,1,1.758,0h.132a4.688,4.688,0,0,1,1.217.161v0A2.195,2.195,0,0,0,177.74,98.4Z" transform="translate(-170.228 -98.4)" fill="#fff"/>
</svg>
