<svg xmlns="http://www.w3.org/2000/svg" width="17" height="17.004" viewBox="0 0 17 17.004">
  <path id="票" d="M7.324,17.208a1.573,1.573,0,0,1-1.136-.48L4.9,15.393a.609.609,0,0,1,.012-.859,1.419,1.419,0,0,0,.023-2,1.445,1.445,0,0,0-2-.025.657.657,0,0,1-.433.17.605.605,0,0,1-.425-.185L.783,11.157A1.593,1.593,0,0,1,.81,8.907L9.226.643a1.624,1.624,0,0,1,2.247.025L12.765,2a.609.609,0,0,1-.012.859,1.423,1.423,0,0,0-.024,2.007,1.449,1.449,0,0,0,2,.024.7.7,0,0,1,.433-.17.605.605,0,0,1,.425.185l1.289,1.334a1.593,1.593,0,0,1-.025,2.248L8.439,16.756a1.581,1.581,0,0,1-1.115.452ZM6.142,14.931l.917.949a.383.383,0,0,0,.528,0L16,7.62a.377.377,0,0,0,.113-.265.37.37,0,0,0-.106-.263l-.917-.95a2.635,2.635,0,0,1-3.575-3.674L10.6,1.52a.385.385,0,0,0-.528,0L1.655,9.784a.375.375,0,0,0-.008.53l.917.948a2.635,2.635,0,0,1,3.576,3.672ZM5.887,10.1a.609.609,0,0,1-.429-1.039l3.39-3.4a.608.608,0,0,1,.856.862l-3.39,3.4a.607.607,0,0,1-.43.177ZM7.7,11.918a.609.609,0,0,1-.429-1.039l3.39-3.4a.608.608,0,1,1,.859.86l-3.39,3.4a.607.607,0,0,1-.432.179Z" transform="translate(-0.331 -0.204)" fill="#fff"/>
</svg>
