<svg xmlns="http://www.w3.org/2000/svg" width="19.887" height="11.601" viewBox="0 0 19.887 11.601">
  <g id="Icon_ionic-ios-menu" data-name="Icon ionic-ios-menu" transform="translate(-4.5 -10.125)">
    <path id="Path_523" data-name="Path 523" d="M23.558,11.782H5.329a.831.831,0,0,1-.829-.829h0a.831.831,0,0,1,.829-.829H23.558a.831.831,0,0,1,.829.829h0A.831.831,0,0,1,23.558,11.782Z"/>
    <path id="Path_524" data-name="Path 524" d="M23.558,18.532H5.329A.831.831,0,0,1,4.5,17.7h0a.831.831,0,0,1,.829-.829H23.558a.831.831,0,0,1,.829.829h0A.831.831,0,0,1,23.558,18.532Z" transform="translate(0 -1.778)"/>
    <path id="Path_525" data-name="Path 525" d="M23.558,25.282H5.329a.831.831,0,0,1-.829-.829h0a.831.831,0,0,1,.829-.829H23.558a.831.831,0,0,1,.829.829h0A.831.831,0,0,1,23.558,25.282Z" transform="translate(0 -3.557)"/>
  </g>
</svg>
