<svg xmlns="http://www.w3.org/2000/svg" width="11.438" height="11.438" viewBox="0 0 11.438 11.438">
  <path id="加錢" d="M6.281.563A5.719,5.719,0,1,0,12,6.281,5.718,5.718,0,0,0,6.281.563ZM9.6,6.927a.278.278,0,0,1-.277.277H7.2V9.325a.278.278,0,0,1-.277.277H5.636a.278.278,0,0,1-.277-.277V7.2H3.237a.278.278,0,0,1-.277-.277V5.636a.278.278,0,0,1,.277-.277H5.359V3.237a.278.278,0,0,1,.277-.277H6.927a.278.278,0,0,1,.277.277V5.359H9.325a.278.278,0,0,1,.277.277Z" transform="translate(-0.563 -0.563)" fill="#6cc1ff"/>
</svg>
