<svg id="orderlist" xmlns="http://www.w3.org/2000/svg" xmlns:xlink="http://www.w3.org/1999/xlink" width="14.285" height="19.043" viewBox="0 0 14.285 19.043">
  <defs>
    <clipPath id="clip-path">
      <rect id="Rectangle_1959" data-name="Rectangle 1959" width="14.285" height="19.043" fill="#333"/>
    </clipPath>
  </defs>
  <g id="Group_519" data-name="Group 519" clip-path="url(#clip-path)">
    <path id="Path_310" data-name="Path 310" d="M14.283,4.241a1.769,1.769,0,0,0-1.351-1.8,2.188,2.188,0,0,0-.551-.063c-.55-.008-1.1,0-1.668,0,0-.189,0-.361,0-.533a.6.6,0,0,0-.661-.657c-.341,0-.682-.008-1.022,0a.271.271,0,0,1-.294-.178,1.769,1.769,0,0,0-3.226.064.166.166,0,0,1-.18.113q-.558-.007-1.116,0a.6.6,0,0,0-.64.639c0,.178,0,.356,0,.55h-.2c-.508,0-1.016,0-1.525,0A1.807,1.807,0,0,0,0,4.279q0,4.09,0,8.18,0,2.352,0,4.7a1.815,1.815,0,0,0,.732,1.53,2.128,2.128,0,0,0,.867.35H12.685a3.739,3.739,0,0,0,.562-.175,1.774,1.774,0,0,0,1.037-1.724q0-5.113,0-10.225c0-.892,0-1.785,0-2.677M4.771,2.38H5.88a.6.6,0,0,0,.669-.612.59.59,0,0,1,.791-.539.582.582,0,0,1,.4.533.6.6,0,0,0,.681.618l1.041,0a.343.343,0,0,1,.05.01V3.561H4.771Zm7.656,15.473H1.863a.6.6,0,0,1-.671-.664q0-6.472,0-12.944a.606.606,0,0,1,.68-.674c.557,0,1.115,0,1.7,0,0,.207,0,.392,0,.576a.587.587,0,0,0,.609.612q2.957.005,5.914,0a.591.591,0,0,0,.616-.625c0-.179,0-.358,0-.55.056-.005.1-.014.15-.014.521,0,1.041,0,1.562,0a.6.6,0,0,1,.667.669q0,6.472,0,12.944a.6.6,0,0,1-.666.669" transform="translate(0 0)" fill="#333"/>
    <path id="Path_311" data-name="Path 311" d="M80.487,192.759c1.177,0,2.355,0,3.532,0h3.03c.192,0,.385.007.576,0a.59.59,0,0,0,.556-.588.6.6,0,0,0-.551-.594c-.068-.006-.136,0-.2,0H81.459c-.335,0-.669,0-1,0a.594.594,0,1,0,.032,1.187" transform="translate(-76.875 -184.43)" fill="#333"/>
    <path id="Path_312" data-name="Path 312" d="M87.59,287.4c-1.177,0-2.355,0-3.532,0H82.237c-.558,0-1.115,0-1.673,0a.6.6,0,1,0-.009,1.19H87.47a1.773,1.773,0,0,0,.2,0,.575.575,0,0,0,.513-.4.59.59,0,0,0-.6-.789" transform="translate(-76.917 -276.683)" fill="#333"/>
    <path id="Path_313" data-name="Path 313" d="M87.57,383.189c-.056,0-.111,0-.167,0H81.566c-.366,0-.731,0-1.1,0a.595.595,0,1,0,.01,1.188c1.171,0,2.342,0,3.513,0,1.19,0,2.379,0,3.569,0a.594.594,0,1,0,.008-1.188" transform="translate(-76.869 -368.906)" fill="#333"/>
  </g>
</svg>
