<svg id="Group_509" data-name="Group 509" xmlns="http://www.w3.org/2000/svg" xmlns:xlink="http://www.w3.org/1999/xlink" width="18.859" height="18.927" viewBox="0 0 18.859 18.927">
  <defs>
    <clipPath id="clip-path">
      <rect id="Rectangle_2007" data-name="Rectangle 2007" width="18.859" height="18.927" fill="#999"/>
    </clipPath>
  </defs>
  <g id="Group_508" data-name="Group 508" transform="translate(0 0)" clip-path="url(#clip-path)">
    <path id="Path_318" data-name="Path 318" d="M13.646,0h1.367c.079.012.156.031.235.037a7.16,7.16,0,0,1,1.77.33A2.062,2.062,0,0,1,18.3,1.379a5.316,5.316,0,0,1,.478,1.751,13.059,13.059,0,0,1-.117,3.7,15.679,15.679,0,0,1-1.538,4.707A12.921,12.921,0,0,1,14.68,14.87a13.771,13.771,0,0,1-4.772,3.009,15.58,15.58,0,0,1-3.8.941l-.931.107h-1.4a1.137,1.137,0,0,0-.178-.036,6.352,6.352,0,0,1-1.664-.3A2.114,2.114,0,0,1,.412,17.117a10.941,10.941,0,0,1-.324-1.471,12.458,12.458,0,0,1,.079-3.479,15.535,15.535,0,0,1,1.5-4.8A12.548,12.548,0,0,1,5.683,2.695,15.153,15.153,0,0,1,12.915.074c.244-.026.487-.049.731-.074M8.277,17.245c.062-.02.1-.034.144-.046a13.809,13.809,0,0,0,3.22-1.4,11.59,11.59,0,0,0,3.516-3.193,13.605,13.605,0,0,0,1.918-3.884.216.216,0,0,0-.06-.256Q13.69,5.15,10.375,1.828a.218.218,0,0,0-.258-.058A13.979,13.979,0,0,0,7.67,2.782,11.6,11.6,0,0,0,4.141,5.626a13.146,13.146,0,0,0-2.476,4.839.237.237,0,0,0,.079.27q2.14,2.134,4.275,4.271l2.117,2.117c.045.045.1.084.141.121m9.162-9.976A12.5,12.5,0,0,0,17.7,3.693a11.141,11.141,0,0,0-.291-1.552.888.888,0,0,0-.695-.694,13.994,13.994,0,0,0-1.533-.3,10.25,10.25,0,0,0-2.5.07c-.374.046-.745.116-1.113.175l5.872,5.872m-16.1,4.69a2.043,2.043,0,0,0-.038.206c-.055.6-.125,1.2-.155,1.8A8.134,8.134,0,0,0,1.4,16.578a1.123,1.123,0,0,0,.805.919,8.483,8.483,0,0,0,1.423.271A18.693,18.693,0,0,0,5.7,17.738c.419-.022.835-.108,1.249-.166l-5.61-5.613" transform="translate(0 0)" fill="#999"/>
    <path id="Path_319" data-name="Path 319" d="M6.82,13.692c-.138-.128-.274-.244-.4-.37a.561.561,0,1,1,.786-.791c.126.125.244.258.362.383l.6-.62a5.97,5.97,0,0,1-.448-.409.554.554,0,0,1,.3-.933.531.531,0,0,1,.5.163c.144.142.279.294.413.436l.628-.64c-.124-.112-.271-.232-.4-.367a.559.559,0,0,1-.035-.834.565.565,0,0,1,.822.045c.135.133.266.27.4.406l.643-.668c-.117-.1-.261-.215-.391-.343a.561.561,0,1,1,.785-.793c.127.125.244.259.363.385l.623-.637c-.118-.107-.259-.224-.388-.355a.561.561,0,1,1,.8-.78c.126.125.245.257.406.425a4.269,4.269,0,0,1,.294-.339.552.552,0,0,1,.78-.009.547.547,0,0,1,0,.793c-.091.1-.2.181-.321.289.152.153.281.281.408.411a.559.559,0,0,1,.047.834.57.57,0,0,1-.836-.045c-.126-.125-.243-.259-.387-.414-.119.126-.211.231-.312.328s-.2.178-.325.285c.169.161.311.287.444.424a.559.559,0,1,1-.79.788c-.136-.132-.263-.273-.4-.414l-.1.091-.58.56c.155.134.3.244.431.373a.563.563,0,0,1,.033.822.557.557,0,0,1-.822-.036c-.127-.123-.244-.257-.388-.41-.117.124-.21.229-.312.326s-.2.177-.324.282c.165.159.3.283.43.414a.556.556,0,0,1,.031.81.562.562,0,0,1-.822-.023c-.132-.127-.253-.266-.379-.4l-.587.6c.125.121.264.248.4.381a.561.561,0,0,1,.036.822.551.551,0,0,1-.82-.03c-.132-.128-.253-.268-.393-.416-.183.188-.364.35-.622.284a.735.735,0,0,1-.33-.178c-.238-.245-.189-.524.158-.907" transform="translate(-1.183 -1.287)" fill="#999"/>
  </g>
</svg>
