<svg id="Group_512" data-name="Group 512" xmlns="http://www.w3.org/2000/svg" xmlns:xlink="http://www.w3.org/1999/xlink" width="17.859" height="17.905" viewBox="0 0 17.859 17.905">
  <defs>
    <clipPath id="clip-path">
      <rect id="Rectangle_2009" data-name="Rectangle 2009" width="17.859" height="17.905" fill="#ddc38e"/>
    </clipPath>
  </defs>
  <g id="Group_511" data-name="Group 511" transform="translate(0 0)" clip-path="url(#clip-path)">
    <path id="Path_320" data-name="Path 320" d="M13.668,0h2.01c.056.011.163.007.221.012l.96.078A1.031,1.031,0,0,1,17.8,1c.02.174.043.348.063.522,0,1.121-.031,2.356-.031,3.476-.011.038,0-.039,0,0-.049.457-.087.915-.145,1.371a16.834,16.834,0,0,1-.98,3.952,10.508,10.508,0,0,1-5.248,5.89,17.175,17.175,0,0,1-6.338,1.623l-.885.071h-2.1c-.056-.011-.112-.027-.168-.032q-.546-.05-1.092-.1a.817.817,0,0,1-.741-.742c-.049-.526-.1-1.05-.12-1.577a23.044,23.044,0,0,1,.2-3.942A18.15,18.15,0,0,1,.987,8.138,11.474,11.474,0,0,1,3.559,3.765,12.257,12.257,0,0,1,9.714.517,22.222,22.222,0,0,1,13.059.034c.19-.016.418-.016.609-.034m-4.4,1.731c-.06.016-.105.025-.15.04-.347.115-.7.221-1.039.351A10.2,10.2,0,0,0,4.6,4.219,10.623,10.623,0,0,0,1.783,9.162a.215.215,0,0,0,.05.191q3.349,3.365,6.7,6.725a.2.2,0,0,0,.213.048c.258-.088.521-.161.779-.252a10.2,10.2,0,0,0,4.064-2.5,10.861,10.861,0,0,0,2.523-4.648.213.213,0,0,0-.049-.19Q12.716,5.17,9.36,1.811a1.243,1.243,0,0,0-.1-.08M7.345,16.482,1.414,10.536c-.087.692-.172,1.4-.267,2.111a.293.293,0,0,0,.1.274c1.134,1.132,2.277,2.257,3.391,3.409.307.316.6.533,1.046.387a.115.115,0,0,1,.017,0l1.644-.235M10.515,1.4l5.966,5.977c.09-.726.182-1.451.267-2.177A.268.268,0,0,0,16.68,5q-1.892-1.9-3.792-3.8a.29.29,0,0,0-.209-.074c-.721.083-1.44.176-2.163.266m6.348,2.245-.1-2.532-2.526-.1ZM1.132,16.777l2.479.093L1.036,14.291Z" transform="translate(0 0)" fill="#ddc38e"/>
    <path id="Path_321" data-name="Path 321" d="M14.074,9.673,11.389,6.987a.493.493,0,0,1,.7-.7l2.686,2.687a.492.492,0,0,1-.7.7" transform="translate(-2.054 -1.122)" fill="#ddc38e"/>
    <path id="Path_322" data-name="Path 322" d="M11.509,12.211,8.824,9.525a.493.493,0,0,1,.7-.7l2.686,2.687a.492.492,0,1,1-.7.7" transform="translate(-1.585 -1.586)" fill="#ddc38e"/>
    <path id="Path_323" data-name="Path 323" d="M9,14.749,6.313,12.063a.493.493,0,0,1,.7-.7l2.686,2.687a.492.492,0,0,1-.7.7" transform="translate(-1.127 -2.05)" fill="#ddc38e"/>
  </g>
</svg>
