<svg xmlns="http://www.w3.org/2000/svg" xmlns:xlink="http://www.w3.org/1999/xlink" width="17.663" height="17.672" viewBox="0 0 17.663 17.672">
  <defs>
    <clipPath id="clip-path">
      <rect id="Rectangle_2013" data-name="Rectangle 2013" width="17.663" height="17.672" fill="#a5a5a5"/>
    </clipPath>
  </defs>
  <g id="Group_518" data-name="Group 518" transform="translate(0 0)">
    <g id="Group_517" data-name="Group 517" transform="translate(0 0)" clip-path="url(#clip-path)">
      <path id="Path_325" data-name="Path 325" d="M8.835,17.672A8.867,8.867,0,0,1,0,8.826,9.08,9.08,0,0,1,8.876,0a9.01,9.01,0,0,1,8.786,8.872,8.876,8.876,0,0,1-8.828,8.8M13.453,14.9a7.793,7.793,0,0,1-1.476-2.1c-.148-.322-.306-.472-.673-.426a.541.541,0,0,1-.564-.473.578.578,0,0,1,.373-.659,1.8,1.8,0,0,1,.208-.05c-.1-.585-.2-1.161-.3-1.717a2.975,2.975,0,0,1-.583-.117.479.479,0,0,1-.294-.506.817.817,0,0,1,.142-.384c.184-.256.478-.2.73-.2l.3-1.754a.242.242,0,0,0-.034-.009.589.589,0,0,1,.057-1.177,1.551,1.551,0,0,1,.238,0,.222.222,0,0,0,.262-.161A7.744,7.744,0,0,1,12.9,3.465c.18-.221.371-.433.558-.649a7.4,7.4,0,0,0-9.257.02A7.545,7.545,0,0,1,5.683,4.9c.151.322.313.468.676.423a.541.541,0,0,1,.563.475.58.58,0,0,1-.377.657,1.761,1.761,0,0,1-.2.05c.1.586.2,1.163.3,1.75.1,0,.2,0,.3,0a.588.588,0,0,1,0,1.176c-.109,0-.216,0-.306,0-.1.6-.2,1.176-.3,1.755a.285.285,0,0,0,.043.011.589.589,0,0,1-.058,1.176,2.891,2.891,0,0,1-.293,0,.17.17,0,0,0-.194.121q-.156.331-.336.652a8.753,8.753,0,0,1-1.3,1.746,7.514,7.514,0,0,0,9.255,0M5.459,9.435c-.144,0-.229,0-.313,0a.588.588,0,0,1-.007-1.176c.089,0,.177,0,.31,0-.123-.611-.239-1.188-.355-1.766-.215,0-.38,0-.544,0a.588.588,0,0,1-.2-1.139c.059-.023.121-.038.19-.06A7.166,7.166,0,0,0,3.321,3.635a7.515,7.515,0,0,0,.006,10.482,7.4,7.4,0,0,0,1.217-1.724c-.043-.009-.071-.013-.1-.021a.6.6,0,0,1-.466-.688A.588.588,0,0,1,4.6,11.2a2.788,2.788,0,0,0,.349,0c.05-.006.128-.053.138-.094.128-.544.247-1.091.375-1.667m8.881,4.687a7.51,7.51,0,0,0-.005-10.481A7.109,7.109,0,0,0,13.119,5.3l.082.02a.592.592,0,0,1-.14,1.173h-.5l-.348,1.766h.248a.59.59,0,1,1-.009,1.176h-.214c.046.314.078.606.135.893s.141.578.214.872c.188,0,.353,0,.517,0a.588.588,0,0,1,.189,1.143c-.054.019-.11.035-.176.056a7.549,7.549,0,0,0,1.22,1.722" transform="translate(0 0)" fill="#a5a5a5"/>
    </g>
  </g>
</svg>
