<svg xmlns="http://www.w3.org/2000/svg" width="14.941" height="12.47" viewBox="0 0 14.941 12.47">
  <path id="全收起" d="M-586.718,1003.036l6.59-5.793a1.166,1.166,0,0,1,1.424,0q3.187,2.884,6.371,5.768c.875.791-.546,1.972-1.424,1.176l-5.67-5.132q-2.934,2.578-5.869,5.158a1,1,0,0,1-.669.258C-586.721,1004.47-587.4,1003.635-586.718,1003.036Zm0-5q3.294-2.9,6.59-5.793a1.166,1.166,0,0,1,1.424,0q3.187,2.884,6.371,5.767c.875.792-.546,1.972-1.424,1.176l-5.67-5.132-5.869,5.159a1,1,0,0,1-.669.257C-586.721,999.47-587.4,998.635-586.718,998.036Z" transform="translate(587 -992)" fill="#8ecfff"/>
</svg>
