<svg id="板球" xmlns="http://www.w3.org/2000/svg" width="17" height="17" viewBox="0 0 18 18">
  <path id="路径_56" data-name="路径 56" d="M573.265,107.239a1.057,1.057,0,0,1-.749-.309l-.806-.809a1.063,1.063,0,0,1,0-1.5l4.614-4.614a1.063,1.063,0,0,1,1.5,0l.806.806a1.059,1.059,0,0,1,0,1.5l-4.614,4.614A1.047,1.047,0,0,1,573.265,107.239Zm0-1.058h0l4.614-4.614-.807-.806-4.614,4.614Z" transform="translate(-560.938 -99.7)" fill="#a5a5a5"/>
  <path id="路径_57" data-name="路径 57" d="M77.968,296.11a5.374,5.374,0,0,1-1.577-3.708.631.631,0,0,1,.184-.459l8.047-8.047a1.266,1.266,0,0,1,1.788,0l3.772,3.772a1.266,1.266,0,0,1,0,1.788L82.136,297.5a.628.628,0,0,1-.466.184l-.057,0A5.376,5.376,0,0,1,77.968,296.11Zm-.26-3.147a4.121,4.121,0,0,0,3.408,3.406.627.627,0,0,0,.542-.178l7.184-7.184a.63.63,0,0,0,0-.893l-2.879-2.879a.63.63,0,0,0-.893,0l-7.184,7.186A.63.63,0,0,0,77.708,292.962Z" transform="translate(-76.391 -279.687)" fill="#a5a5a5"/>
  <path id="路径_58" data-name="路径 58" d="M449.145,651.745m-2.745,0A2.745,2.745,0,1,0,449.145,649,2.745,2.745,0,0,0,446.4,651.745Z" transform="translate(-438.578 -637.426)" fill="#a5a5a5"/>
  <path id="路径_59" data-name="路径 59" d="M424.748,630.649a3.274,3.274,0,1,1,2.315-.959A3.255,3.255,0,0,1,424.748,630.649Zm0-5.492a2.217,2.217,0,1,0,1.568.65A2.2,2.2,0,0,0,424.748,625.156Z" transform="translate(-414.18 -613.053)" fill="#a5a5a5"/>
</svg>
