<svg id="Group_524" data-name="Group 524" xmlns="http://www.w3.org/2000/svg" xmlns:xlink="http://www.w3.org/1999/xlink" width="23.035" height="14.368" viewBox="0 0 23.035 14.368">
  <defs>
    <clipPath id="clip-path">
      <rect id="Rectangle_2018" data-name="Rectangle 2018" width="23.035" height="14.368" transform="translate(0 0)" fill="#ddc38e"/>
    </clipPath>
  </defs>
  <g id="Group_523" data-name="Group 523" clip-path="url(#clip-path)">
    <path id="Path_330" data-name="Path 330" d="M0,9.56c.068-.274.12-.553.207-.82A4.291,4.291,0,0,1,6.349,6.3l.181.093c.062-.068.128-.136.189-.208.338-.392.678-.782,1.006-1.182a.294.294,0,0,0,.05-.246Q7.4,3.846,7,2.945a.318.318,0,0,0-.212-.138c-.153-.029-.316,0-.467-.036a.673.673,0,0,1-.545-.655.688.688,0,0,1,.562-.665,1.349,1.349,0,0,1,.246-.023c.884,0,1.769,0,2.654,0a1.119,1.119,0,0,1,.373.062.675.675,0,0,1,.417.722.707.707,0,0,1-.7.585c-.142.006-.285,0-.427,0H8.427c.2.479.394.927.594,1.4l5.9-1.534c-.127-.309-.249-.6-.37-.9A.706.706,0,0,1,15.036.706C15.7.488,16.355.267,17.014.049a.692.692,0,0,1,.934.4.688.688,0,0,1-.506.883c-.458.157-.917.309-1.4.47.175.418.342.816.508,1.215.374.9.751,1.793,1.117,2.694.058.142.122.168.267.138a4.3,4.3,0,1,1-3.449,4.694A4.218,4.218,0,0,1,16.341,6.51c.053-.039.124-.139.108-.179-.241-.6-.495-1.2-.756-1.824l-1.751,2.4c-.848,1.162-1.7,2.323-2.542,3.488a.78.78,0,0,1-.685.351c-.653-.006-1.305,0-1.958,0-.152,0-.229.02-.268.2A4.29,4.29,0,0,1,.043,10.7.974.974,0,0,0,0,10.55V9.56M17.029,7.709a2.926,2.926,0,1,0,4.341,1.04C20.793,7.6,19.2,6.8,18.3,7.216q.169.413.34.827c.241.579.489,1.156.722,1.738a.68.68,0,1,1-1.268.487c-.353-.848-.706-1.7-1.066-2.559M7.105,10.745H4.348a.675.675,0,0,1-.673-.394.663.663,0,0,1,.134-.767c.148-.17.292-.342.438-.513l1.372-1.6a2.923,2.923,0,0,0-3.914,3.986A2.943,2.943,0,0,0,4.94,12.929a2.857,2.857,0,0,0,2.165-2.184M10.951,8.7l3.188-4.374L14.1,4.287,9.566,5.467,10.951,8.7M9.76,9.377c-.447-1.042-.88-2.054-1.328-3.1l-2.653,3.1Z" fill="#ddc38e"/>
  </g>
</svg>
