<svg xmlns="http://www.w3.org/2000/svg" xmlns:xlink="http://www.w3.org/1999/xlink" width="17.652" height="17.627" viewBox="0 0 17.652 17.627">
  <defs>
    <clipPath id="clip-path">
      <rect id="Rectangle_2020" data-name="Rectangle 2020" width="17.652" height="17.628" fill="#a5a5a5"/>
    </clipPath>
  </defs>
  <g id="Group_527" data-name="Group 527" transform="translate(0 0)">
    <g id="Group_526" data-name="Group 526" transform="translate(0 0)" clip-path="url(#clip-path)">
      <path id="Path_331" data-name="Path 331" d="M0,9.542a.356.356,0,0,1,0-.05C0,9.1.006,8.723.006,8.329A1.26,1.26,0,0,0,.032,8.2c.059-.39.09-.788.179-1.171a8.526,8.526,0,0,1,4.2-5.674A8.5,8.5,0,0,1,8.689.213a8.627,8.627,0,0,1,3.889.9.209.209,0,0,0,.248-.043c.279-.3.568-.585.853-.877a.526.526,0,0,1,.56-.17.53.53,0,0,1,.379.464c.112.673.229,1.344.338,2.017a.187.187,0,0,0,.162.156c.664.084,1.327.181,1.99.265a.542.542,0,0,1,.329.971c-.287.29-.565.589-.855.874a.264.264,0,0,0-.051.307,8.7,8.7,0,0,1,.7,5.683,8.346,8.346,0,0,1-1.988,3.915A8.45,8.45,0,0,1,7.43,17.533a9.85,9.85,0,0,1-4.211-1.842A8.579,8.579,0,0,1,.135,10.45c-.051-.3-.088-.606-.131-.908M15.655,5.723a.657.657,0,0,1-.738.242c-.294-.05-.59-.084-.886-.122-.078-.01-.158-.01-.255-.016A5.93,5.93,0,1,1,3.765,5.669a5.731,5.731,0,0,1,3.178-2.4,5.873,5.873,0,0,1,4.878.6.682.682,0,0,0,0-.1c-.057-.345-.1-.692-.177-1.033a.647.647,0,0,1,.205-.668.933.933,0,0,0,.074-.088,7.659,7.659,0,1,0,3.734,3.741M11.191,7.287a2.97,2.97,0,0,1-.785,4.081,2.97,2.97,0,0,1-4.219-4A2.843,2.843,0,0,1,7.773,6.11a2.937,2.937,0,0,1,2.668.4L11.75,5.13a4.886,4.886,0,1,0,.77.779L11.191,7.287M9.613,7.243a1.911,1.911,0,0,0-2.176,3.111A1.92,1.92,0,0,0,10,10.347,1.876,1.876,0,0,0,10.363,8c-.219.229-.431.455-.647.675S9.3,9.1,9.077,9.3a.525.525,0,0,1-.741-.744c.1-.107.2-.2.3-.305.327-.338.652-.678.973-1.012m4.139-5.528c-.322.3-.65.607-.973.917a.2.2,0,0,0-.055.15q.142.882.3,1.761a.185.185,0,0,0,.128.111q.85.125,1.7.231a.285.285,0,0,0,.208-.068c.287-.281.565-.572.844-.861a1.084,1.084,0,0,0,.084-.112c-.488-.065-.953-.132-1.419-.187a.571.571,0,0,1-.579-.527c-.084-.484-.166-.968-.242-1.414" transform="translate(0 0)" fill="#a5a5a5"/>
    </g>
  </g>
</svg>
