<svg xmlns="http://www.w3.org/2000/svg" xmlns:xlink="http://www.w3.org/1999/xlink" width="21.643" height="21.687" viewBox="0 0 21.643 21.687">
  <defs>
    <clipPath id="clip-path">
      <rect id="Rectangle_2042" data-name="Rectangle 2042" width="21.643" height="21.687" transform="translate(0 0)" fill="#333"/>
    </clipPath>
  </defs>
  <g id="Group_553" data-name="Group 553" transform="translate(0 0)">
    <g id="Group_552" data-name="Group 552" clip-path="url(#clip-path)">
      <path id="Path_359" data-name="Path 359" d="M10.318,6.456V4.026q0-1.653,0-3.305c0-.359.192-.59.488-.6s.5.233.5.6q0,2.714,0,5.425v.3c.383,0,.752,0,1.121,0,.053,0,.107-.051.158-.082A5.819,5.819,0,0,1,21.435,10.4a5.679,5.679,0,0,1-1.8,5.218.559.559,0,0,0-.158.323c-.111,1.262-.2,2.527-.314,3.789A1.83,1.83,0,0,1,17.453,21.5,13.993,13.993,0,0,1,14.84,21.5a1.889,1.889,0,0,1-1.7-1.868q-.1-1.51-.238-3.018a.273.273,0,0,0-.164-.195,6.836,6.836,0,0,0-1.2-.211,8.625,8.625,0,0,0-2.291.1c-.487.116-.5.115-.546.613-.08.877-.163,1.754-.21,2.633A1.994,1.994,0,0,1,6.42,21.542H4.643a2.007,2.007,0,0,1-2.209-2.069q-.128-1.76-.277-3.518a.6.6,0,0,0-.166-.344A5.875,5.875,0,0,1,.125,11.369,5.552,5.552,0,0,1,3.258,6.153a5.648,5.648,0,0,1,5.789.214.654.654,0,0,0,.3.085c.317.01.634,0,.975,0m5.834,14.092h0c.342,0,.684,0,1.025,0a.963.963,0,0,0,1.017-.923c.042-.453.065-.908.1-1.362.069-.893.146-1.785.207-2.679a.763.763,0,0,1,.3-.556,4.715,4.715,0,0,0,1.665-4.506,4.843,4.843,0,0,0-7.441-3.263,1.022,1.022,0,0,1-.595.178q-1.607-.007-3.213,0A1.1,1.1,0,0,1,8.6,7.257a4.732,4.732,0,0,0-4.807-.285,4.778,4.778,0,0,0-2.6,5.165,5.027,5.027,0,0,0,1.661,2.906.7.7,0,0,1,.274.5c.1,1.332.21,2.663.3,3.995a.989.989,0,0,0,1.052,1.01c.683,0,1.367,0,2.05,0a.933.933,0,0,0,.935-.746,4.945,4.945,0,0,0,.069-.656c.079-1.006.155-2.012.236-3.019A.455.455,0,0,1,8.06,15.7a7.422,7.422,0,0,1,1.428-.423,18.047,18.047,0,0,1,2.069-.061,4.644,4.644,0,0,1,1.976.461.533.533,0,0,1,.33.479q.14,1.748.276,3.5a.96.96,0,0,0,.942.9c.357.006.714,0,1.071,0" fill="#333"/>
      <path id="Path_360" data-name="Path 360" d="M10.318,6.456V4.026q0-1.653,0-3.305c0-.359.192-.59.488-.6s.5.233.5.6q0,2.714,0,5.425v.3c.383,0,.752,0,1.121,0,.053,0,.107-.051.158-.082A5.819,5.819,0,0,1,21.435,10.4a5.679,5.679,0,0,1-1.8,5.218.559.559,0,0,0-.158.323c-.111,1.262-.2,2.527-.314,3.789A1.83,1.83,0,0,1,17.453,21.5,13.993,13.993,0,0,1,14.84,21.5a1.889,1.889,0,0,1-1.7-1.868q-.1-1.51-.238-3.018a.273.273,0,0,0-.164-.195,6.836,6.836,0,0,0-1.2-.211,8.625,8.625,0,0,0-2.291.1c-.487.116-.5.115-.546.613-.08.877-.163,1.754-.21,2.633A1.994,1.994,0,0,1,6.42,21.542H4.643a2.007,2.007,0,0,1-2.209-2.069q-.128-1.76-.277-3.518a.6.6,0,0,0-.166-.344A5.875,5.875,0,0,1,.125,11.369,5.552,5.552,0,0,1,3.258,6.153a5.648,5.648,0,0,1,5.789.214.654.654,0,0,0,.3.085C9.66,6.462,9.977,6.456,10.318,6.456Zm5.834,14.092h0c.342,0,.684,0,1.025,0a.963.963,0,0,0,1.017-.923c.042-.453.065-.908.1-1.362.069-.893.146-1.785.207-2.679a.763.763,0,0,1,.3-.556,4.715,4.715,0,0,0,1.665-4.506,4.843,4.843,0,0,0-7.441-3.263,1.022,1.022,0,0,1-.595.178q-1.607-.007-3.213,0A1.1,1.1,0,0,1,8.6,7.257a4.732,4.732,0,0,0-4.807-.285,4.778,4.778,0,0,0-2.6,5.165,5.027,5.027,0,0,0,1.661,2.906.7.7,0,0,1,.274.5c.1,1.332.21,2.663.3,3.995a.989.989,0,0,0,1.052,1.01c.683,0,1.367,0,2.05,0a.933.933,0,0,0,.935-.746,4.945,4.945,0,0,0,.069-.656c.079-1.006.155-2.012.236-3.019A.455.455,0,0,1,8.06,15.7a7.422,7.422,0,0,1,1.428-.423,18.047,18.047,0,0,1,2.069-.061,4.644,4.644,0,0,1,1.976.461.533.533,0,0,1,.33.479q.14,1.748.276,3.5a.96.96,0,0,0,.942.9C15.438,20.553,15.8,20.548,16.152,20.548Z" fill="#333"/>
      <path id="Path_361" data-name="Path 361" d="M4.462,9.854a6.15,6.15,0,0,1,.064-.713.9.9,0,0,1,.826-.727,8.981,8.981,0,0,1,1.16-.006.932.932,0,0,1,.895.893c.015.172,0,.346,0,.553.163,0,.3,0,.431,0a.978.978,0,0,1,1.035,1.025c.008.318.014.638-.006.956a.975.975,0,0,1-1.013.953c-.136,0-.272,0-.438,0,0,.144,0,.27,0,.4a1,1,0,0,1-1.071,1.062c-.289,0-.577.005-.866,0a1,1,0,0,1-1-1c0-.142,0-.285,0-.457h-.4a1,1,0,0,1-1.063-1.073c0-.273,0-.547,0-.82a.985.985,0,0,1,1-1.04c.143-.006.286,0,.437,0m-.429.991v.948a1.444,1.444,0,0,1,1.16.3,1.491,1.491,0,0,1,.287,1.144h.959a1.421,1.421,0,0,1,.291-1.163,1.544,1.544,0,0,1,1.154-.285v-.958a1.465,1.465,0,0,1-1.164-.277c-.34-.335-.271-.761-.284-1.164H5.491c-.109,1.278-.193,1.362-1.458,1.455" fill="#333"/>
      <path id="Path_362" data-name="Path 362" d="M4.462,9.854a6.15,6.15,0,0,1,.064-.713.9.9,0,0,1,.826-.727,8.981,8.981,0,0,1,1.16-.006.932.932,0,0,1,.895.893c.015.172,0,.346,0,.553.163,0,.3,0,.431,0a.978.978,0,0,1,1.035,1.025c.008.318.014.638-.006.956a.975.975,0,0,1-1.013.953c-.136,0-.272,0-.438,0,0,.144,0,.27,0,.4a1,1,0,0,1-1.071,1.062c-.289,0-.577.005-.866,0a1,1,0,0,1-1-1c0-.142,0-.285,0-.457h-.4a1,1,0,0,1-1.063-1.073c0-.273,0-.547,0-.82a.985.985,0,0,1,1-1.04C4.168,9.849,4.311,9.854,4.462,9.854Zm-.429.991v.948a1.444,1.444,0,0,1,1.16.3,1.491,1.491,0,0,1,.287,1.144h.959a1.421,1.421,0,0,1,.291-1.163,1.544,1.544,0,0,1,1.154-.285v-.958a1.465,1.465,0,0,1-1.164-.277c-.34-.335-.271-.761-.284-1.164H5.491C5.382,10.668,5.3,10.752,4.033,10.845Z" fill="#333"/>
      <path id="Path_363" data-name="Path 363" d="M15.625,14.724a1.465,1.465,0,1,1,.114-2.927,1.488,1.488,0,0,1,1.4,1.524,1.471,1.471,0,0,1-1.519,1.4m.526-1.472a.466.466,0,0,0-.482-.463.486.486,0,0,0-.477.476.506.506,0,0,0,.478.484.489.489,0,0,0,.481-.5" fill="#333"/>
      <path id="Path_364" data-name="Path 364" d="M14.708,11.307a1.466,1.466,0,1,1-1.47-1.452,1.477,1.477,0,0,1,1.47,1.452m-1.454.487a.49.49,0,0,0,.476-.479.507.507,0,0,0-.482-.481.486.486,0,0,0-.477.5.465.465,0,0,0,.483.461" fill="#333"/>
      <path id="Path_365" data-name="Path 365" d="M15.687,10.832a1.459,1.459,0,1,1,1.458-1.468,1.456,1.456,0,0,1-1.458,1.468m.465-1.469a.462.462,0,0,0-.485-.464.486.486,0,0,0-.474.484.481.481,0,0,0,.494.463.462.462,0,0,0,.465-.483" fill="#333"/>
      <path id="Path_366" data-name="Path 366" d="M19.566,11.315A1.458,1.458,0,1,1,18.1,9.856a1.464,1.464,0,0,1,1.463,1.459m-1.933,0a.474.474,0,1,0,.948.012.474.474,0,1,0-.948-.012" fill="#333"/>
    </g>
  </g>
</svg>
