<svg xmlns="http://www.w3.org/2000/svg" width="17" height="17" viewBox="0 0 18 18">
  <path id="足球" d="M40.637,32.72l.959-.6c-.36,0-.6-.12-.959-.12h-.959Zm-7.076,5.4,2.518.96,4.077-2.76.12-2.76-1.8-1.32a9.286,9.286,0,0,0-5.636,3.84Zm6.956-1.08L36.68,39.68,38,44.24l4.677.12,1.559-4.44ZM41,33.56v2.76l3.838,2.88,2.638-.84.72-1.92a9.464,9.464,0,0,0-5.4-4.2ZM32.6,38.24l-.36-1.08a6.942,6.942,0,0,0-.6,1.68Zm16.07.72-.12-.84-.24.6Zm-2.518,8.88h-1.2l-.36,1.08A4.563,4.563,0,0,0,46.154,47.84Zm1.559-8.52-2.518.72-1.679,4.68L45.075,47h2.039a8.5,8.5,0,0,0,2.279-5.76v-.6ZM35.481,46.64,37.16,44.6l-1.439-4.68-2.638-.96L31.4,40.16v.72a9.352,9.352,0,0,0,1.919,5.88Zm-1.319.84A5.637,5.637,0,0,0,35.6,48.56l-.36-1.08Zm10.074-.12L42.8,45.32l-5.037-.12L36.08,47.36l.72,1.92a8.043,8.043,0,0,0,3.358.72,7.949,7.949,0,0,0,3.358-.6Z" transform="translate(-31.392 -32)" fill="#a5a5a5"/>
</svg>
