<svg id="Group_529" data-name="Group 529" xmlns="http://www.w3.org/2000/svg" xmlns:xlink="http://www.w3.org/1999/xlink" width="25.612" height="9.985" viewBox="0 0 25.612 9.985">
  <defs>
    <clipPath id="clip-path">
      <rect id="Rectangle_2022" data-name="Rectangle 2022" width="25.612" height="9.985" fill="#ddc38e"/>
    </clipPath>
  </defs>
  <g id="Group_528" data-name="Group 528" transform="translate(0 0)" clip-path="url(#clip-path)">
    <path id="Path_332" data-name="Path 332" d="M23.353.664Q19.976,4.881,16.6,9.1c-.678.842-.373.71-1.466.717-.973,0-1.946,0-2.919,0-.205,0-.4-.018-.5-.233s.018-.358.139-.51Q15.272,4.794,18.688.512a.892.892,0,0,1,.79-.387c1.114.021,2.227.012,3.341,0a.6.6,0,0,1,.534.237ZM12.839,9.045c.915,0,1.764,0,2.613,0a.427.427,0,0,0,.372-.184q3.093-3.876,6.193-7.748c.048-.059.089-.124.152-.216-.876,0-1.71.007-2.543,0a.511.511,0,0,0-.453.22q-2.434,3.059-4.88,6.108c-.472.589-.944,1.181-1.455,1.821" transform="translate(2.112 0.022)" fill="#ddc38e"/>
    <path id="Path_999" data-name="Path 999" d="M15.677,9.985c-.116,0-.256,0-.449,0h-.072c-.574,0-1.145,0-1.718,0h-1.2a.628.628,0,0,1-.637-.315A.58.58,0,0,1,11.757,9L13.112,7.31Q15.857,3.877,18.6.442A1.038,1.038,0,0,1,19.475,0h.031c1.032.02,2.081.014,3.1.006h.248a.742.742,0,0,1,.645.3l.028.039v.4L21.434,3.349q-2.345,2.932-4.7,5.86c-.106.132-.188.24-.255.327-.3.4-.363.449-.8.449m-.449-.3c.2,0,.345,0,.458,0,.308,0,.337-.037.56-.332.068-.09.151-.2.26-.334Q18.86,6.1,21.2,3.165L23.228.634V.44A.459.459,0,0,0,22.849.3H22.6C21.587.308,20.534.314,19.5.3h-.026a.738.738,0,0,0-.647.332q-2.735,3.438-5.484,6.867L11.989,9.186c-.135.165-.18.239-.124.352.064.129.165.15.372.15.4,0,.8,0,1.2,0,.572,0,1.143,0,1.716,0Zm.252-.466h-.006c-.634-.007-1.266-.006-1.927-.006h-.992l2.391-2.992q2.071-2.586,4.136-5.176a.656.656,0,0,1,.557-.275h.012c.616.008,1.232.007,1.856.006h.968l-.213.306c-.039.058-.072.105-.106.149L20.271,3.589Q18.117,6.283,15.963,8.98a.567.567,0,0,1-.483.24m-1.286-.3c.433,0,.859,0,1.282.006h0a.28.28,0,0,0,.252-.129Q17.885,6.1,20.039,3.4L21.9,1.071h-.4c-.631,0-1.246,0-1.861-.006a.375.375,0,0,0-.335.164Q17.25,3.822,15.176,6.406L13.169,8.919h1.025Z" transform="translate(2.089 0)" fill="#ddc38e"/>
    <path id="Path_334" data-name="Path 334" d="M18.553.91C18.466.9,18.425.9,18.384.9,15.942.9,13.5.881,11.057.907A6.792,6.792,0,0,0,5.652,3.553C4.216,5.319,2.8,7.106,1.384,8.884c-.03.037-.057.076-.106.142.091.007.151.017.213.017.8,0,1.6.007,2.4-.006a.5.5,0,0,0,.325-.158c.306-.357.592-.731.885-1.1.191-.237.406-.283.594-.129s.188.359,0,.589c-.359.452-.711.91-1.09,1.346a.667.667,0,0,1-.438.214c-1.2.018-2.409.009-3.614.009-.183,0-.374-.041-.419-.233a.562.562,0,0,1,.074-.426C1.9,7.035,3.564,4.9,5.293,2.824A7.312,7.312,0,0,1,10.111.218,9.733,9.733,0,0,1,11.367.136c2.566-.008,5.132,0,7.7,0h.2c.194,0,.394.041.435.244a.634.634,0,0,1-.106.444c-.386.515-.8,1.01-1.2,1.512-.335.419-.678.833-1,1.259a.675.675,0,0,1-.59.283c-1.865-.007-3.729,0-5.594,0A4.016,4.016,0,0,0,7.926,5.458c-.4.495-.8.99-1.188,1.489a.416.416,0,0,1-.494.181.355.355,0,0,1-.163-.553A27.5,27.5,0,0,1,8.035,4.283a4.417,4.417,0,0,1,3.19-1.18q2.675-.007,5.347,0a.444.444,0,0,0,.394-.189c.488-.624.985-1.239,1.479-1.858.03-.038.056-.077.109-.149" transform="translate(0.023 0.023)" fill="#ddc38e"/>
    <path id="Path_335" data-name="Path 335" d="M2.323,9.984H.58c-.4,0-.527-.189-.564-.347a.711.711,0,0,1,.1-.551L1.1,7.85c1.332-1.68,2.709-3.42,4.1-5.1A7.454,7.454,0,0,1,10.114.095,10,10,0,0,1,11.391.011q2.82-.007,5.644,0h2.253c.42,0,.544.195.579.365a.782.782,0,0,1-.135.56c-.283.379-.587.755-.88,1.116l-.6.745c-.244.3-.488.6-.722.91a.828.828,0,0,1-.709.341c-1.081,0-2.162,0-3.239,0q-1.178,0-2.356,0h-.009A3.837,3.837,0,0,0,8.065,5.574l-.118.145q-.538.67-1.07,1.343a.554.554,0,0,1-.659.228A.5.5,0,0,1,5.9,6.947.477.477,0,0,1,5.989,6.5c.159-.194.315-.39.472-.586A18.5,18.5,0,0,1,7.955,4.2a4.554,4.554,0,0,1,3.292-1.221q2.677-.007,5.346,0a.3.3,0,0,0,.279-.133c.348-.446.7-.889,1.058-1.999l.355-.445c-.7,0-1.4,0-2.1,0-1.675,0-3.4-.008-5.1.009A6.66,6.66,0,0,0,5.788,3.669C4.793,4.891,3.8,6.144,2.83,7.357q-.622.779-1.244,1.56h.407c.637,0,1.277,0,1.917-.007A.348.348,0,0,0,4.126,8.8c.21-.244.411-.5.612-.753l.269-.34a.667.667,0,0,1,.433-.27.5.5,0,0,1,.368.12.526.526,0,0,1,.027.8l-.224.285c-.279.353-.566.72-.869,1.066a.814.814,0,0,1-.548.265c-.624.009-1.246.012-1.872.012M14.981.3q-1.8,0-3.59,0a9.6,9.6,0,0,0-1.239.081A7.175,7.175,0,0,0,5.428,2.941C4.035,4.616,2.66,6.353,1.329,8.033L.35,9.267a.433.433,0,0,0-.046.3c.008.035.028.118.276.118h.872c.914,0,1.827,0,2.74-.011a.538.538,0,0,0,.329-.163c.3-.341.583-.705.86-1.057l.226-.285c.19-.24.064-.344.017-.383a.184.184,0,0,0-.152-.056.384.384,0,0,0-.233.162l-.268.338c-.2.257-.405.515-.62.763a.646.646,0,0,1-.433.21c-.645.009-1.285.006-1.925.007H1.512A1.179,1.179,0,0,1,1.375,9.2l-.353-.027.2-.269c.027-.038.048-.066.07-.093L2.6,7.173C3.564,5.96,4.564,4.7,5.559,3.481a6.941,6.941,0,0,1,5.518-2.7c1.7-.018,3.432-.013,5.105-.009q1.112,0,2.222,0c.032,0,.061,0,.106.006L18.852.8l-.205.28a1.077,1.077,0,0,1-.067.091L18.16,1.7c-.353.443-.707.885-1.056,1.331a.591.591,0,0,1-.511.246q-2.673-.012-5.346,0A4.275,4.275,0,0,0,8.16,4.411,18.347,18.347,0,0,0,6.691,6.1c-.157.2-.314.394-.475.588a.189.189,0,0,0-.033.176.212.212,0,0,0,.131.144c.1.038.2.028.328-.132.354-.451.714-.9,1.075-1.344l.116-.145a4.173,4.173,0,0,1,3.386-1.645h2.363c1.082,0,2.161,0,3.24,0a.535.535,0,0,0,.474-.226c.236-.309.481-.613.726-.916l.6-.745c.289-.36.59-.732.872-1.108a.484.484,0,0,0,.079-.328C19.568.39,19.551.3,19.3.3h-4.32Z" transform="translate(0 0.001)" fill="#ddc38e"/>
    <path id="Path_336" data-name="Path 336" d="M12.514,3.9q1.137,0,2.276,0a.46.46,0,0,1,.481.227c.1.2-.007.347-.123.492-.726.907-1.457,1.81-2.174,2.724a.714.714,0,0,1-.634.3c-.551-.014-1.1,0-1.657-.008a.39.39,0,0,0-.352.172c-.276.359-.569.705-.844,1.065a.586.586,0,0,1-.5.254q-1.78-.005-3.562,0A.444.444,0,0,1,4.965,8.9a.407.407,0,0,1,.107-.471L7.636,5.221a3.36,3.36,0,0,1,2.749-1.316c.71,0,1.418,0,2.128,0m1.625.769H10.292a2.509,2.509,0,0,0-2.037.985C7.675,6.376,7.1,7.1,6.525,7.819c-.132.164-.262.329-.4.507a.4.4,0,0,0,.093.032c.864,0,1.73,0,2.6,0a.345.345,0,0,0,.217-.125c.3-.367.607-.738.9-1.117a.574.574,0,0,1,.509-.24c.487.007.974-.02,1.458.009a.808.808,0,0,0,.784-.365c.452-.614.945-1.2,1.461-1.845" transform="translate(0.891 0.706)" fill="#ddc38e"/>
    <path id="Path_337" data-name="Path 337" d="M9,9.3q-1.426,0-2.85,0H5.442a.6.6,0,0,1-.587-.311.562.562,0,0,1,.124-.633l2.564-3.2A3.518,3.518,0,0,1,10.408,3.78h4.4a.631.631,0,0,1,.613.309.572.572,0,0,1-.141.65l-.625.781q-.779.969-1.548,1.944a.86.86,0,0,1-.753.355c-.293-.006-.583-.007-.875,0-.26,0-.52,0-.781,0a.238.238,0,0,0-.233.113c-.131.17-.265.337-.4.5-.15.187-.3.372-.444.563A.735.735,0,0,1,9,9.3M6.874,9q1.065,0,2.13,0a.44.44,0,0,0,.387-.2c.146-.191.3-.379.45-.567.132-.165.265-.331.4-.5a.571.571,0,0,1,.471-.229c.257,0,.515,0,.774,0,.3,0,.588,0,.883,0h.026a.562.562,0,0,0,.488-.243c.511-.651,1.031-1.3,1.549-1.945l.626-.781c.126-.158.159-.229.106-.999s-.141-.141-.347-.146h-4.4a3.231,3.231,0,0,0-2.633,1.26L5.211,8.54c-.118.146-.138.218-.091.314S5.262,9,5.442,9H6.874Zm.732-.474H6.238a.28.28,0,0,1-.1-.025L5.9,8.42l.126-.163c.141-.177.272-.344.4-.508L6.9,7.162c.42-.527.838-1.051,1.264-1.574a2.658,2.658,0,0,1,2.15-1.04h4.153l-.192.24c-.151.191-.3.377-.451.561-.354.437-.69.849-1.006,1.28a.959.959,0,0,1-.91.425c-.3-.02-.606-.017-.906-.012-.182,0-.366,0-.547,0h-.013a.431.431,0,0,0-.378.182c-.318.418-.648.82-.9,1.122a.475.475,0,0,1-.327.178c-.411,0-.82,0-1.231,0m-1.18-.3h.047c.79,0,1.574,0,2.359,0a.212.212,0,0,0,.1-.071c.25-.3.577-.7.894-1.114a.7.7,0,0,1,.629-.3c.179,0,.36,0,.54,0,.3,0,.618-.008.926.012a.638.638,0,0,0,.655-.306c.32-.436.658-.851,1.013-1.292.086-.1.172-.21.259-.318H10.315a2.378,2.378,0,0,0-1.921.931C7.97,6.3,7.55,6.822,7.132,7.347l-.47.587c-.078.1-.157.2-.236.3" transform="translate(0.869 0.683)" fill="#ddc38e"/>
  </g>
</svg>
