<svg id="Group_531" data-name="Group 531" xmlns="http://www.w3.org/2000/svg" xmlns:xlink="http://www.w3.org/1999/xlink" width="16.018" height="20.88" viewBox="0 0 16.018 20.88">
  <defs>
    <clipPath id="clip-path">
      <rect id="Rectangle_2024" data-name="Rectangle 2024" width="16.018" height="20.88" transform="translate(0 0)" fill="#999"/>
    </clipPath>
  </defs>
  <g id="Group_530" data-name="Group 530" clip-path="url(#clip-path)">
    <path id="Path_338" data-name="Path 338" d="M8,0A8.016,8.016,0,1,1,0,8.055,8,8,0,0,1,8,0m.007,14.553A6.542,6.542,0,1,0,1.458,8.008a6.544,6.544,0,0,0,6.548,6.545" fill="#999"/>
    <path id="Path_339" data-name="Path 339" d="M8.737,18.443c0,.557,0,1.1,0,1.647a.73.73,0,1,1-1.455.008c0-.546,0-1.091,0-1.652-.322-.045-.636-.082-.947-.131a10.243,10.243,0,0,1-4.57-1.939A.732.732,0,1,1,2.639,15.2,8.833,8.833,0,0,0,6.08,16.773,8.846,8.846,0,0,0,13.242,15.3a.893.893,0,0,1,.706-.242.733.733,0,0,1,.312,1.317,10.261,10.261,0,0,1-2.748,1.478,9.827,9.827,0,0,1-2.563.557c-.067,0-.132.021-.212.035" fill="#999"/>
    <path id="Path_340" data-name="Path 340" d="M9.889,4.793a.736.736,0,0,1-.728-.744.736.736,0,0,1,1.472.016.735.735,0,0,1-.744.728" fill="#999"/>
    <path id="Path_341" data-name="Path 341" d="M11.966,6.848a.707.707,0,0,1-.736-.722.726.726,0,0,1,.729-.736.742.742,0,0,1,.732.718.728.728,0,0,1-.725.74" fill="#999"/>
    <path id="Path_342" data-name="Path 342" d="M12.338,8.524a.712.712,0,0,1-.729.731.728.728,0,0,1,0-1.455.707.707,0,0,1,.733.724" fill="#999"/>
    <path id="Path_343" data-name="Path 343" d="M6.766,4.4a.733.733,0,0,1,.74-.73.736.736,0,0,1-.012,1.472A.732.732,0,0,1,6.766,4.4" fill="#999"/>
    <path id="Path_344" data-name="Path 344" d="M8.828,6.459a.71.71,0,0,1,.739-.719.719.719,0,0,1,.716.723.728.728,0,1,1-1.455,0" fill="#999"/>
  </g>
</svg>
