<svg id="Group_551" data-name="Group 551" xmlns="http://www.w3.org/2000/svg" xmlns:xlink="http://www.w3.org/1999/xlink" width="22.436" height="19.594" viewBox="0 0 22.436 19.594">
  <defs>
    <clipPath id="clip-path">
      <rect id="Rectangle_2040" data-name="Rectangle 2040" width="22.436" height="19.594" transform="translate(0 0)" fill="#ddc38e"/>
    </clipPath>
  </defs>
  <g id="Group_550" data-name="Group 550" clip-path="url(#clip-path)">
    <path id="Path_358" data-name="Path 358" d="M0,14.215V10.06a.612.612,0,0,0,.042-.12,3.321,3.321,0,0,1,.794-1.7A3.45,3.45,0,0,1,3.6,7.027a.616.616,0,0,0,.381-.092,3.634,3.634,0,0,1,2.966-.874A.189.189,0,0,0,7.1,5.993a.672.672,0,0,1,.958-.271,6.882,6.882,0,0,0,1.834.55,2.838,2.838,0,0,0,2.353-.53c.049-.041.122-.054.171-.1.07-.058.162-.12.188-.2.148-.456.279-.917.416-1.376A5.576,5.576,0,0,1,18.5,0q.909,0,1.817,0a.666.666,0,0,1,.719.724c0,.561-.006,1.122.005,1.683a.978.978,0,0,0,.094.393c.43.92.869,1.836,1.305,2.753v.657a1.027,1.027,0,0,0-.044.121,2.214,2.214,0,0,1-3.81,1c-.081-.09-.156-.186-.26-.31a1.581,1.581,0,0,0,0,.161c.1.875.213,1.748.305,2.623a3.966,3.966,0,0,1-1.754,3.849.465.465,0,0,0-.17.256c-.181.86-.352,1.722-.519,2.585a.316.316,0,0,0,.038.223,3.322,3.322,0,0,1,.592,2.146.681.681,0,0,1-.744.728q-1.314,0-2.628,0a.685.685,0,0,1-.777-.779V14.01c-.793-.041-1.563-.034-2.318-.133s-1.508-.3-2.272-.465a3.944,3.944,0,0,1-2.082,2.181,1.553,1.553,0,0,0-.935.951c-.007.021-.027.04-.027.059,0,.079-.026.178.011.234a3.366,3.366,0,0,1,.506,2.021.682.682,0,0,1-.758.736H2.163a.676.676,0,0,1-.759-.75q0-1.958,0-3.914v-.243C.878,14.649.3,14.832,0,14.215m12.667-1.58c0-.261-.006-.5,0-.741a.677.677,0,0,1,.575-.647.653.653,0,0,1,.7.437,1.321,1.321,0,0,1,.041.388q0,2.963,0,5.926v.267h1.469a1.709,1.709,0,0,0-.465-.953.694.694,0,0,1-.191-.659c.225-1.089.45-2.178.651-3.271A1.04,1.04,0,0,1,16,12.627a2.559,2.559,0,0,0,1.317-2.569c-.108-1.144-.258-2.285-.4-3.426a.6.6,0,0,0-.147-.315,2.12,2.12,0,0,1-.584-1.4.663.663,0,0,1,.873-.663.687.687,0,0,1,.463.674.709.709,0,0,0,.669.683,3.4,3.4,0,0,0,.35.009.731.731,0,0,1,.65.999,5.313,5.313,0,0,0,.4.519.871.871,0,0,0,1.154.114A.813.813,0,0,0,21,5.508C20.648,4.8,20.306,4.1,19.94,3.4a1.828,1.828,0,0,1-.231-.98c.019-.361,0-.723,0-1.1-.468,0-.9-.007-1.341,0a4.253,4.253,0,0,0-4.048,3.037c-.172.556-.335,1.114-.508,1.668a7.447,7.447,0,0,0-.537,3.067.6.6,0,0,1-.252.531,1.763,1.763,0,0,1-.374.264c-.476.209-.96.4-1.466.607v2.142Zm-2.81-.171c0-.6-.011-1.179.006-1.754.006-.225-.059-.288-.285-.309a4.578,4.578,0,0,1-2.143-.675.813.813,0,0,1-.4-.748c.008-.458,0-.918.005-1.376,0-.126-.039-.186-.161-.209a2.22,2.22,0,0,0-1.789.365,2.25,2.25,0,0,0-.953,1.937c0,1.159,0,2.317,0,3.475a.913.913,0,0,1-.3.718q-.5.473-.973.975a.52.52,0,0,0-.135.318c-.01.962-.006,1.924-.006,2.885,0,.064.009.127.014.2H4.191a1.707,1.707,0,0,0-.449-.94.656.656,0,0,1-.116-.875c.2-.41.415-.817.614-1.23a.881.881,0,0,1,.435-.439q.444-.208.879-.439A2.61,2.61,0,0,0,6.861,12.85a5.106,5.106,0,0,0,.172-.96.686.686,0,0,1,.395-.586.67.67,0,0,1,.94.617c.005.067.055.176.1.19.448.124.9.232,1.384.353m-8.542.883c.265,0,.5,0,.731,0a.726.726,0,0,0,.761-.773c0-.735,0-1.47,0-2.2,0-.428.013-.857.044-1.285a5.355,5.355,0,0,1,.13-.656A2.076,2.076,0,0,0,1.362,10.12a10.609,10.609,0,0,0-.046,1.2c-.006.668,0,1.336,0,2.03m7.05-6.083c0,.44.012.848-.005,1.255a.284.284,0,0,0,.233.324,5.067,5.067,0,0,0,2.107.278,5.66,5.66,0,0,0,1.131-.289.223.223,0,0,0,.127-.167c.011-.406.006-.813.006-1.251a5.641,5.641,0,0,1-3.6-.15" fill="#ddc38e"/>
  </g>
</svg>
