<svg id="Group_536" data-name="Group 536" xmlns="http://www.w3.org/2000/svg" xmlns:xlink="http://www.w3.org/1999/xlink" width="23.342" height="23.341" viewBox="0 0 23.342 23.341">
  <defs>
    <clipPath id="clip-path">
      <rect id="Rectangle_2028" data-name="Rectangle 2028" width="23.342" height="23.341" transform="translate(0 0)" fill="#ddc38e"/>
    </clipPath>
  </defs>
  <g id="Group_535" data-name="Group 535" clip-path="url(#clip-path)">
    <path id="Path_346" data-name="Path 346" d="M0,14.317c.018-.048.041-.1.054-.143A1.841,1.841,0,0,1,1.84,12.815q2.735,0,5.468,0a.277.277,0,0,0,.311-.21Q8.732,9.7,9.863,6.8a.563.563,0,0,0,.008-.432Q9.1,4.261,8.349,2.144A1.547,1.547,0,1,1,11.21.967c.151.363.288.731.454,1.157.075-.183.131-.315.184-.45.089-.225.173-.452.264-.677a1.544,1.544,0,0,1,2.9,1.069c-.425,1.222-.839,2.45-1.318,3.652A2.09,2.09,0,0,0,13.7,7.435c.713,1.711,1.356,3.452,2.019,5.185a.265.265,0,0,0,.3.2c1.792-.006,3.585.015,5.377-.01a1.88,1.88,0,0,1,1.947,1.943c-.033.712-.006,1.427-.007,2.141a1.809,1.809,0,0,1-1.8,1.876c-1.761.023-3.524.044-5.285-.008a2.727,2.727,0,0,1-2.621-1.915c-.64-1.724-1.249-3.459-1.871-5.19-.022-.063-.047-.126-.092-.247-.046.118-.075.188-.1.26q-.911,2.532-1.82,5.065a2.9,2.9,0,0,1-2.91,2.043q-2.4,0-4.807,0a1.859,1.859,0,0,1-2-1.467c0-.012-.021-.02-.032-.03V14.317m16.907-.587c-.427,0-.843,0-1.258,0s-.5-.056-.656-.449L11.581,4.473q-.594-1.535-1.188-3.07A.63.63,0,0,0,9.509.987a.641.641,0,0,0-.28.875q1.8,5.022,3.607,10.045c.552,1.539,1.1,3.079,1.657,4.616a2.019,2.019,0,0,0,2.414,1.28Zm-10.479,0v4.113c.17,0,.327,0,.485,0a1.94,1.94,0,0,0,1.95-1.377Q10,13.328,11.114,10.187a.562.562,0,0,0,0-.344C10.915,9.271,10.7,8.7,10.5,8.135c-.021-.058-.047-.114-.081-.2-.033.082-.054.131-.073.18q-1,2.592-2.008,5.185c-.14.362-.236.428-.625.428-.423,0-.846,0-1.282,0m-.962.013H3.675V17.83H5.466Zm12.4,4.087h1.79V13.744h-1.79ZM2.729,13.736c-.335,0-.646-.021-.954,0a.9.9,0,0,0-.86.917c-.01.758-.009,1.517,0,2.275a.845.845,0,0,0,.646.861,8.829,8.829,0,0,0,1.169.064Zm17.881,4.1c.314,0,.616.01.917,0a.89.89,0,0,0,.892-.9c.013-.765.011-1.532,0-2.3a.864.864,0,0,0-.678-.861,11.057,11.057,0,0,0-1.131-.061ZM12.871,5.249a1.016,1.016,0,0,0,.062-.112c.4-1.11.8-2.219,1.192-3.33a.626.626,0,1,0-1.171-.438q-.378.96-.741,1.926a.329.329,0,0,0-.009.212c.214.574.437,1.144.667,1.742" fill="#ddc38e"/>
    <path id="Path_347" data-name="Path 347" d="M8.887,23.341c-.493-.163-.932-.438-1-.975a6.478,6.478,0,0,1,0-1.715,1.173,1.173,0,0,1,1.173-.959c.986-.021,1.972-.011,2.958-.012q1.025,0,2.048,0a1.331,1.331,0,0,1,1.446,1.442c0,.3.009.607-.005.91a1.3,1.3,0,0,1-.984,1.267.421.421,0,0,0-.078.042Zm2.79-2.738c-.827,0-1.654,0-2.481,0a.4.4,0,0,0-.448.449c0,.3,0,.607,0,.911a.418.418,0,0,0,.464.464c.235.006.471,0,.706,0h4.1c.444,0,.573-.126.574-.561,0-.258,0-.516,0-.774,0-.355-.138-.49-.5-.491q-1.206,0-2.413,0" fill="#ddc38e"/>
  </g>
</svg>
