<svg xmlns="http://www.w3.org/2000/svg" xmlns:xlink="http://www.w3.org/1999/xlink" width="22.398" height="22.354" viewBox="0 0 22.398 22.354">
  <defs>
    <clipPath id="clip-path">
      <rect id="Rectangle_2032" data-name="Rectangle 2032" width="22.398" height="22.354" transform="translate(0 0)" fill="#a5a5a5"/>
    </clipPath>
  </defs>
  <g id="Group_541" data-name="Group 541" transform="translate(0 0)">
    <g id="Group_540" data-name="Group 540" clip-path="url(#clip-path)">
      <path id="Path_350" data-name="Path 350" d="M22.4,9.6v9.606c-.3.519-.578.6-1.132.323-.126-.063-.255-.124-.392-.191-.065.167-.123.315-.179.464a3.78,3.78,0,0,1-5.108,2.23q-7.16-2.958-14.315-5.931a1.993,1.993,0,0,1-1.08-1A5.564,5.564,0,0,1,0,14.583v-4.1c.013-.064.028-.127.039-.19.1-.557.155-1.125.3-1.668A12.2,12.2,0,0,1,4.577,2.148,9.474,9.474,0,0,1,9.332.127L10.28,0h1.531a.969.969,0,0,0,.167.041A10.354,10.354,0,0,1,15.111.75a11.218,11.218,0,0,1,7.025,7.7c.107.381.176.772.261,1.158M20.918,9.1c-.008-.078-.007-.122-.016-.164a9.357,9.357,0,0,0-2.676-4.663,10.186,10.186,0,0,0-8.69-2.837A8.388,8.388,0,0,0,4.952,3.545,10.968,10.968,0,0,0,1.928,7.94a8.077,8.077,0,0,0-.576,2.668c-.028,1.156-.03,2.313-.039,3.47a.741.741,0,0,0,.56.849l4.935,2.044q4.632,1.92,9.263,3.839a2.507,2.507,0,0,0,1.578.165,2.716,2.716,0,0,0,2.011-2.236c-.069-.036-.132-.07-.2-.1q-2.448-1.222-4.895-2.444c-1.008-.5-2.024-.992-3.015-1.526a1.792,1.792,0,0,1-.964-1.65c-.011-1.011-.017-2.023,0-3.034a1.9,1.9,0,0,1,1.118-1.715,2.514,2.514,0,0,1,1.56-.129c1.119.143,2.238.281,3.357.421l2.968.372,1.324.164m-6.395.536V9.89c0,1.528,0,3.055-.005,4.583a.309.309,0,0,0,.2.326q3.054,1.517,6.1,3.042c.076.038.155.07.245.111v-7.5l-6.55-.817M13.2,14.039V9.47c-.161-.021-.312-.037-.463-.061a.662.662,0,0,0-.836.672c-.009.953-.006,1.906,0,2.859a.617.617,0,0,0,.293.576c.321.179.653.34,1.006.523" fill="#a5a5a5"/>
    </g>
  </g>
</svg>
