<svg id="Group_544" data-name="Group 544" xmlns="http://www.w3.org/2000/svg" xmlns:xlink="http://www.w3.org/1999/xlink" width="21.966" height="21.973" viewBox="0 0 21.966 21.973">
  <defs>
    <clipPath id="clip-path">
      <rect id="Rectangle_2034" data-name="Rectangle 2034" width="21.966" height="21.973" transform="translate(0 0)" fill="#999"/>
    </clipPath>
  </defs>
  <g id="Group_543" data-name="Group 543" clip-path="url(#clip-path)">
    <path id="Path_351" data-name="Path 351" d="M10.167,0H11.8c.238.032.477.061.715.1A11,11,0,0,1,21.8,9.054c.069.383.114.771.169,1.157v1.545c-.013.062-.031.123-.041.185-.086.534-.138,1.077-.261,1.6a10.968,10.968,0,0,1-12.5,8.279,10.477,10.477,0,0,1-5.7-2.836A10.758,10.758,0,0,1,.149,9.154,10.415,10.415,0,0,1,2.939,3.5,10.775,10.775,0,0,1,9.3.126c.287-.045.575-.084.863-.126M20.678,10.984a9.7,9.7,0,1,0-9.7,9.7,9.727,9.727,0,0,0,9.7-9.7" fill="#999"/>
    <path id="Path_353" data-name="Path 353" d="M10.985,17.108a6.124,6.124,0,1,1,6.121-6.127,6.151,6.151,0,0,1-6.121,6.127m0-10.938A4.814,4.814,0,1,0,15.8,10.988,4.8,4.8,0,0,0,10.981,6.17" fill="#999"/>
    <path id="Path_354" data-name="Path 354" d="M12.5,10.576a2.267,2.267,0,1,1-3.045.006,1.939,1.939,0,1,1,3.045-.006M10.97,13.223a.953.953,0,1,0-.941-.953.937.937,0,0,0,.941.953m.011-4.479a.631.631,0,1,0,.643.635.638.638,0,0,0-.643-.635" fill="#999"/>
  </g>
</svg>
