<svg id="Group_538" data-name="Group 538" xmlns="http://www.w3.org/2000/svg" xmlns:xlink="http://www.w3.org/1999/xlink" width="21.896" height="21.899" viewBox="0 0 21.896 21.899">
  <defs>
    <clipPath id="clip-path">
      <rect id="Rectangle_2030" data-name="Rectangle 2030" width="21.896" height="21.899" transform="translate(0 0)" fill="#333"/>
    </clipPath>
  </defs>
  <g id="Group_537" data-name="Group 537" clip-path="url(#clip-path)">
    <path id="Path_348" data-name="Path 348" d="M11.671,21.774H10.234c-.068-.014-.136-.031-.2-.041-.382-.053-.769-.082-1.147-.158a10.536,10.536,0,0,1-6.465-3.98A10.517,10.517,0,0,1,.331,8.909,10.377,10.377,0,0,1,4.308,2.42,10.535,10.535,0,0,1,13.176.365a10.447,10.447,0,0,1,5.762,3.3A10.55,10.55,0,0,1,21.6,9.07c.068.386.114.776.169,1.165v1.437c-.032.263-.058.527-.1.789A10.711,10.711,0,0,1,18.291,18.9a10.519,10.519,0,0,1-5.455,2.7c-.386.067-.777.112-1.165.167M11.324,5.207c0,.6-.005,1.2.006,1.8a.386.386,0,0,0,.116.265Q12.973,8.5,14.515,9.721a.323.323,0,0,0,.256.048q1.831-.6,3.654-1.22a.315.315,0,0,0,.177-.191q.356-1.452.687-2.91a.316.316,0,0,0-.044-.226,9.97,9.97,0,0,0-4.011-3.4.381.381,0,0,0-.274-.01c-1.163.457-2.322.925-3.484,1.384a.207.207,0,0,0-.154.232c.005.592,0,1.184,0,1.775m-.743.04c0-.605,0-1.211,0-1.817a.208.208,0,0,0-.158-.229c-1.17-.458-2.337-.924-3.507-1.381a.358.358,0,0,0-.254.008,9.993,9.993,0,0,0-4.009,3.4.311.311,0,0,0-.038.226c.219.958.451,1.912.665,2.871a.3.3,0,0,0,.237.251q1.788.591,3.574,1.192a.3.3,0,0,0,.322-.054C8.423,8.9,9.438,8.094,10.444,7.278A.413.413,0,0,0,10.575,7c.012-.585.006-1.169.006-1.754M.914,11.922c.008.058.012.079.014.1a9.852,9.852,0,0,0,1.536,4.369.293.293,0,0,0,.182.1c1.109.182,2.217.362,3.327.532a.284.284,0,0,0,.218-.1q.884-1.158,1.748-2.329a.359.359,0,0,0,.051-.264q-.451-1.839-.923-3.673a.318.318,0,0,0-.181-.189c-1.2-.407-2.394-.8-3.592-1.2a.191.191,0,0,0-.25.062C2.364,10.151,1.678,10.972,1,11.8a.892.892,0,0,0-.081.127M20.986,12a.343.343,0,0,0-.046-.161Q19.891,10.564,18.83,9.3a.2.2,0,0,0-.172-.045q-1.841.6-3.676,1.225a.249.249,0,0,0-.141.15q-.475,1.866-.934,3.738a.249.249,0,0,0,.032.187q.9,1.2,1.81,2.391a.244.244,0,0,0,.192.077q1.667-.258,3.329-.533a.288.288,0,0,0,.177-.113A10.016,10.016,0,0,0,20.986,12M10.944,14.925c-.726,0-1.451,0-2.177,0a.3.3,0,0,0-.214.084q-.89,1.167-1.761,2.348a.239.239,0,0,0-.006.215q1,1.579,2.01,3.149a.309.309,0,0,0,.178.119,9.827,9.827,0,0,0,4.226-.056.38.38,0,0,0,.22-.162c.581-1,1.152-2.014,1.732-3.019a.2.2,0,0,0-.019-.257q-.872-1.141-1.734-2.29a.3.3,0,0,0-.279-.138c-.725.007-1.451,0-2.176,0m.008-7.11c-1.035.829-2.05,1.644-3.07,2.453a.225.225,0,0,0-.085.271c.185.727.364,1.456.547,2.184.123.489.248.977.371,1.463a.846.846,0,0,0,.1.012c1.408,0,2.816,0,4.224,0,.13,0,.168-.058.194-.164.291-1.17.587-2.34.871-3.512a.3.3,0,0,0-.081-.244c-.22-.2-.457-.375-.687-.56L10.952,7.815M7.791,1.373c1.061.419,2.071.821,3.083,1.215a.339.339,0,0,0,.216-.019c.581-.228,1.159-.463,1.739-.7L14.1,1.367a10.162,10.162,0,0,0-6.3.006M3.135,17.322a10.183,10.183,0,0,0,4.631,3.2.456.456,0,0,0-.026-.087C7.2,19.585,6.653,18.731,6.1,17.881a.333.333,0,0,0-.2-.119c-.318-.06-.638-.1-.957-.155l-1.808-.285M14.4,20.387a9.657,9.657,0,0,0,4.345-3.04.629.629,0,0,0-.1-.009c-.756.121-1.508.27-2.268.352a.872.872,0,0,0-.754.536c-.388.731-.815,1.442-1.226,2.161M19.886,6.27c-.029.036-.042.046-.045.058-.175.744-.353,1.487-.518,2.234a.347.347,0,0,0,.071.255c.4.5.816.987,1.226,1.479l.415.5A10.017,10.017,0,0,0,19.886,6.27M.87,10.8c.592-.71,1.147-1.372,1.693-2.042a.312.312,0,0,0,.017-.232c-.16-.69-.325-1.379-.49-2.068-.013-.055-.028-.109-.056-.213A10.066,10.066,0,0,0,.87,10.8" fill="#333"/>
    <path id="Path_349" data-name="Path 349" d="M11.671,21.774H10.234c-.068-.014-.136-.031-.2-.041-.382-.053-.769-.082-1.147-.158a10.536,10.536,0,0,1-6.465-3.98A10.517,10.517,0,0,1,.331,8.909,10.377,10.377,0,0,1,4.308,2.42,10.535,10.535,0,0,1,13.176.365a10.447,10.447,0,0,1,5.762,3.3A10.55,10.55,0,0,1,21.6,9.07c.068.386.114.776.169,1.165v1.437c-.032.263-.058.527-.1.789A10.711,10.711,0,0,1,18.291,18.9a10.519,10.519,0,0,1-5.455,2.7C12.45,21.674,12.059,21.719,11.671,21.774ZM11.324,5.207c0,.6-.005,1.2.006,1.8a.386.386,0,0,0,.116.265Q12.973,8.5,14.515,9.721a.323.323,0,0,0,.256.048q1.831-.6,3.654-1.22a.315.315,0,0,0,.177-.191q.356-1.452.687-2.91a.316.316,0,0,0-.044-.226,9.97,9.97,0,0,0-4.011-3.4.381.381,0,0,0-.274-.01c-1.163.457-2.322.925-3.484,1.384a.207.207,0,0,0-.154.232C11.327,4.024,11.324,4.616,11.324,5.207Zm-.743.04c0-.605,0-1.211,0-1.817a.208.208,0,0,0-.158-.229c-1.17-.458-2.337-.924-3.507-1.381a.358.358,0,0,0-.254.008,9.993,9.993,0,0,0-4.009,3.4.311.311,0,0,0-.038.226c.219.958.451,1.912.665,2.871a.3.3,0,0,0,.237.251q1.788.591,3.574,1.192a.3.3,0,0,0,.322-.054C8.423,8.9,9.438,8.094,10.444,7.278A.413.413,0,0,0,10.575,7C10.587,6.416,10.581,5.832,10.581,5.247ZM.914,11.922c.008.058.012.079.014.1a9.852,9.852,0,0,0,1.536,4.369.293.293,0,0,0,.182.1c1.109.182,2.217.362,3.327.532a.284.284,0,0,0,.218-.1q.884-1.158,1.748-2.329a.359.359,0,0,0,.051-.264q-.451-1.839-.923-3.673a.318.318,0,0,0-.181-.189c-1.2-.407-2.394-.8-3.592-1.2a.191.191,0,0,0-.25.062C2.364,10.151,1.678,10.972,1,11.8A.892.892,0,0,0,.914,11.922ZM20.986,12a.343.343,0,0,0-.046-.161Q19.891,10.564,18.83,9.3a.2.2,0,0,0-.172-.045q-1.841.6-3.676,1.225a.249.249,0,0,0-.141.15q-.475,1.866-.934,3.738a.249.249,0,0,0,.032.187q.9,1.2,1.81,2.391a.244.244,0,0,0,.192.077q1.667-.258,3.329-.533a.288.288,0,0,0,.177-.113A10.016,10.016,0,0,0,20.986,12ZM10.944,14.925c-.726,0-1.451,0-2.177,0a.3.3,0,0,0-.214.084q-.89,1.167-1.761,2.348a.239.239,0,0,0-.006.215q1,1.579,2.01,3.149a.309.309,0,0,0,.178.119,9.827,9.827,0,0,0,4.226-.056.38.38,0,0,0,.22-.162c.581-1,1.152-2.014,1.732-3.019a.2.2,0,0,0-.019-.257q-.872-1.141-1.734-2.29a.3.3,0,0,0-.279-.138C12.4,14.929,11.669,14.925,10.944,14.925Zm.008-7.11c-1.035.829-2.05,1.644-3.07,2.453a.225.225,0,0,0-.085.271c.185.727.364,1.456.547,2.184.123.489.248.977.371,1.463a.846.846,0,0,0,.1.012c1.408,0,2.816,0,4.224,0,.13,0,.168-.058.194-.164.291-1.17.587-2.34.871-3.512a.3.3,0,0,0-.081-.244c-.22-.2-.457-.375-.687-.56ZM7.791,1.373c1.061.419,2.071.821,3.083,1.215a.339.339,0,0,0,.216-.019c.581-.228,1.159-.463,1.739-.7L14.1,1.367A10.162,10.162,0,0,0,7.791,1.373ZM3.135,17.322a10.183,10.183,0,0,0,4.631,3.2.456.456,0,0,0-.026-.087C7.2,19.585,6.653,18.731,6.1,17.881a.333.333,0,0,0-.2-.119c-.318-.06-.638-.1-.957-.155ZM14.4,20.387a9.657,9.657,0,0,0,4.345-3.04.629.629,0,0,0-.1-.009c-.756.121-1.508.27-2.268.352a.872.872,0,0,0-.754.536C15.242,18.957,14.815,19.668,14.4,20.387ZM19.886,6.27c-.029.036-.042.046-.045.058-.175.744-.353,1.487-.518,2.234a.347.347,0,0,0,.071.255c.4.5.816.987,1.226,1.479l.415.5A10.017,10.017,0,0,0,19.886,6.27ZM.87,10.8c.592-.71,1.147-1.372,1.693-2.042a.312.312,0,0,0,.017-.232c-.16-.69-.325-1.379-.49-2.068-.013-.055-.028-.109-.056-.213A10.066,10.066,0,0,0,.87,10.8Z" fill="#333"/>
  </g>
</svg>
