<svg xmlns="http://www.w3.org/2000/svg" xmlns:xlink="http://www.w3.org/1999/xlink" width="20.797" height="20.795" viewBox="0 0 20.797 20.795">
  <defs>
    <clipPath id="clip-path">
      <rect id="Rectangle_2036" data-name="Rectangle 2036" width="20.797" height="20.795" transform="translate(0 0)" fill="#a5a5a5"/>
    </clipPath>
  </defs>
  <g id="Group_546" data-name="Group 546" transform="translate(0 0)">
    <g id="Group_545" data-name="Group 545" clip-path="url(#clip-path)">
      <path id="Path_355" data-name="Path 355" d="M13.852,0c.35.067.7.119,1.05.2a7.652,7.652,0,0,1,3.612,2.145A.813.813,0,0,1,17.369,3.5,7.116,7.116,0,0,0,15.38,2.086a5.356,5.356,0,0,0-4.067-.111A10.944,10.944,0,0,0,7.04,4.8a9.058,9.058,0,0,0-1.9,2.655c-.016.037-.03.075-.04.1l8.191,8.188a6.762,6.762,0,0,0,1.461-.833,12.846,12.846,0,0,0,2.008-1.857.813.813,0,0,1,1.407.245.732.732,0,0,1-.114.748,11.37,11.37,0,0,1-4.15,3.209,5.984,5.984,0,0,1-5.366-.3.994.994,0,0,0-.8-.183,1.229,1.229,0,0,0-.421.224,27.021,27.021,0,0,0-2.773,2.848,2.4,2.4,0,0,1-1.395.909A2.019,2.019,0,0,1,1.4,20.339a4.024,4.024,0,0,1-1.21-1.373,2.146,2.146,0,0,1,.571-2.54A26.727,26.727,0,0,0,3.8,13.588.892.892,0,0,0,3.934,12.4a6.14,6.14,0,0,1,.177-6.5A13.021,13.021,0,0,1,10.752.448a14.313,14.313,0,0,1,1.81-.411c.038-.009.075-.024.113-.037ZM4.722,9.606c.014.108.027.249.05.388a5.377,5.377,0,0,0,.65,1.734,2.445,2.445,0,0,1,.272,1.606,2.894,2.894,0,0,1-.815,1.507,29.626,29.626,0,0,1-3,2.786.534.534,0,0,0-.044.871c.142.145.287.288.431.431a.551.551,0,0,0,.928-.038,31.762,31.762,0,0,1,3.051-3.142,2.466,2.466,0,0,1,1.663-.642,2.681,2.681,0,0,1,1.366.387,4.641,4.641,0,0,0,1.954.615l-6.5-6.5" fill="#a5a5a5"/>
      <path id="Path_356" data-name="Path 356" d="M20.8,8.649c-.037.149-.073.3-.112.446a3.272,3.272,0,0,1-3.367,2.4,3.306,3.306,0,0,1-2.966-2.626,3.254,3.254,0,1,1,6.409-1.122.474.474,0,0,0,.036.092Zm-4.872-.415a1.624,1.624,0,1,0,1.642-1.615,1.643,1.643,0,0,0-1.642,1.615" fill="#a5a5a5"/>
    </g>
  </g>
</svg>
