<svg xmlns="http://www.w3.org/2000/svg" xmlns:xlink="http://www.w3.org/1999/xlink" width="19.574" height="19.561" viewBox="0 0 19.574 19.561">
  <defs>
    <clipPath id="clip-path">
      <rect id="Rectangle_2044" data-name="Rectangle 2044" width="19.574" height="19.561" fill="#a5a5a5"/>
    </clipPath>
  </defs>
  <g id="Group_555" data-name="Group 555" transform="translate(0 0)">
    <g id="Group_554" data-name="Group 554" transform="translate(0 0)" clip-path="url(#clip-path)">
      <path id="Path_367" data-name="Path 367" d="M0,15.589V1.167A1.167,1.167,0,0,1,1.168,0H18.407a1.167,1.167,0,0,1,1.167,1.167v14.16a1.167,1.167,0,0,1-1.167,1.167H12.26a2.742,2.742,0,0,0,2.563,1.941V19.56H4.749V18.43a2.772,2.772,0,0,0,1.624-.535,2.644,2.644,0,0,0,.975-1.405H7.091q-3.1,0-6.189,0c-.722,0-.9-.363-.9-.9M2.324,13H17.25a1.168,1.168,0,0,0,1.168-1.167V2.324A1.168,1.168,0,0,0,17.25,1.157H2.324A1.167,1.167,0,0,0,1.156,2.324v9.512A1.167,1.167,0,0,0,2.324,13m-1.17,2.317H18.413V14.193H1.153Zm10.944,3.1a4.345,4.345,0,0,1-1.014-1.786c-.039-.121-.531-.143-.648-.142-.423,0-.423,0-.848,0a1.4,1.4,0,0,0-1.3.794,3.645,3.645,0,0,1-.428.738c-.1.128-.2.252-.319.395Z" transform="translate(0 0)" fill="#a5a5a5"/>
      <path id="Path_368" data-name="Path 368" d="M12.506,8.36H6.54c0,.265,0,.524,0,.784A1.8,1.8,0,0,1,4.9,10.98,1.777,1.777,0,0,1,3,9.48c-.057-.632-.029-1.272-.04-1.908,0-.088,0-.177,0-.286H1.968V6.142h.989c0-.1,0-.17,0-.244.009-.643-.016-1.289.036-1.928A1.754,1.754,0,0,1,4.675,2.431,1.791,1.791,0,0,1,6.5,3.855a2.679,2.679,0,0,1,.039.416c.006.254,0,.509,0,.777h5.966c0-.272,0-.543,0-.815a1.792,1.792,0,1,1,3.583.04c0,.542,0,1.084,0,1.625v.23h.987V7.273h-.987c0,.094,0,.168,0,.242-.009.643.016,1.288-.036,1.928a1.757,1.757,0,0,1-1.7,1.542,1.8,1.8,0,0,1-1.808-1.425,2.572,2.572,0,0,1-.037-.417c-.007-.254,0-.508,0-.782M4.125,6.694h0c0,.8,0,1.6,0,2.406a.983.983,0,0,0,.034.3.611.611,0,0,0,.709.411.632.632,0,0,0,.522-.657q.005-2.444,0-4.89a.846.846,0,0,0-.136-.425.621.621,0,0,0-1.122.352c-.006.835,0,1.668,0,2.5m10.8.012h0c0-.795,0-1.591,0-2.387a1.019,1.019,0,0,0-.032-.3A.613.613,0,0,0,14.2,3.6a.638.638,0,0,0-.549.693q0,2.415,0,4.832a.888.888,0,0,0,.058.316.611.611,0,0,0,.7.373.6.6,0,0,0,.507-.583c.006-.84,0-1.681,0-2.522m-2.429-.481H6.552V7.2h5.941Z" transform="translate(0.264 0.326)" fill="#a5a5a5"/>
    </g>
  </g>
</svg>
