<svg xmlns="http://www.w3.org/2000/svg" xmlns:xlink="http://www.w3.org/1999/xlink" width="18.652" height="18.663" viewBox="0 0 18.652 18.663">
  <defs>
    <clipPath id="clip-path">
      <rect id="Rectangle_2038" data-name="Rectangle 2038" width="18.652" height="18.663" transform="translate(0 0)" fill="#999"/>
    </clipPath>
  </defs>
  <g id="Group_549" data-name="Group 549" transform="translate(0 -2)">
    <g id="Group_548" data-name="Group 548" transform="translate(0 2)" clip-path="url(#clip-path)">
      <path id="Path_357" data-name="Path 357" d="M18.652,8.678V9.99c-.04.3-.072.6-.123.9a9.137,9.137,0,0,1-1.92,4.279,9.175,9.175,0,0,1-5.624,3.349c-.332.061-.669.1-1,.147H8.669c-.216-.027-.432-.052-.647-.083A8.868,8.868,0,0,1,3.5,16.613,9.1,9.1,0,0,1,.252,7.2,8.837,8.837,0,0,1,4.073,1.623,9.13,9.13,0,0,1,10.879.13a8.916,8.916,0,0,1,4.264,1.908A9.181,9.181,0,0,1,18.5,7.676c.061.331.1.668.147,1M1.4,11.454a.257.257,0,0,0-.008.056A8.187,8.187,0,0,0,3.6,15.233a.355.355,0,0,0,.207.082A10,10,0,0,0,7.083,15a10.87,10.87,0,0,0,5.808-3.723c.4-.484.732-1.02,1.108-1.55a6.7,6.7,0,0,0-3.541-.341.8.8,0,0,0-.485.275,7.239,7.239,0,0,1-1.9,1.477A7.587,7.587,0,0,1,3.377,12,7.781,7.781,0,0,1,1.4,11.454m3.789,4.985c.093.054.163.1.236.138a7.927,7.927,0,0,0,5.457.833A8.1,8.1,0,0,0,17,12.281a.256.256,0,0,0-.034-.222c-.369-.417-.731-.843-1.13-1.23a8.148,8.148,0,0,0-.859-.645,12.194,12.194,0,0,1-9.8,6.254m3.2-15.262a1.3,1.3,0,0,0-.174,0A8.147,8.147,0,0,0,4.686,2.546a.359.359,0,0,0-.139.208,10.489,10.489,0,0,0,.076,3.814,10.839,10.839,0,0,0,1.669,3.975c.067.1.13.125.238.073.451-.218.916-.41,1.353-.654a5.3,5.3,0,0,0,1.26-1.023,7.746,7.746,0,0,1-.762-7.761M17.4,10.816a.5.5,0,0,0,.033-.09c.021-.15.042-.3.06-.45a7.985,7.985,0,0,0-.465-3.822.43.43,0,0,0-.179-.207,10.451,10.451,0,0,0-2.122-.888,10.814,10.814,0,0,0-4.208-.391c-.557.056-1.108.176-1.665.268a1.1,1.1,0,0,0,0,.147,6.673,6.673,0,0,0,1.158,2.851.2.2,0,0,0,.235.076c.216-.033.429-.077.647-.1a7.627,7.627,0,0,1,4.351.879A7.733,7.733,0,0,1,17.4,10.816M3.285,3.758c-.083.092-.171.181-.249.277A8.138,8.138,0,0,0,1.12,9.913a.274.274,0,0,0,.164.264,6.584,6.584,0,0,0,3.027.792c.294.006.587-.023.919-.039A12.33,12.33,0,0,1,3.285,3.758M8.8,4.143a12.115,12.115,0,0,1,7.294.523c-.043-.069-.058-.094-.075-.118a8.121,8.121,0,0,0-6.221-3.42.223.223,0,0,0-.176.1c-.192.429-.392.859-.55,1.3A5.189,5.189,0,0,0,8.8,4.143" transform="translate(0 0)" fill="#999"/>
    </g>
  </g>
</svg>
